<svg width="32" height="32" viewBox="0 0 32 32" fill="none" xmlns="http://www.w3.org/2000/svg">
<path d="M15.9991 29.3334C23.3629 29.3334 29.3324 23.3638 29.3324 16C29.3324 8.63622 23.3629 2.66669 15.9991 2.66669C8.63528 2.66669 2.66574 8.63622 2.66574 16C2.66574 23.3638 8.63528 29.3334 15.9991 29.3334Z" stroke="white" stroke-width="1.4" stroke-linecap="round" stroke-linejoin="round"/>
<path d="M12.1191 12C12.4326 11.1089 13.0513 10.3575 13.8657 9.87887C14.6801 9.40024 15.6376 9.22528 16.5686 9.38498C17.4997 9.54467 18.3442 10.0287 18.9525 10.7514C19.5609 11.4741 19.8938 12.3887 19.8924 13.3334C19.8924 16 15.8924 17.3334 15.8924 17.3334" stroke="white" stroke-width="1.4" stroke-linecap="round" stroke-linejoin="round"/>
<path d="M15.9991 22.6667H16.0133" stroke="white" stroke-width="1.4" stroke-linecap="round" stroke-linejoin="round"/>
</svg>
