<svg width="59" height="18" viewBox="0 0 59 18" fill="none" xmlns="http://www.w3.org/2000/svg">
<path fill-rule="evenodd" clip-rule="evenodd" d="M36.7716 13.7685C33.3978 16.2458 28.5076 17.5675 24.2972 17.5675C18.3936 17.5675 13.0789 15.3923 9.05801 11.7746C8.74218 11.49 9.02521 11.1023 9.40427 11.3239C13.7435 13.839 19.1088 15.352 24.6511 15.352C28.3888 15.352 32.5006 14.5816 36.2813 12.983C36.8525 12.7413 37.3301 13.3556 36.7716 13.7685Z" fill="#FF9900"/>
<path fill-rule="evenodd" clip-rule="evenodd" d="M38.1631 12.1688C37.7335 11.62 35.3123 11.9095 34.2256 12.0379C33.8946 12.0782 33.8441 11.7912 34.1423 11.5847C36.0705 10.2328 39.2346 10.623 39.6036 11.0762C39.9725 11.5319 39.5076 14.6914 37.6955 16.1995C37.4175 16.4311 37.1522 16.3077 37.276 16.0006C37.6829 14.9885 38.5952 12.7202 38.1631 12.1688Z" fill="#FF9900"/>
<path fill-rule="evenodd" clip-rule="evenodd" d="M34.309 2.04244V0.728282C34.309 0.529382 34.4607 0.395954 34.6426 0.395954H40.5487C40.7383 0.395954 40.89 0.531869 40.89 0.728282V1.8536C40.8874 2.04244 40.7282 2.28917 40.4452 2.67939L37.3847 7.03227C38.5219 7.00463 39.7224 7.17328 40.7535 7.75234C40.986 7.88322 41.0491 8.0746 41.0669 8.26338V9.66568C41.0669 9.857 40.8545 10.0811 40.6322 9.96527C38.8151 9.01618 36.4016 8.91294 34.3925 9.97534C34.1877 10.0862 33.9729 9.86458 33.9729 9.67326V8.34146C33.9729 8.12746 33.9754 7.7624 34.1902 7.43765L37.736 2.37228H34.6502C34.4607 2.37228 34.309 2.23885 34.309 2.04244ZM12.7645 10.2422H10.9676C10.7957 10.2296 10.6593 10.1012 10.6466 9.93757V0.750953C10.6466 0.567149 10.8008 0.421113 10.9928 0.421113H12.6684C12.8428 0.428631 12.9818 0.562118 12.9944 0.728224V1.9292H13.0273C13.4645 0.768594 14.2858 0.227361 15.3927 0.227361C16.5173 0.227361 17.2199 0.768594 17.7254 1.9292C18.1601 0.768594 19.1482 0.227361 20.2071 0.227361C20.9602 0.227361 21.7841 0.537017 22.287 1.23186C22.8556 2.00473 22.7394 3.12757 22.7394 4.11194L22.7368 9.90992C22.7368 10.0937 22.5827 10.2423 22.3906 10.2423H20.5963C20.4169 10.2297 20.2728 10.0862 20.2728 9.90992V5.04091C20.2728 4.65317 20.3082 3.68638 20.2223 3.31889C20.0884 2.70206 19.6865 2.52832 19.1659 2.52832C18.7312 2.52832 18.2763 2.81785 18.0918 3.28112C17.9074 3.74439 17.9251 4.51975 17.9251 5.04091V9.90987C17.9251 10.0937 17.7709 10.2422 17.5788 10.2422H15.7845C15.6025 10.2296 15.461 10.0862 15.461 9.90987L15.4585 5.04091C15.4585 4.01622 15.6278 2.50825 14.3515 2.50825C13.0602 2.50825 13.1107 3.97845 13.1107 5.04091V9.90987C13.1107 10.0937 12.9565 10.2422 12.7645 10.2422ZM45.9747 0.227303C48.6409 0.227303 50.084 2.5082 50.084 5.40846C50.084 8.21052 48.4893 10.4336 45.9747 10.4336C43.3565 10.4336 41.9312 8.15262 41.9312 5.31025C41.9312 2.4503 43.3742 0.227303 45.9747 0.227303ZM45.9899 2.10288C44.6656 2.10288 44.5822 3.90043 44.5822 5.02072C44.5822 6.14362 44.5646 8.5403 45.9747 8.5403C47.3673 8.5403 47.4329 6.60683 47.4329 5.42859C47.4329 4.65317 47.4001 3.72669 47.165 2.99159C46.9629 2.3521 46.5611 2.10288 45.9899 2.10288H45.9899ZM53.5413 10.2422H51.752C51.5726 10.2296 51.4285 10.0862 51.4285 9.90987L51.426 0.720705C51.4411 0.552054 51.5903 0.421113 51.7722 0.421113H53.4376C53.5943 0.428631 53.7232 0.534472 53.7586 0.677906V2.08275H53.7914C54.2944 0.826488 54.9994 0.227303 56.2403 0.227303C57.0465 0.227303 57.8325 0.516774 58.3379 1.30983C58.808 2.04493 58.808 3.28112 58.808 4.16984V9.95266C58.7878 10.1138 58.6387 10.2422 58.4618 10.2422H56.6598C56.4955 10.2296 56.3591 10.1088 56.3414 9.95266V4.96283C56.3414 3.95833 56.4577 2.48801 55.2168 2.48801C54.7796 2.48801 54.3778 2.78009 54.1782 3.22317C53.9254 3.78465 53.8925 4.34352 53.8925 4.96289V9.90987C53.89 10.0937 53.7333 10.2422 53.5413 10.2422ZM29.6008 5.85409C29.6008 6.55142 29.6185 7.13303 29.2647 7.75228C28.9791 8.25586 28.5242 8.56546 28.0213 8.56546C27.3314 8.56546 26.927 8.04187 26.927 7.26894C26.927 5.74327 28.2993 5.46635 29.6008 5.46635V5.85409ZM31.4128 10.217C31.2941 10.3228 31.1222 10.3303 30.9883 10.2598C30.3918 9.76637 30.2832 9.53728 29.9572 9.06649C28.9715 10.0685 28.2715 10.3681 26.9952 10.3681C25.4814 10.3681 24.3063 9.43908 24.3063 7.57865C24.3063 6.12598 25.0948 5.13657 26.2219 4.65317C27.1974 4.22518 28.5596 4.14965 29.6009 4.03132V3.79974C29.6009 3.37424 29.6337 2.87071 29.3809 2.50316C29.1636 2.17338 28.744 2.03741 28.3726 2.03741C27.6877 2.03741 27.0787 2.38732 26.9296 3.11241C26.8992 3.27355 26.7804 3.43213 26.6162 3.43971L24.8749 3.25342C24.7284 3.22068 24.564 3.10235 24.607 2.87829C25.0063 0.773625 26.9169 0.13916 28.6254 0.13916C29.4998 0.13916 30.6421 0.370795 31.332 1.03042C32.2064 1.8436 32.123 2.92861 32.123 4.1094V6.89885C32.123 7.73724 32.4718 8.10473 32.8003 8.55794C32.9141 8.71907 32.9393 8.91294 32.7928 9.03376C32.4263 9.33838 31.7743 9.90483 31.4154 10.2221L31.4129 10.217H31.4128ZM6.04454 5.85409C6.04454 6.55142 6.06225 7.13303 5.70838 7.75228C5.42285 8.25586 4.97047 8.56546 4.46501 8.56546C3.77511 8.56546 3.37323 8.04187 3.37323 7.26894C3.37323 5.74327 4.74555 5.46635 6.04454 5.46635V5.85409ZM7.85653 10.217C7.7378 10.3228 7.56595 10.3303 7.43201 10.2598C6.83558 9.76637 6.72939 9.53728 6.4009 9.06649C5.41525 10.0685 4.7178 10.3681 3.43896 10.3681C1.92771 10.3681 0.75 9.43908 0.75 7.57865C0.75 6.12598 1.54104 5.13657 2.66562 4.65317C3.64117 4.22518 5.00333 4.14965 6.04454 4.03132V3.79974C6.04454 3.37424 6.0774 2.87071 5.82717 2.50316C5.60731 2.17338 5.18784 2.03741 4.81882 2.03741C4.13397 2.03741 3.52238 2.38732 3.37323 3.11241C3.34293 3.27355 3.22414 3.43213 3.06239 3.43971L1.31862 3.25342C1.17202 3.22068 1.01033 3.10235 1.05074 2.87829C1.45256 0.773625 3.36064 0.13916 5.06905 0.13916C5.9434 0.13916 7.08575 0.370795 7.77571 1.03042C8.65007 1.8436 8.56669 2.92861 8.56669 4.1094V6.89885C8.56669 7.73724 8.91545 8.10473 9.244 8.55794C9.36029 8.71907 9.38554 8.91294 9.23895 9.03376C8.87249 9.33838 8.22049 9.90483 7.86164 10.2221L7.85659 10.217" fill="black"/>
</svg>
