<svg width="22" height="15" viewBox="0 0 22 15" fill="none" xmlns="http://www.w3.org/2000/svg">
<path fill-rule="evenodd" clip-rule="evenodd" d="M2.37627 9.63667C2.37627 10.4767 2.56065 11.1216 2.80164 11.5118C3.11761 12.0229 3.58889 12.2394 4.06934 12.2394C4.68904 12.2394 5.25595 12.0856 6.34845 10.5746C6.96539 9.72095 7.65987 8.62436 8.25907 7.67822L8.2591 7.67817C8.50996 7.28208 8.74411 6.91235 8.94888 6.59786L9.88428 5.16065C9.42756 4.51023 9.03466 4.01524 8.75221 3.71512C8.18684 3.11456 7.46005 2.3893 6.30025 2.38928C5.36152 2.38928 4.56433 3.04799 3.8972 4.05557C2.95389 5.47934 2.37627 7.60008 2.37627 9.63667ZM0 9.55175C0 10.8455 0.255529 11.9808 0.775769 12.8461C1.41306 13.908 2.44206 14.6126 4.06934 14.6126C5.44109 14.6126 6.4831 13.9967 7.70337 12.3717C8.39957 11.4437 8.75226 10.8814 10.1447 8.41257L10.8378 7.18466L11.008 6.88314C11.0637 6.97435 11.1197 7.06696 11.1759 7.16094L13.149 10.4568C13.8123 11.5661 14.6745 12.8002 15.412 13.4949C16.3714 14.3999 17.239 14.6126 18.2183 14.6126H18.2183C18.6395 14.6126 19.0149 14.5532 19.3483 14.4502C20.2617 14.1679 20.8585 13.5584 21.2105 12.9486C21.7077 12.0879 22 10.9985 22 9.51579C22 7.0217 21.3757 4.60488 20.0897 2.68612C18.9145 0.934136 17.3791 0 15.7671 0C14.8069 0 13.8529 0.428432 12.9685 1.19961C12.3707 1.72097 11.8151 2.37905 11.3 3.07491C10.666 2.27233 10.0765 1.66063 9.50503 1.19426C8.42096 0.309097 7.38279 9.59675e-06 6.3385 0C6.33849 0 6.33847 0 6.33845 0C4.53521 0 2.96302 1.17436 1.87358 2.85367L1.87361 2.85369C0.645704 4.7472 0 7.1992 0 9.55175ZM13.5315 6.38211C13.1284 5.71064 12.7457 5.10668 12.3796 4.56343C12.4448 4.46235 12.5098 4.36367 12.5745 4.26749C13.602 2.73967 14.5162 1.88281 15.6523 1.88281C16.7027 1.88281 17.6575 2.57748 18.3943 3.71436C19.4325 5.31715 19.9037 7.5603 19.9037 9.58158H19.9037C19.9037 10.8227 19.646 11.9267 18.678 12.1834C18.5397 12.22 18.3869 12.2394 18.2183 12.2394H18.2183C17.6866 12.2394 17.2773 12.0282 16.6927 11.3198C16.2383 10.7682 15.4618 9.59841 14.0969 7.32466L13.5315 6.38211Z" fill="#142631"/>
</svg>
