<svg width="40" height="40" viewBox="0 0 40 40" fill="none" xmlns="http://www.w3.org/2000/svg">
<path fill-rule="evenodd" clip-rule="evenodd" d="M24.5748 19.4496C25.3612 18.4556 25.8307 17.1993 25.8307 15.8333C25.8307 12.6117 23.2191 10 19.9974 10C16.7757 10 14.1641 12.6117 14.1641 15.8333C14.1641 17.1993 14.6335 18.4556 15.42 19.4496C12.7227 20.8607 10.8307 23.4928 10.8307 26.6667C10.8307 27.5871 11.5769 28.3333 12.4974 28.3333C13.4179 28.3333 14.1641 27.5871 14.1641 26.6667C14.1641 24.0843 16.5857 21.6667 19.9974 21.6667C23.4091 21.6667 25.8307 24.0843 25.8307 26.6667C25.8307 27.5871 26.5769 28.3333 27.4974 28.3333C28.4179 28.3333 29.1641 27.5871 29.1641 26.6667C29.1641 23.4928 27.2721 20.8607 24.5748 19.4496ZM19.9974 13.3333C18.6167 13.3333 17.4974 14.4526 17.4974 15.8333C17.4974 17.214 18.6167 18.3333 19.9974 18.3333C21.3781 18.3333 22.4974 17.214 22.4974 15.8333C22.4974 14.4526 21.3781 13.3333 19.9974 13.3333Z" fill="#3996D2"/>
<path fill-rule="evenodd" clip-rule="evenodd" d="M1.66406 6.66667C1.66406 5.74619 2.41025 5 3.33073 5H36.6641C37.5845 5 38.3307 5.74619 38.3307 6.66667V31.6667C38.3307 32.5871 37.5845 33.3333 36.6641 33.3333H24.8544L21.1759 37.0118C20.525 37.6627 19.4698 37.6627 18.8189 37.0118L15.1404 33.3333H3.33073C2.41025 33.3333 1.66406 32.5871 1.66406 31.6667V6.66667ZM4.9974 8.33333V30H15.8307C16.2728 30 16.6967 30.1756 17.0092 30.4882L19.9974 33.4763L22.9855 30.4882C23.2981 30.1756 23.722 30 24.1641 30H34.9974V8.33333H4.9974Z" fill="#3996D2"/>
<path d="M17.5 15.834C17.5 14.4533 18.6193 13.334 20 13.334C21.3807 13.334 22.5 14.4533 22.5 15.834C22.5 17.2147 21.3807 18.334 20 18.334C18.6193 18.334 17.5 17.2147 17.5 15.834Z" fill="#3996D2" fill-opacity="0.2"/>
</svg>
