<svg width="35" height="40" viewBox="0 0 35 40" fill="none" xmlns="http://www.w3.org/2000/svg">
<path d="M6.74578 8.40379L8.62726 10.8208C4.57166 13.9766 2.54868 19.0856 3.34712 24.1556C3.93202 27.8759 5.93104 31.1458 8.97546 33.3634C12.0209 35.5797 15.7462 36.4806 19.4665 35.8927C27.1464 34.6835 32.4122 27.4518 31.205 19.7713C30.6201 16.0507 28.6205 12.7806 25.5757 10.5636C22.9173 8.6284 19.7406 7.69894 16.5012 7.8833L19.1489 10.661L17.1847 12.5355L13.0051 8.14757L13.0041 8.14918L11.1317 6.18297L13.0945 4.31055L13.0955 4.31115L17.4818 0.13076L19.3556 2.09697L16.4975 4.81916C20.3827 4.6354 24.1881 5.76553 27.378 8.08819C31.084 10.7866 33.5174 14.7666 34.2299 19.2959C35.6996 28.644 29.2907 37.4473 19.9427 38.9184C19.0392 39.0609 18.1361 39.1308 17.2388 39.1308C13.6381 39.1308 10.1394 37.999 7.17308 35.8388C3.46668 33.1399 1.03372 29.16 0.321223 24.6316C-0.650712 18.4619 1.81123 12.2434 6.74578 8.40379Z" fill="#5296CD"/>
<path d="M18.9576 30.7181V30.7174H18.9578V28.9549C21.0476 28.7216 23.0808 27.4015 23.0808 24.8953C23.0808 21.49 19.9144 21.0995 17.6016 20.8147C16.1229 20.638 14.9911 20.4329 14.9911 19.5371C14.9911 18.2916 16.7466 18.1574 17.5016 18.1574C18.622 18.1574 19.8176 18.6841 20.2238 19.3563L20.3417 19.5518L22.6648 18.4768L22.5498 18.2425C21.6842 16.4727 20.1328 15.9607 18.9572 15.754V14.2022H16.237V15.7473C13.7046 16.1209 12.2007 17.5264 12.2007 19.5371C12.2007 22.8158 15.1777 23.1485 17.3496 23.392C19.2852 23.6202 20.1863 24.0985 20.1863 24.8953C20.1863 26.4175 18.0782 26.5365 17.4319 26.5365C15.9934 26.5365 14.6065 25.8187 14.2054 24.8657L14.1057 24.6304L11.582 25.7004L11.6826 25.9357C12.43 27.6849 14.0425 28.781 16.2374 29.0403V30.7181H18.9576V30.7181Z" fill="#5296CD"/>
</svg>
