<svg width="141" height="14" viewBox="0 0 141 14" fill="none" xmlns="http://www.w3.org/2000/svg">
<path d="M14.1055 6.10415L14.1056 6.10414C22.9913 4.87769 31.9299 4.10322 40.8667 3.35497C45.4126 2.9741 50.042 2.61659 54.7236 2.29935C43.5078 2.20496 32.2904 2.13878 21.1203 2.07287L20.7449 2.07066L20.7411 2.07063V2.0706C20.3914 2.0619 20.0769 1.79623 20.0791 1.43081L20.0791 1.43022C20.0823 1.06675 20.3989 0.799756 20.7524 0.799756H20.7536C21.654 0.80521 22.5547 0.810644 23.4557 0.81608C40.6817 0.920009 58.005 1.02453 75.2652 1.25131C92.4899 0.703008 109.902 1.08355 126.213 3.36904C126.363 3.38986 126.477 3.41826 126.56 3.44625C126.601 3.46021 126.636 3.47447 126.664 3.48827C126.683 3.49749 126.709 3.51134 126.733 3.53014C126.857 3.61795 126.936 3.72295 126.976 3.83679C127.016 3.9488 127.012 4.05377 126.998 4.13446C126.99 4.18982 126.957 4.31356 126.861 4.43076C126.756 4.55977 126.583 4.66799 126.326 4.67654C126.15 4.68339 125.478 4.64339 124.758 4.59644C124.357 4.57023 123.94 4.54179 123.571 4.51658C123.263 4.49557 122.988 4.4768 122.782 4.46343C120.622 4.32917 118.461 4.17838 116.302 4.02766C115.763 3.99004 115.224 3.95242 114.685 3.91506C105.724 3.30886 96.7018 2.85752 87.7223 2.70278C83.5713 2.63186 79.4203 2.5738 75.2549 2.51576C63.6135 2.88981 52.0621 3.68932 40.991 4.61794L40.9909 4.61795C32.0655 5.3598 23.155 6.1335 14.3001 7.35829C13.2383 7.50591 12.1758 7.63143 11.1152 7.75673C9.64538 7.93038 8.17911 8.1036 6.72283 8.33466C13.9251 8.58394 21.1856 8.23207 28.4509 7.77092C30.0664 7.66839 31.6822 7.56043 33.2977 7.45251C39.5671 7.03365 45.8311 6.61516 52.0454 6.51506C81.1746 6.044 111.178 7.89595 140.069 11.9289C140.416 11.974 140.694 12.2904 140.631 12.6493C140.576 13.0123 140.217 13.2271 139.877 13.1835L139.875 13.1832C111.053 9.15943 81.1187 7.31517 52.0659 7.77946C45.8564 7.87984 39.5996 8.29741 33.3252 8.71615C31.1386 8.86209 28.9497 9.00817 26.76 9.14101C18.2917 9.65476 9.81652 9.97 1.43267 9.30766M14.1055 6.10415L1.44842 9.10829M14.1055 6.10415C13.0679 6.24783 12.0191 6.37243 10.9676 6.49737C9.20248 6.70708 7.42936 6.91775 5.68724 7.22118M14.1055 6.10415L14.1329 6.30226C13.0868 6.44711 12.0347 6.57208 10.9819 6.69713C9.22164 6.9062 7.45969 7.11548 5.72156 7.41821M1.43267 9.30766L1.44842 9.10829M1.43267 9.30766C1.43278 9.30767 1.43289 9.30768 1.433 9.30769L1.44842 9.10829M1.43267 9.30766C1.26937 9.29498 1.14699 9.24065 1.05736 9.1712C0.971585 9.10472 0.924975 9.03111 0.903323 8.99592M1.44842 9.10829C1.19812 9.08893 1.10796 8.94696 1.07231 8.88891M0.903323 8.99592C0.903892 8.9968 0.904463 8.99767 0.905035 8.99855L1.07231 8.88891M0.903323 8.99592C0.844228 8.90493 0.797742 8.78962 0.799953 8.65741C0.80224 8.5207 0.856277 8.38796 0.961299 8.26738L1.11212 8.39873M0.903323 8.99592C0.902829 8.99512 0.902349 8.99434 0.901881 8.99358L1.07231 8.88891M1.07231 8.88891L1.11212 8.39873M1.11212 8.39873L0.96101 8.26771C0.998744 8.22419 1.0968 8.11991 1.30059 8.05364L1.30536 8.05209L1.30538 8.05215C1.46983 8.0032 2.13802 7.87021 2.96486 7.71432C3.79967 7.55692 4.8145 7.37293 5.68724 7.22118M1.11212 8.39873C1.13449 8.37293 1.20373 8.29545 1.36243 8.24384C1.66586 8.15353 3.9779 7.7214 5.72156 7.41821M5.68724 7.22118L5.72156 7.41821M5.68724 7.22118C5.68726 7.22118 5.68728 7.22117 5.6873 7.22117L5.72156 7.41821M5.75815 8.4978C5.81658 8.4872 5.87414 8.47679 5.93067 8.46658C5.93048 8.46661 5.9303 8.46665 5.93011 8.46668L5.75815 8.4978ZM5.75815 8.4978C5.45943 8.4852 5.16082 8.47154 4.86231 8.45676L5.75815 8.4978Z" fill="#B4E7C8" stroke="#B4E7C8" stroke-width="0.4"/>
</svg>
