<svg width="48" height="48" viewBox="0 0 48 48" fill="none" xmlns="http://www.w3.org/2000/svg">
<rect width="48" height="48" rx="8" fill="#007EBB" fill-opacity="0.12"/>
<path fill-rule="evenodd" clip-rule="evenodd" d="M32.6667 32.6667H29.1052V26.6007C29.1052 24.9376 28.4733 24.0082 27.1569 24.0082C25.7249 24.0082 24.9767 24.9754 24.9767 26.6007V32.6667H21.5445V21.1111H24.9767V22.6676C24.9767 22.6676 26.0087 20.7581 28.4609 20.7581C30.9119 20.7581 32.6667 22.2548 32.6667 25.3504V32.6667ZM17.4498 19.598C16.2807 19.598 15.3333 18.6432 15.3333 17.4657C15.3333 16.2881 16.2807 15.3333 17.4498 15.3333C18.6189 15.3333 19.5657 16.2881 19.5657 17.4657C19.5657 18.6432 18.6189 19.598 17.4498 19.598ZM15.6775 32.6667H19.2565V21.1111H15.6775V32.6667Z" fill="#007EBB"/>
</svg>
