<svg width="612" height="628" viewBox="0 0 612 628" fill="none" xmlns="http://www.w3.org/2000/svg">
<path d="M186.411 627.315H187.761C181.52 550.958 148.803 480.005 94.0212 425.223C36.3852 367.587 -39.1494 334.362 -120.047 330.714V332.057C41.9226 339.479 173.093 466.925 186.411 627.315Z" fill="url(#paint0_linear_1_19)"/>
<path d="M610.635 -55C590.353 36.6042 508.499 105.331 410.883 105.331C313.264 105.331 231.412 36.6042 211.131 -55H209.765C230.071 37.3468 312.528 106.664 410.883 106.664C509.237 106.664 591.695 37.3468 612 -55H610.635Z" fill="url(#paint1_linear_1_19)"/>
<path d="M25.1437 278.337H25.8104C25.8104 267.256 30.2998 257.231 37.5611 249.968C44.8225 242.705 54.8491 238.216 65.9291 238.216C77.0104 238.216 87.0371 242.705 94.2998 249.968C101.561 257.231 106.05 267.256 106.05 278.337C106.05 289.417 101.561 299.444 94.2998 306.707C87.0371 313.968 77.0104 318.457 65.9291 318.457C54.8491 318.456 44.8225 313.968 37.5611 306.707C30.2998 299.444 25.8104 289.417 25.8104 278.337H25.1437H24.4771C24.4771 301.231 43.0358 319.789 65.9291 319.791C88.8238 319.789 107.384 301.231 107.384 278.337C107.384 255.443 88.8238 236.883 65.9291 236.883C43.0358 236.883 24.4771 255.443 24.4771 278.337H25.1437Z" fill="url(#paint2_linear_1_19)"/>
<path d="M124.113 152.26C124.113 151.367 124.837 150.642 125.732 150.642C126.625 150.642 127.351 151.367 127.351 152.26C127.351 153.154 126.625 153.879 125.732 153.879C124.837 153.879 124.113 153.154 124.113 152.26Z" fill="url(#paint3_linear_1_19)"/>
<path d="M106.978 152.26C106.978 151.367 107.701 150.642 108.594 150.642C109.489 150.642 110.213 151.367 110.213 152.26C110.213 153.154 109.489 153.879 108.594 153.879C107.701 153.879 106.978 153.154 106.978 152.26Z" fill="url(#paint4_linear_1_19)"/>
<path d="M89.8412 152.26C89.8412 151.367 90.5666 150.642 91.4599 150.642C92.3533 150.642 93.0786 151.367 93.0786 152.26C93.0786 153.154 92.3533 153.879 91.4599 153.879C90.5666 153.879 89.8412 153.154 89.8412 152.26Z" fill="url(#paint5_linear_1_19)"/>
<path d="M72.7055 152.26C72.7055 151.367 73.4294 150.642 74.3241 150.642C75.2174 150.642 75.9414 151.367 75.9414 152.26C75.9414 153.154 75.2174 153.879 74.3241 153.879C73.4294 153.879 72.7055 153.154 72.7055 152.26Z" fill="url(#paint6_linear_1_19)"/>
<path d="M55.5706 152.26C55.5706 151.367 56.2946 150.642 57.188 150.642C58.0826 150.642 58.8066 151.367 58.8066 152.26C58.8066 153.154 58.0826 153.879 57.188 153.879C56.2946 153.879 55.5706 153.154 55.5706 152.26Z" fill="url(#paint7_linear_1_19)"/>
<path d="M38.4331 152.26C38.4331 151.367 39.1584 150.642 40.0517 150.642C40.9451 150.642 41.6704 151.367 41.6704 152.26C41.6704 153.154 40.9451 153.879 40.0517 153.879C39.1584 153.879 38.4331 153.154 38.4331 152.26Z" fill="url(#paint8_linear_1_19)"/>
<path d="M21.2987 152.26C21.2987 151.367 22.0227 150.642 22.9174 150.642C23.8107 150.642 24.5347 151.367 24.5347 152.26C24.5347 153.154 23.8107 153.879 22.9174 153.879C22.0227 153.879 21.2987 153.154 21.2987 152.26Z" fill="url(#paint9_linear_1_19)"/>
<path d="M124.113 133.3C124.113 132.406 124.837 131.682 125.732 131.682C126.625 131.682 127.351 132.406 127.351 133.3C127.351 134.192 126.625 134.916 125.732 134.916C124.837 134.916 124.113 134.192 124.113 133.3Z" fill="url(#paint10_linear_1_19)"/>
<path d="M106.978 133.3C106.978 132.406 107.701 131.682 108.594 131.682C109.489 131.682 110.213 132.406 110.213 133.3C110.213 134.192 109.489 134.916 108.594 134.916C107.701 134.916 106.978 134.192 106.978 133.3Z" fill="url(#paint11_linear_1_19)"/>
<path d="M89.8412 133.3C89.8412 132.406 90.5666 131.682 91.4599 131.682C92.3533 131.682 93.0786 132.406 93.0786 133.3C93.0786 134.192 92.3533 134.916 91.4599 134.916C90.5666 134.916 89.8412 134.192 89.8412 133.3Z" fill="url(#paint12_linear_1_19)"/>
<path d="M72.7055 133.3C72.7055 132.406 73.4294 131.682 74.3241 131.682C75.2174 131.682 75.9414 132.406 75.9414 133.3C75.9414 134.192 75.2174 134.916 74.3241 134.916C73.4294 134.916 72.7055 134.192 72.7055 133.3Z" fill="url(#paint13_linear_1_19)"/>
<path d="M55.5706 133.3C55.5706 132.406 56.2946 131.682 57.188 131.682C58.0826 131.682 58.8066 132.406 58.8066 133.3C58.8066 134.192 58.0826 134.916 57.188 134.916C56.2946 134.916 55.5706 134.192 55.5706 133.3Z" fill="url(#paint14_linear_1_19)"/>
<path d="M38.4331 133.3C38.4331 132.406 39.1584 131.682 40.0517 131.682C40.9451 131.682 41.6704 132.406 41.6704 133.3C41.6704 134.192 40.9451 134.916 40.0517 134.916C39.1584 134.916 38.4331 134.192 38.4331 133.3Z" fill="url(#paint15_linear_1_19)"/>
<path d="M21.2987 133.3C21.2987 132.406 22.0227 131.682 22.9174 131.682C23.8107 131.682 24.5347 132.406 24.5347 133.3C24.5347 134.192 23.8107 134.916 22.9174 134.916C22.0227 134.916 21.2987 134.192 21.2987 133.3Z" fill="url(#paint16_linear_1_19)"/>
<path d="M124.113 114.337C124.113 113.444 124.837 112.719 125.732 112.719C126.625 112.719 127.351 113.444 127.351 114.337C127.351 115.232 126.625 115.956 125.732 115.956C124.837 115.956 124.113 115.232 124.113 114.337Z" fill="url(#paint17_linear_1_19)"/>
<path d="M106.978 114.337C106.978 113.444 107.701 112.719 108.594 112.719C109.489 112.719 110.213 113.444 110.213 114.337C110.213 115.232 109.489 115.956 108.594 115.956C107.701 115.956 106.978 115.232 106.978 114.337Z" fill="url(#paint18_linear_1_19)"/>
<path d="M89.8412 114.337C89.8412 113.444 90.5666 112.719 91.4599 112.719C92.3533 112.719 93.0786 113.444 93.0786 114.337C93.0786 115.232 92.3533 115.956 91.4599 115.956C90.5666 115.956 89.8412 115.232 89.8412 114.337Z" fill="url(#paint19_linear_1_19)"/>
<path d="M72.7055 114.337C72.7055 113.444 73.4294 112.719 74.3241 112.719C75.2174 112.719 75.9414 113.444 75.9414 114.337C75.9414 115.232 75.2174 115.956 74.3241 115.956C73.4294 115.956 72.7055 115.232 72.7055 114.337Z" fill="url(#paint20_linear_1_19)"/>
<path d="M55.5706 114.337C55.5706 113.444 56.2946 112.719 57.188 112.719C58.0826 112.719 58.8066 113.444 58.8066 114.337C58.8066 115.232 58.0826 115.956 57.188 115.956C56.2946 115.956 55.5706 115.232 55.5706 114.337Z" fill="url(#paint21_linear_1_19)"/>
<path d="M38.4331 114.337C38.4331 113.444 39.1584 112.719 40.0517 112.719C40.9451 112.719 41.6704 113.444 41.6704 114.337C41.6704 115.232 40.9451 115.956 40.0517 115.956C39.1584 115.956 38.4331 115.232 38.4331 114.337Z" fill="url(#paint22_linear_1_19)"/>
<path d="M21.2987 114.337C21.2987 113.444 22.0227 112.719 22.9174 112.719C23.8107 112.719 24.5347 113.444 24.5347 114.337C24.5347 115.232 23.8107 115.956 22.9174 115.956C22.0227 115.956 21.2987 115.232 21.2987 114.337Z" fill="url(#paint23_linear_1_19)"/>
<path d="M124.113 95.3765C124.113 94.4818 124.837 93.7578 125.732 93.7578C126.625 93.7578 127.351 94.4818 127.351 95.3765C127.351 96.2698 126.625 96.9951 125.732 96.9951C124.837 96.9951 124.113 96.2698 124.113 95.3765Z" fill="url(#paint24_linear_1_19)"/>
<path d="M106.978 95.3765C106.978 94.4818 107.701 93.7578 108.594 93.7578C109.489 93.7578 110.213 94.4818 110.213 95.3765C110.213 96.2698 109.489 96.9951 108.594 96.9951C107.701 96.9951 106.978 96.2698 106.978 95.3765Z" fill="url(#paint25_linear_1_19)"/>
<path d="M89.8412 95.3765C89.8412 94.4818 90.5666 93.7578 91.4599 93.7578C92.3533 93.7578 93.0786 94.4818 93.0786 95.3765C93.0786 96.2698 92.3533 96.9951 91.4599 96.9951C90.5666 96.9951 89.8412 96.2698 89.8412 95.3765Z" fill="url(#paint26_linear_1_19)"/>
<path d="M72.7055 95.3765C72.7055 94.4818 73.4294 93.7578 74.3241 93.7578C75.2174 93.7578 75.9414 94.4818 75.9414 95.3765C75.9414 96.2698 75.2174 96.9951 74.3241 96.9951C73.4294 96.9951 72.7055 96.2698 72.7055 95.3765Z" fill="url(#paint27_linear_1_19)"/>
<path d="M55.5706 95.3765C55.5706 94.4818 56.2946 93.7578 57.188 93.7578C58.0826 93.7578 58.8066 94.4818 58.8066 95.3765C58.8066 96.2698 58.0826 96.9951 57.188 96.9951C56.2946 96.9951 55.5706 96.2698 55.5706 95.3765Z" fill="url(#paint28_linear_1_19)"/>
<path d="M38.4331 95.3765C38.4331 94.4818 39.1584 93.7578 40.0517 93.7578C40.9451 93.7578 41.6704 94.4818 41.6704 95.3765C41.6704 96.2698 40.9451 96.9951 40.0517 96.9951C39.1584 96.9951 38.4331 96.2698 38.4331 95.3765Z" fill="url(#paint29_linear_1_19)"/>
<path d="M21.2987 95.3765C21.2987 94.4818 22.0227 93.7578 22.9174 93.7578C23.8107 93.7578 24.5347 94.4818 24.5347 95.3765C24.5347 96.2698 23.8107 96.9951 22.9174 96.9951C22.0227 96.9951 21.2987 96.2698 21.2987 95.3765Z" fill="url(#paint30_linear_1_19)"/>
<path d="M124.113 76.4151C124.113 75.5219 124.837 74.7979 125.732 74.7979C126.625 74.7979 127.351 75.5219 127.351 76.4151C127.351 77.3083 126.625 78.0328 125.732 78.0328C124.837 78.0328 124.113 77.3083 124.113 76.4151Z" fill="url(#paint31_linear_1_19)"/>
<path d="M106.978 76.4151C106.978 75.5219 107.701 74.7979 108.594 74.7979C109.489 74.7979 110.213 75.5219 110.213 76.4151C110.213 77.3083 109.489 78.0328 108.594 78.0328C107.701 78.0328 106.978 77.3083 106.978 76.4151Z" fill="url(#paint32_linear_1_19)"/>
<path d="M89.8412 76.4151C89.8412 75.5219 90.5666 74.7979 91.4599 74.7979C92.3533 74.7979 93.0786 75.5219 93.0786 76.4151C93.0786 77.3083 92.3533 78.0328 91.4599 78.0328C90.5666 78.0328 89.8412 77.3083 89.8412 76.4151Z" fill="url(#paint33_linear_1_19)"/>
<path d="M72.7055 76.4151C72.7055 75.5219 73.4294 74.7979 74.3241 74.7979C75.2174 74.7979 75.9414 75.5219 75.9414 76.4151C75.9414 77.3083 75.2174 78.0328 74.3241 78.0328C73.4294 78.0328 72.7055 77.3083 72.7055 76.4151Z" fill="url(#paint34_linear_1_19)"/>
<path d="M55.5706 76.4151C55.5706 75.5219 56.2946 74.7979 57.188 74.7979C58.0826 74.7979 58.8066 75.5219 58.8066 76.4151C58.8066 77.3083 58.0826 78.0328 57.188 78.0328C56.2946 78.0328 55.5706 77.3083 55.5706 76.4151Z" fill="url(#paint35_linear_1_19)"/>
<path d="M38.4331 76.4151C38.4331 75.5219 39.1584 74.7979 40.0517 74.7979C40.9451 74.7979 41.6704 75.5219 41.6704 76.4151C41.6704 77.3083 40.9451 78.0328 40.0517 78.0328C39.1584 78.0328 38.4331 77.3083 38.4331 76.4151Z" fill="url(#paint36_linear_1_19)"/>
<path d="M21.2987 76.4151C21.2987 75.5219 22.0227 74.7979 22.9174 74.7979C23.8107 74.7979 24.5347 75.5219 24.5347 76.4151C24.5347 77.3083 23.8107 78.0328 22.9174 78.0328C22.0227 78.0328 21.2987 77.3083 21.2987 76.4151Z" fill="url(#paint37_linear_1_19)"/>
<path d="M124.113 57.4538C124.113 56.56 124.837 55.835 125.732 55.835C126.625 55.835 127.351 56.56 127.351 57.4538C127.351 58.347 126.625 59.072 125.732 59.072C124.837 59.072 124.113 58.347 124.113 57.4538Z" fill="url(#paint38_linear_1_19)"/>
<path d="M106.978 57.4538C106.978 56.56 107.701 55.835 108.594 55.835C109.489 55.835 110.213 56.56 110.213 57.4538C110.213 58.347 109.489 59.072 108.594 59.072C107.701 59.072 106.978 58.347 106.978 57.4538Z" fill="url(#paint39_linear_1_19)"/>
<path d="M89.8412 57.4538C89.8412 56.56 90.5666 55.835 91.4599 55.835C92.3533 55.835 93.0786 56.56 93.0786 57.4538C93.0786 58.347 92.3533 59.072 91.4599 59.072C90.5666 59.072 89.8412 58.347 89.8412 57.4538Z" fill="url(#paint40_linear_1_19)"/>
<path d="M72.7055 57.4538C72.7055 56.56 73.4294 55.835 74.3241 55.835C75.2174 55.835 75.9414 56.56 75.9414 57.4538C75.9414 58.347 75.2174 59.072 74.3241 59.072C73.4294 59.072 72.7055 58.347 72.7055 57.4538Z" fill="url(#paint41_linear_1_19)"/>
<path d="M55.5706 57.4538C55.5706 56.56 56.2946 55.835 57.188 55.835C58.0826 55.835 58.8066 56.56 58.8066 57.4538C58.8066 58.347 58.0826 59.072 57.188 59.072C56.2946 59.072 55.5706 58.347 55.5706 57.4538Z" fill="url(#paint42_linear_1_19)"/>
<path d="M38.4331 57.4538C38.4331 56.56 39.1584 55.835 40.0517 55.835C40.9451 55.835 41.6704 56.56 41.6704 57.4538C41.6704 58.347 40.9451 59.072 40.0517 59.072C39.1584 59.072 38.4331 58.347 38.4331 57.4538Z" fill="url(#paint43_linear_1_19)"/>
<path d="M21.2987 57.4538C21.2987 56.56 22.0227 55.835 22.9174 55.835C23.8107 55.835 24.5347 56.56 24.5347 57.4538C24.5347 58.347 23.8107 59.072 22.9174 59.072C22.0227 59.072 21.2987 58.347 21.2987 57.4538Z" fill="url(#paint44_linear_1_19)"/>
<path d="M124.113 38.4903C124.113 37.5971 124.837 36.873 125.732 36.873C126.625 36.873 127.351 37.5971 127.351 38.4903C127.351 39.3851 126.625 40.109 125.732 40.109C124.837 40.109 124.113 39.3851 124.113 38.4903Z" fill="url(#paint45_linear_1_19)"/>
<path d="M106.978 38.4903C106.978 37.5971 107.701 36.873 108.594 36.873C109.489 36.873 110.213 37.5971 110.213 38.4903C110.213 39.3851 109.489 40.109 108.594 40.109C107.701 40.109 106.978 39.3851 106.978 38.4903Z" fill="url(#paint46_linear_1_19)"/>
<path d="M89.8412 38.4903C89.8412 37.5971 90.5666 36.873 91.4599 36.873C92.3533 36.873 93.0786 37.5971 93.0786 38.4903C93.0786 39.3851 92.3533 40.109 91.4599 40.109C90.5666 40.109 89.8412 39.3851 89.8412 38.4903Z" fill="url(#paint47_linear_1_19)"/>
<path d="M72.7055 38.4903C72.7055 37.5971 73.4294 36.873 74.3241 36.873C75.2174 36.873 75.9414 37.5971 75.9414 38.4903C75.9414 39.3851 75.2174 40.109 74.3241 40.109C73.4294 40.109 72.7055 39.3851 72.7055 38.4903Z" fill="url(#paint48_linear_1_19)"/>
<path d="M55.5706 38.4903C55.5706 37.5971 56.2946 36.873 57.188 36.873C58.0826 36.873 58.8066 37.5971 58.8066 38.4903C58.8066 39.3851 58.0826 40.109 57.188 40.109C56.2946 40.109 55.5706 39.3851 55.5706 38.4903Z" fill="url(#paint49_linear_1_19)"/>
<path d="M38.4331 38.4903C38.4331 37.5971 39.1584 36.873 40.0517 36.873C40.9451 36.873 41.6704 37.5971 41.6704 38.4903C41.6704 39.3851 40.9451 40.109 40.0517 40.109C39.1584 40.109 38.4331 39.3851 38.4331 38.4903Z" fill="url(#paint50_linear_1_19)"/>
<path d="M21.2987 38.4903C21.2987 37.5971 22.0227 36.873 22.9174 36.873C23.8107 36.873 24.5347 37.5971 24.5347 38.4903C24.5347 39.3851 23.8107 40.109 22.9174 40.109C22.0227 40.109 21.2987 39.3851 21.2987 38.4903Z" fill="url(#paint51_linear_1_19)"/>
<path d="M124.113 19.5292C124.113 18.6376 124.837 17.9121 125.732 17.9121C126.625 17.9121 127.351 18.6376 127.351 19.5292C127.351 20.423 126.625 21.148 125.732 21.148C124.837 21.148 124.113 20.423 124.113 19.5292Z" fill="url(#paint52_linear_1_19)"/>
<path d="M106.978 19.5292C106.978 18.6376 107.701 17.9121 108.594 17.9121C109.489 17.9121 110.213 18.6376 110.213 19.5292C110.213 20.423 109.489 21.148 108.594 21.148C107.701 21.148 106.978 20.423 106.978 19.5292Z" fill="url(#paint53_linear_1_19)"/>
<path d="M89.8412 19.5292C89.8412 18.6376 90.5666 17.9121 91.4599 17.9121C92.3533 17.9121 93.0786 18.6376 93.0786 19.5292C93.0786 20.423 92.3533 21.148 91.4599 21.148C90.5666 21.148 89.8412 20.423 89.8412 19.5292Z" fill="url(#paint54_linear_1_19)"/>
<path d="M72.7055 19.5292C72.7055 18.6376 73.4294 17.9121 74.3241 17.9121C75.2174 17.9121 75.9414 18.6376 75.9414 19.5292C75.9414 20.423 75.2174 21.148 74.3241 21.148C73.4294 21.148 72.7055 20.423 72.7055 19.5292Z" fill="url(#paint55_linear_1_19)"/>
<path d="M55.5706 19.5292C55.5706 18.6376 56.2946 17.9121 57.188 17.9121C58.0826 17.9121 58.8066 18.6376 58.8066 19.5292C58.8066 20.423 58.0826 21.148 57.188 21.148C56.2946 21.148 55.5706 20.423 55.5706 19.5292Z" fill="url(#paint56_linear_1_19)"/>
<path d="M38.4331 19.5292C38.4331 18.6376 39.1584 17.9121 40.0517 17.9121C40.9451 17.9121 41.6704 18.6376 41.6704 19.5292C41.6704 20.423 40.9451 21.148 40.0517 21.148C39.1584 21.148 38.4331 20.423 38.4331 19.5292Z" fill="url(#paint57_linear_1_19)"/>
<path d="M21.2987 19.5292C21.2987 18.6376 22.0227 17.9121 22.9174 17.9121C23.8107 17.9121 24.5347 18.6376 24.5347 19.5292C24.5347 20.423 23.8107 21.148 22.9174 21.148C22.0227 21.148 21.2987 20.423 21.2987 19.5292Z" fill="url(#paint58_linear_1_19)"/>
<path d="M175.453 23.7432H179.103V36.0448H175.453V23.7432Z" fill="url(#paint59_linear_1_19)"/>
<path d="M183.429 28.0684V31.7174H171.127V28.0684H183.429Z" fill="url(#paint60_linear_1_19)"/>
<path d="M165.908 150.087L217.401 98.595L216.459 97.6523L164.965 149.144" fill="url(#paint61_linear_1_19)"/>
<defs>
<linearGradient id="paint0_linear_1_19" x1="33.8572" y1="330.714" x2="33.8572" y2="627.315" gradientUnits="userSpaceOnUse">
<stop stop-color="white"/>
<stop offset="1" stop-color="white" stop-opacity="0"/>
</linearGradient>
<linearGradient id="paint1_linear_1_19" x1="410.883" y1="-55" x2="410.883" y2="106.664" gradientUnits="userSpaceOnUse">
<stop stop-color="white"/>
<stop offset="1" stop-color="white" stop-opacity="0"/>
</linearGradient>
<linearGradient id="paint2_linear_1_19" x1="65.9304" y1="236.883" x2="65.9304" y2="319.791" gradientUnits="userSpaceOnUse">
<stop stop-color="white"/>
<stop offset="1" stop-color="white" stop-opacity="0"/>
</linearGradient>
<linearGradient id="paint3_linear_1_19" x1="125.732" y1="150.642" x2="125.732" y2="153.879" gradientUnits="userSpaceOnUse">
<stop stop-color="white"/>
<stop offset="1" stop-color="white" stop-opacity="0"/>
</linearGradient>
<linearGradient id="paint4_linear_1_19" x1="108.596" y1="150.642" x2="108.596" y2="153.879" gradientUnits="userSpaceOnUse">
<stop stop-color="white"/>
<stop offset="1" stop-color="white" stop-opacity="0"/>
</linearGradient>
<linearGradient id="paint5_linear_1_19" x1="91.4599" y1="150.642" x2="91.4599" y2="153.879" gradientUnits="userSpaceOnUse">
<stop stop-color="white"/>
<stop offset="1" stop-color="white" stop-opacity="0"/>
</linearGradient>
<linearGradient id="paint6_linear_1_19" x1="74.3234" y1="150.642" x2="74.3234" y2="153.879" gradientUnits="userSpaceOnUse">
<stop stop-color="white"/>
<stop offset="1" stop-color="white" stop-opacity="0"/>
</linearGradient>
<linearGradient id="paint7_linear_1_19" x1="57.1886" y1="150.642" x2="57.1886" y2="153.879" gradientUnits="userSpaceOnUse">
<stop stop-color="white"/>
<stop offset="1" stop-color="white" stop-opacity="0"/>
</linearGradient>
<linearGradient id="paint8_linear_1_19" x1="40.0518" y1="150.642" x2="40.0518" y2="153.879" gradientUnits="userSpaceOnUse">
<stop stop-color="white"/>
<stop offset="1" stop-color="white" stop-opacity="0"/>
</linearGradient>
<linearGradient id="paint9_linear_1_19" x1="22.9167" y1="150.642" x2="22.9167" y2="153.879" gradientUnits="userSpaceOnUse">
<stop stop-color="white"/>
<stop offset="1" stop-color="white" stop-opacity="0"/>
</linearGradient>
<linearGradient id="paint10_linear_1_19" x1="125.732" y1="131.682" x2="125.732" y2="134.916" gradientUnits="userSpaceOnUse">
<stop stop-color="white"/>
<stop offset="1" stop-color="white" stop-opacity="0"/>
</linearGradient>
<linearGradient id="paint11_linear_1_19" x1="108.596" y1="131.682" x2="108.596" y2="134.916" gradientUnits="userSpaceOnUse">
<stop stop-color="white"/>
<stop offset="1" stop-color="white" stop-opacity="0"/>
</linearGradient>
<linearGradient id="paint12_linear_1_19" x1="91.4599" y1="131.682" x2="91.4599" y2="134.916" gradientUnits="userSpaceOnUse">
<stop stop-color="white"/>
<stop offset="1" stop-color="white" stop-opacity="0"/>
</linearGradient>
<linearGradient id="paint13_linear_1_19" x1="74.3234" y1="131.682" x2="74.3234" y2="134.916" gradientUnits="userSpaceOnUse">
<stop stop-color="white"/>
<stop offset="1" stop-color="white" stop-opacity="0"/>
</linearGradient>
<linearGradient id="paint14_linear_1_19" x1="57.1886" y1="131.682" x2="57.1886" y2="134.916" gradientUnits="userSpaceOnUse">
<stop stop-color="white"/>
<stop offset="1" stop-color="white" stop-opacity="0"/>
</linearGradient>
<linearGradient id="paint15_linear_1_19" x1="40.0518" y1="131.682" x2="40.0518" y2="134.916" gradientUnits="userSpaceOnUse">
<stop stop-color="white"/>
<stop offset="1" stop-color="white" stop-opacity="0"/>
</linearGradient>
<linearGradient id="paint16_linear_1_19" x1="22.9167" y1="131.682" x2="22.9167" y2="134.916" gradientUnits="userSpaceOnUse">
<stop stop-color="white"/>
<stop offset="1" stop-color="white" stop-opacity="0"/>
</linearGradient>
<linearGradient id="paint17_linear_1_19" x1="125.732" y1="112.719" x2="125.732" y2="115.956" gradientUnits="userSpaceOnUse">
<stop stop-color="white"/>
<stop offset="1" stop-color="white" stop-opacity="0"/>
</linearGradient>
<linearGradient id="paint18_linear_1_19" x1="108.596" y1="112.719" x2="108.596" y2="115.956" gradientUnits="userSpaceOnUse">
<stop stop-color="white"/>
<stop offset="1" stop-color="white" stop-opacity="0"/>
</linearGradient>
<linearGradient id="paint19_linear_1_19" x1="91.4599" y1="112.719" x2="91.4599" y2="115.956" gradientUnits="userSpaceOnUse">
<stop stop-color="white"/>
<stop offset="1" stop-color="white" stop-opacity="0"/>
</linearGradient>
<linearGradient id="paint20_linear_1_19" x1="74.3234" y1="112.719" x2="74.3234" y2="115.956" gradientUnits="userSpaceOnUse">
<stop stop-color="white"/>
<stop offset="1" stop-color="white" stop-opacity="0"/>
</linearGradient>
<linearGradient id="paint21_linear_1_19" x1="57.1886" y1="112.719" x2="57.1886" y2="115.956" gradientUnits="userSpaceOnUse">
<stop stop-color="white"/>
<stop offset="1" stop-color="white" stop-opacity="0"/>
</linearGradient>
<linearGradient id="paint22_linear_1_19" x1="40.0518" y1="112.719" x2="40.0518" y2="115.956" gradientUnits="userSpaceOnUse">
<stop stop-color="white"/>
<stop offset="1" stop-color="white" stop-opacity="0"/>
</linearGradient>
<linearGradient id="paint23_linear_1_19" x1="22.9167" y1="112.719" x2="22.9167" y2="115.956" gradientUnits="userSpaceOnUse">
<stop stop-color="white"/>
<stop offset="1" stop-color="white" stop-opacity="0"/>
</linearGradient>
<linearGradient id="paint24_linear_1_19" x1="125.732" y1="93.7578" x2="125.732" y2="96.9951" gradientUnits="userSpaceOnUse">
<stop stop-color="white"/>
<stop offset="1" stop-color="white" stop-opacity="0"/>
</linearGradient>
<linearGradient id="paint25_linear_1_19" x1="108.596" y1="93.7578" x2="108.596" y2="96.9951" gradientUnits="userSpaceOnUse">
<stop stop-color="white"/>
<stop offset="1" stop-color="white" stop-opacity="0"/>
</linearGradient>
<linearGradient id="paint26_linear_1_19" x1="91.4599" y1="93.7578" x2="91.4599" y2="96.9951" gradientUnits="userSpaceOnUse">
<stop stop-color="white"/>
<stop offset="1" stop-color="white" stop-opacity="0"/>
</linearGradient>
<linearGradient id="paint27_linear_1_19" x1="74.3234" y1="93.7578" x2="74.3234" y2="96.9951" gradientUnits="userSpaceOnUse">
<stop stop-color="white"/>
<stop offset="1" stop-color="white" stop-opacity="0"/>
</linearGradient>
<linearGradient id="paint28_linear_1_19" x1="57.1886" y1="93.7578" x2="57.1886" y2="96.9951" gradientUnits="userSpaceOnUse">
<stop stop-color="white"/>
<stop offset="1" stop-color="white" stop-opacity="0"/>
</linearGradient>
<linearGradient id="paint29_linear_1_19" x1="40.0518" y1="93.7578" x2="40.0518" y2="96.9951" gradientUnits="userSpaceOnUse">
<stop stop-color="white"/>
<stop offset="1" stop-color="white" stop-opacity="0"/>
</linearGradient>
<linearGradient id="paint30_linear_1_19" x1="22.9167" y1="93.7578" x2="22.9167" y2="96.9951" gradientUnits="userSpaceOnUse">
<stop stop-color="white"/>
<stop offset="1" stop-color="white" stop-opacity="0"/>
</linearGradient>
<linearGradient id="paint31_linear_1_19" x1="125.732" y1="74.7979" x2="125.732" y2="78.0328" gradientUnits="userSpaceOnUse">
<stop stop-color="white"/>
<stop offset="1" stop-color="white" stop-opacity="0"/>
</linearGradient>
<linearGradient id="paint32_linear_1_19" x1="108.596" y1="74.7979" x2="108.596" y2="78.0328" gradientUnits="userSpaceOnUse">
<stop stop-color="white"/>
<stop offset="1" stop-color="white" stop-opacity="0"/>
</linearGradient>
<linearGradient id="paint33_linear_1_19" x1="91.4599" y1="74.7979" x2="91.4599" y2="78.0328" gradientUnits="userSpaceOnUse">
<stop stop-color="white"/>
<stop offset="1" stop-color="white" stop-opacity="0"/>
</linearGradient>
<linearGradient id="paint34_linear_1_19" x1="74.3234" y1="74.7979" x2="74.3234" y2="78.0328" gradientUnits="userSpaceOnUse">
<stop stop-color="white"/>
<stop offset="1" stop-color="white" stop-opacity="0"/>
</linearGradient>
<linearGradient id="paint35_linear_1_19" x1="57.1886" y1="74.7979" x2="57.1886" y2="78.0328" gradientUnits="userSpaceOnUse">
<stop stop-color="white"/>
<stop offset="1" stop-color="white" stop-opacity="0"/>
</linearGradient>
<linearGradient id="paint36_linear_1_19" x1="40.0518" y1="74.7979" x2="40.0518" y2="78.0328" gradientUnits="userSpaceOnUse">
<stop stop-color="white"/>
<stop offset="1" stop-color="white" stop-opacity="0"/>
</linearGradient>
<linearGradient id="paint37_linear_1_19" x1="22.9167" y1="74.7979" x2="22.9167" y2="78.0328" gradientUnits="userSpaceOnUse">
<stop stop-color="white"/>
<stop offset="1" stop-color="white" stop-opacity="0"/>
</linearGradient>
<linearGradient id="paint38_linear_1_19" x1="125.732" y1="55.835" x2="125.732" y2="59.072" gradientUnits="userSpaceOnUse">
<stop stop-color="white"/>
<stop offset="1" stop-color="white" stop-opacity="0"/>
</linearGradient>
<linearGradient id="paint39_linear_1_19" x1="108.596" y1="55.835" x2="108.596" y2="59.072" gradientUnits="userSpaceOnUse">
<stop stop-color="white"/>
<stop offset="1" stop-color="white" stop-opacity="0"/>
</linearGradient>
<linearGradient id="paint40_linear_1_19" x1="91.4599" y1="55.835" x2="91.4599" y2="59.072" gradientUnits="userSpaceOnUse">
<stop stop-color="white"/>
<stop offset="1" stop-color="white" stop-opacity="0"/>
</linearGradient>
<linearGradient id="paint41_linear_1_19" x1="74.3234" y1="55.835" x2="74.3234" y2="59.072" gradientUnits="userSpaceOnUse">
<stop stop-color="white"/>
<stop offset="1" stop-color="white" stop-opacity="0"/>
</linearGradient>
<linearGradient id="paint42_linear_1_19" x1="57.1886" y1="55.835" x2="57.1886" y2="59.072" gradientUnits="userSpaceOnUse">
<stop stop-color="white"/>
<stop offset="1" stop-color="white" stop-opacity="0"/>
</linearGradient>
<linearGradient id="paint43_linear_1_19" x1="40.0518" y1="55.835" x2="40.0518" y2="59.072" gradientUnits="userSpaceOnUse">
<stop stop-color="white"/>
<stop offset="1" stop-color="white" stop-opacity="0"/>
</linearGradient>
<linearGradient id="paint44_linear_1_19" x1="22.9167" y1="55.835" x2="22.9167" y2="59.072" gradientUnits="userSpaceOnUse">
<stop stop-color="white"/>
<stop offset="1" stop-color="white" stop-opacity="0"/>
</linearGradient>
<linearGradient id="paint45_linear_1_19" x1="125.732" y1="36.873" x2="125.732" y2="40.109" gradientUnits="userSpaceOnUse">
<stop stop-color="white"/>
<stop offset="1" stop-color="white" stop-opacity="0"/>
</linearGradient>
<linearGradient id="paint46_linear_1_19" x1="108.596" y1="36.873" x2="108.596" y2="40.109" gradientUnits="userSpaceOnUse">
<stop stop-color="white"/>
<stop offset="1" stop-color="white" stop-opacity="0"/>
</linearGradient>
<linearGradient id="paint47_linear_1_19" x1="91.4599" y1="36.873" x2="91.4599" y2="40.109" gradientUnits="userSpaceOnUse">
<stop stop-color="white"/>
<stop offset="1" stop-color="white" stop-opacity="0"/>
</linearGradient>
<linearGradient id="paint48_linear_1_19" x1="74.3234" y1="36.873" x2="74.3234" y2="40.109" gradientUnits="userSpaceOnUse">
<stop stop-color="white"/>
<stop offset="1" stop-color="white" stop-opacity="0"/>
</linearGradient>
<linearGradient id="paint49_linear_1_19" x1="57.1886" y1="36.873" x2="57.1886" y2="40.109" gradientUnits="userSpaceOnUse">
<stop stop-color="white"/>
<stop offset="1" stop-color="white" stop-opacity="0"/>
</linearGradient>
<linearGradient id="paint50_linear_1_19" x1="40.0518" y1="36.873" x2="40.0518" y2="40.109" gradientUnits="userSpaceOnUse">
<stop stop-color="white"/>
<stop offset="1" stop-color="white" stop-opacity="0"/>
</linearGradient>
<linearGradient id="paint51_linear_1_19" x1="22.9167" y1="36.873" x2="22.9167" y2="40.109" gradientUnits="userSpaceOnUse">
<stop stop-color="white"/>
<stop offset="1" stop-color="white" stop-opacity="0"/>
</linearGradient>
<linearGradient id="paint52_linear_1_19" x1="125.732" y1="17.9121" x2="125.732" y2="21.148" gradientUnits="userSpaceOnUse">
<stop stop-color="white"/>
<stop offset="1" stop-color="white" stop-opacity="0"/>
</linearGradient>
<linearGradient id="paint53_linear_1_19" x1="108.596" y1="17.9121" x2="108.596" y2="21.148" gradientUnits="userSpaceOnUse">
<stop stop-color="white"/>
<stop offset="1" stop-color="white" stop-opacity="0"/>
</linearGradient>
<linearGradient id="paint54_linear_1_19" x1="91.4599" y1="17.9121" x2="91.4599" y2="21.148" gradientUnits="userSpaceOnUse">
<stop stop-color="white"/>
<stop offset="1" stop-color="white" stop-opacity="0"/>
</linearGradient>
<linearGradient id="paint55_linear_1_19" x1="74.3234" y1="17.9121" x2="74.3234" y2="21.148" gradientUnits="userSpaceOnUse">
<stop stop-color="white"/>
<stop offset="1" stop-color="white" stop-opacity="0"/>
</linearGradient>
<linearGradient id="paint56_linear_1_19" x1="57.1886" y1="17.9121" x2="57.1886" y2="21.148" gradientUnits="userSpaceOnUse">
<stop stop-color="white"/>
<stop offset="1" stop-color="white" stop-opacity="0"/>
</linearGradient>
<linearGradient id="paint57_linear_1_19" x1="40.0518" y1="17.9121" x2="40.0518" y2="21.148" gradientUnits="userSpaceOnUse">
<stop stop-color="white"/>
<stop offset="1" stop-color="white" stop-opacity="0"/>
</linearGradient>
<linearGradient id="paint58_linear_1_19" x1="22.9167" y1="17.9121" x2="22.9167" y2="21.148" gradientUnits="userSpaceOnUse">
<stop stop-color="white"/>
<stop offset="1" stop-color="white" stop-opacity="0"/>
</linearGradient>
<linearGradient id="paint59_linear_1_19" x1="177.278" y1="23.7432" x2="177.278" y2="36.0448" gradientUnits="userSpaceOnUse">
<stop stop-color="white"/>
<stop offset="1" stop-color="white" stop-opacity="0"/>
</linearGradient>
<linearGradient id="paint60_linear_1_19" x1="177.278" y1="28.0684" x2="177.278" y2="31.7174" gradientUnits="userSpaceOnUse">
<stop stop-color="white"/>
<stop offset="1" stop-color="white" stop-opacity="0"/>
</linearGradient>
<linearGradient id="paint61_linear_1_19" x1="191.183" y1="97.6523" x2="191.183" y2="150.087" gradientUnits="userSpaceOnUse">
<stop stop-color="white"/>
<stop offset="1" stop-color="white" stop-opacity="0"/>
</linearGradient>
</defs>
</svg>
