<svg width="1280" height="666" viewBox="0 0 1280 666" fill="none" xmlns="http://www.w3.org/2000/svg">
<mask id="mask0_1_151" style="mask-type:alpha" maskUnits="userSpaceOnUse" x="0" y="0" width="1280" height="666">
<rect width="1280" height="666" rx="20" fill="#062941"/>
</mask>
<g mask="url(#mask0_1_151)">
<g opacity="0.2">
<path d="M1093.59 627.315H1092.24C1098.48 550.958 1131.2 480.005 1185.98 425.223C1243.61 367.587 1319.15 334.362 1400.05 330.714V332.057C1238.08 339.479 1106.91 466.925 1093.59 627.315Z" fill="url(#paint0_linear_1_151)"/>
<path d="M669.365 -55C689.647 36.6042 771.501 105.331 869.117 105.331C966.736 105.331 1048.59 36.6042 1068.87 -55H1070.23C1049.93 37.3468 967.472 106.664 869.117 106.664C770.763 106.664 688.305 37.3468 668 -55H669.365Z" fill="url(#paint1_linear_1_151)"/>
<path d="M1254.86 278.337H1254.19C1254.19 267.256 1249.7 257.231 1242.44 249.968C1235.18 242.705 1225.15 238.216 1214.07 238.216C1202.99 238.216 1192.96 242.705 1185.7 249.968C1178.44 257.231 1173.95 267.256 1173.95 278.337C1173.95 289.417 1178.44 299.444 1185.7 306.707C1192.96 313.968 1202.99 318.457 1214.07 318.457C1225.15 318.456 1235.18 313.968 1242.44 306.707C1249.7 299.444 1254.19 289.417 1254.19 278.337H1254.86H1255.52C1255.52 301.231 1236.96 319.789 1214.07 319.791C1191.18 319.789 1172.62 301.231 1172.62 278.337C1172.62 255.443 1191.18 236.883 1214.07 236.883C1236.96 236.883 1255.52 255.443 1255.52 278.337H1254.86Z" fill="url(#paint2_linear_1_151)"/>
<path d="M1155.89 152.26C1155.89 151.367 1155.16 150.642 1154.27 150.642C1153.37 150.642 1152.65 151.367 1152.65 152.26C1152.65 153.154 1153.37 153.879 1154.27 153.879C1155.16 153.879 1155.89 153.154 1155.89 152.26Z" fill="url(#paint3_linear_1_151)"/>
<path d="M1173.02 152.26C1173.02 151.367 1172.3 150.642 1171.41 150.642C1170.51 150.642 1169.79 151.367 1169.79 152.26C1169.79 153.154 1170.51 153.879 1171.41 153.879C1172.3 153.879 1173.02 153.154 1173.02 152.26Z" fill="url(#paint4_linear_1_151)"/>
<path d="M1190.16 152.26C1190.16 151.367 1189.43 150.642 1188.54 150.642C1187.65 150.642 1186.92 151.367 1186.92 152.26C1186.92 153.154 1187.65 153.879 1188.54 153.879C1189.43 153.879 1190.16 153.154 1190.16 152.26Z" fill="url(#paint5_linear_1_151)"/>
<path d="M1207.29 152.26C1207.29 151.367 1206.57 150.642 1205.68 150.642C1204.78 150.642 1204.06 151.367 1204.06 152.26C1204.06 153.154 1204.78 153.879 1205.68 153.879C1206.57 153.879 1207.29 153.154 1207.29 152.26Z" fill="url(#paint6_linear_1_151)"/>
<path d="M1224.43 152.26C1224.43 151.367 1223.71 150.642 1222.81 150.642C1221.92 150.642 1221.19 151.367 1221.19 152.26C1221.19 153.154 1221.92 153.879 1222.81 153.879C1223.71 153.879 1224.43 153.154 1224.43 152.26Z" fill="url(#paint7_linear_1_151)"/>
<path d="M1241.57 152.26C1241.57 151.367 1240.84 150.642 1239.95 150.642C1239.05 150.642 1238.33 151.367 1238.33 152.26C1238.33 153.154 1239.05 153.879 1239.95 153.879C1240.84 153.879 1241.57 153.154 1241.57 152.26Z" fill="url(#paint8_linear_1_151)"/>
<path d="M1258.7 152.26C1258.7 151.367 1257.98 150.642 1257.08 150.642C1256.19 150.642 1255.47 151.367 1255.47 152.26C1255.47 153.154 1256.19 153.879 1257.08 153.879C1257.98 153.879 1258.7 153.154 1258.7 152.26Z" fill="url(#paint9_linear_1_151)"/>
<path d="M1155.89 133.3C1155.89 132.406 1155.16 131.682 1154.27 131.682C1153.37 131.682 1152.65 132.406 1152.65 133.3C1152.65 134.192 1153.37 134.916 1154.27 134.916C1155.16 134.916 1155.89 134.192 1155.89 133.3Z" fill="url(#paint10_linear_1_151)"/>
<path d="M1173.02 133.3C1173.02 132.406 1172.3 131.682 1171.41 131.682C1170.51 131.682 1169.79 132.406 1169.79 133.3C1169.79 134.192 1170.51 134.916 1171.41 134.916C1172.3 134.916 1173.02 134.192 1173.02 133.3Z" fill="url(#paint11_linear_1_151)"/>
<path d="M1190.16 133.3C1190.16 132.406 1189.43 131.682 1188.54 131.682C1187.65 131.682 1186.92 132.406 1186.92 133.3C1186.92 134.192 1187.65 134.916 1188.54 134.916C1189.43 134.916 1190.16 134.192 1190.16 133.3Z" fill="url(#paint12_linear_1_151)"/>
<path d="M1207.29 133.3C1207.29 132.406 1206.57 131.682 1205.68 131.682C1204.78 131.682 1204.06 132.406 1204.06 133.3C1204.06 134.192 1204.78 134.916 1205.68 134.916C1206.57 134.916 1207.29 134.192 1207.29 133.3Z" fill="url(#paint13_linear_1_151)"/>
<path d="M1224.43 133.3C1224.43 132.406 1223.71 131.682 1222.81 131.682C1221.92 131.682 1221.19 132.406 1221.19 133.3C1221.19 134.192 1221.92 134.916 1222.81 134.916C1223.71 134.916 1224.43 134.192 1224.43 133.3Z" fill="url(#paint14_linear_1_151)"/>
<path d="M1241.57 133.3C1241.57 132.406 1240.84 131.682 1239.95 131.682C1239.05 131.682 1238.33 132.406 1238.33 133.3C1238.33 134.192 1239.05 134.916 1239.95 134.916C1240.84 134.916 1241.57 134.192 1241.57 133.3Z" fill="url(#paint15_linear_1_151)"/>
<path d="M1258.7 133.3C1258.7 132.406 1257.98 131.682 1257.08 131.682C1256.19 131.682 1255.47 132.406 1255.47 133.3C1255.47 134.192 1256.19 134.916 1257.08 134.916C1257.98 134.916 1258.7 134.192 1258.7 133.3Z" fill="url(#paint16_linear_1_151)"/>
<path d="M1155.89 114.337C1155.89 113.444 1155.16 112.719 1154.27 112.719C1153.37 112.719 1152.65 113.444 1152.65 114.337C1152.65 115.232 1153.37 115.956 1154.27 115.956C1155.16 115.956 1155.89 115.232 1155.89 114.337Z" fill="url(#paint17_linear_1_151)"/>
<path d="M1173.02 114.337C1173.02 113.444 1172.3 112.719 1171.41 112.719C1170.51 112.719 1169.79 113.444 1169.79 114.337C1169.79 115.232 1170.51 115.956 1171.41 115.956C1172.3 115.956 1173.02 115.232 1173.02 114.337Z" fill="url(#paint18_linear_1_151)"/>
<path d="M1190.16 114.337C1190.16 113.444 1189.43 112.719 1188.54 112.719C1187.65 112.719 1186.92 113.444 1186.92 114.337C1186.92 115.232 1187.65 115.956 1188.54 115.956C1189.43 115.956 1190.16 115.232 1190.16 114.337Z" fill="url(#paint19_linear_1_151)"/>
<path d="M1207.29 114.337C1207.29 113.444 1206.57 112.719 1205.68 112.719C1204.78 112.719 1204.06 113.444 1204.06 114.337C1204.06 115.232 1204.78 115.956 1205.68 115.956C1206.57 115.956 1207.29 115.232 1207.29 114.337Z" fill="url(#paint20_linear_1_151)"/>
<path d="M1224.43 114.337C1224.43 113.444 1223.71 112.719 1222.81 112.719C1221.92 112.719 1221.19 113.444 1221.19 114.337C1221.19 115.232 1221.92 115.956 1222.81 115.956C1223.71 115.956 1224.43 115.232 1224.43 114.337Z" fill="url(#paint21_linear_1_151)"/>
<path d="M1241.57 114.337C1241.57 113.444 1240.84 112.719 1239.95 112.719C1239.05 112.719 1238.33 113.444 1238.33 114.337C1238.33 115.232 1239.05 115.956 1239.95 115.956C1240.84 115.956 1241.57 115.232 1241.57 114.337Z" fill="url(#paint22_linear_1_151)"/>
<path d="M1258.7 114.337C1258.7 113.444 1257.98 112.719 1257.08 112.719C1256.19 112.719 1255.47 113.444 1255.47 114.337C1255.47 115.232 1256.19 115.956 1257.08 115.956C1257.98 115.956 1258.7 115.232 1258.7 114.337Z" fill="url(#paint23_linear_1_151)"/>
<path d="M1155.89 95.3765C1155.89 94.4818 1155.16 93.7578 1154.27 93.7578C1153.37 93.7578 1152.65 94.4818 1152.65 95.3765C1152.65 96.2698 1153.37 96.9951 1154.27 96.9951C1155.16 96.9951 1155.89 96.2698 1155.89 95.3765Z" fill="url(#paint24_linear_1_151)"/>
<path d="M1173.02 95.3765C1173.02 94.4818 1172.3 93.7578 1171.41 93.7578C1170.51 93.7578 1169.79 94.4818 1169.79 95.3765C1169.79 96.2698 1170.51 96.9951 1171.41 96.9951C1172.3 96.9951 1173.02 96.2698 1173.02 95.3765Z" fill="url(#paint25_linear_1_151)"/>
<path d="M1190.16 95.3765C1190.16 94.4818 1189.43 93.7578 1188.54 93.7578C1187.65 93.7578 1186.92 94.4818 1186.92 95.3765C1186.92 96.2698 1187.65 96.9951 1188.54 96.9951C1189.43 96.9951 1190.16 96.2698 1190.16 95.3765Z" fill="url(#paint26_linear_1_151)"/>
<path d="M1207.29 95.3765C1207.29 94.4818 1206.57 93.7578 1205.68 93.7578C1204.78 93.7578 1204.06 94.4818 1204.06 95.3765C1204.06 96.2698 1204.78 96.9951 1205.68 96.9951C1206.57 96.9951 1207.29 96.2698 1207.29 95.3765Z" fill="url(#paint27_linear_1_151)"/>
<path d="M1224.43 95.3765C1224.43 94.4818 1223.71 93.7578 1222.81 93.7578C1221.92 93.7578 1221.19 94.4818 1221.19 95.3765C1221.19 96.2698 1221.92 96.9951 1222.81 96.9951C1223.71 96.9951 1224.43 96.2698 1224.43 95.3765Z" fill="url(#paint28_linear_1_151)"/>
<path d="M1241.57 95.3765C1241.57 94.4818 1240.84 93.7578 1239.95 93.7578C1239.05 93.7578 1238.33 94.4818 1238.33 95.3765C1238.33 96.2698 1239.05 96.9951 1239.95 96.9951C1240.84 96.9951 1241.57 96.2698 1241.57 95.3765Z" fill="url(#paint29_linear_1_151)"/>
<path d="M1258.7 95.3765C1258.7 94.4818 1257.98 93.7578 1257.08 93.7578C1256.19 93.7578 1255.47 94.4818 1255.47 95.3765C1255.47 96.2698 1256.19 96.9951 1257.08 96.9951C1257.98 96.9951 1258.7 96.2698 1258.7 95.3765Z" fill="url(#paint30_linear_1_151)"/>
<path d="M1155.89 76.4151C1155.89 75.5219 1155.16 74.7979 1154.27 74.7979C1153.37 74.7979 1152.65 75.5219 1152.65 76.4151C1152.65 77.3083 1153.37 78.0328 1154.27 78.0328C1155.16 78.0328 1155.89 77.3083 1155.89 76.4151Z" fill="url(#paint31_linear_1_151)"/>
<path d="M1173.02 76.4151C1173.02 75.5219 1172.3 74.7979 1171.41 74.7979C1170.51 74.7979 1169.79 75.5219 1169.79 76.4151C1169.79 77.3083 1170.51 78.0328 1171.41 78.0328C1172.3 78.0328 1173.02 77.3083 1173.02 76.4151Z" fill="url(#paint32_linear_1_151)"/>
<path d="M1190.16 76.4151C1190.16 75.5219 1189.43 74.7979 1188.54 74.7979C1187.65 74.7979 1186.92 75.5219 1186.92 76.4151C1186.92 77.3083 1187.65 78.0328 1188.54 78.0328C1189.43 78.0328 1190.16 77.3083 1190.16 76.4151Z" fill="url(#paint33_linear_1_151)"/>
<path d="M1207.29 76.4151C1207.29 75.5219 1206.57 74.7979 1205.68 74.7979C1204.78 74.7979 1204.06 75.5219 1204.06 76.4151C1204.06 77.3083 1204.78 78.0328 1205.68 78.0328C1206.57 78.0328 1207.29 77.3083 1207.29 76.4151Z" fill="url(#paint34_linear_1_151)"/>
<path d="M1224.43 76.4151C1224.43 75.5219 1223.71 74.7979 1222.81 74.7979C1221.92 74.7979 1221.19 75.5219 1221.19 76.4151C1221.19 77.3083 1221.92 78.0328 1222.81 78.0328C1223.71 78.0328 1224.43 77.3083 1224.43 76.4151Z" fill="url(#paint35_linear_1_151)"/>
<path d="M1241.57 76.4151C1241.57 75.5219 1240.84 74.7979 1239.95 74.7979C1239.05 74.7979 1238.33 75.5219 1238.33 76.4151C1238.33 77.3083 1239.05 78.0328 1239.95 78.0328C1240.84 78.0328 1241.57 77.3083 1241.57 76.4151Z" fill="url(#paint36_linear_1_151)"/>
<path d="M1258.7 76.4151C1258.7 75.5219 1257.98 74.7979 1257.08 74.7979C1256.19 74.7979 1255.47 75.5219 1255.47 76.4151C1255.47 77.3083 1256.19 78.0328 1257.08 78.0328C1257.98 78.0328 1258.7 77.3083 1258.7 76.4151Z" fill="url(#paint37_linear_1_151)"/>
<path d="M1155.89 57.4538C1155.89 56.56 1155.16 55.835 1154.27 55.835C1153.37 55.835 1152.65 56.56 1152.65 57.4538C1152.65 58.347 1153.37 59.072 1154.27 59.072C1155.16 59.072 1155.89 58.347 1155.89 57.4538" fill="url(#paint38_linear_1_151)"/>
<path d="M1173.02 57.4538C1173.02 56.56 1172.3 55.835 1171.41 55.835C1170.51 55.835 1169.79 56.56 1169.79 57.4538C1169.79 58.347 1170.51 59.072 1171.41 59.072C1172.3 59.072 1173.02 58.347 1173.02 57.4538" fill="url(#paint39_linear_1_151)"/>
<path d="M1190.16 57.4538C1190.16 56.56 1189.43 55.835 1188.54 55.835C1187.65 55.835 1186.92 56.56 1186.92 57.4538C1186.92 58.347 1187.65 59.072 1188.54 59.072C1189.43 59.072 1190.16 58.347 1190.16 57.4538" fill="url(#paint40_linear_1_151)"/>
<path d="M1207.29 57.4538C1207.29 56.56 1206.57 55.835 1205.68 55.835C1204.78 55.835 1204.06 56.56 1204.06 57.4538C1204.06 58.347 1204.78 59.072 1205.68 59.072C1206.57 59.072 1207.29 58.347 1207.29 57.4538" fill="url(#paint41_linear_1_151)"/>
<path d="M1224.43 57.4538C1224.43 56.56 1223.71 55.835 1222.81 55.835C1221.92 55.835 1221.19 56.56 1221.19 57.4538C1221.19 58.347 1221.92 59.072 1222.81 59.072C1223.71 59.072 1224.43 58.347 1224.43 57.4538" fill="url(#paint42_linear_1_151)"/>
<path d="M1241.57 57.4538C1241.57 56.56 1240.84 55.835 1239.95 55.835C1239.05 55.835 1238.33 56.56 1238.33 57.4538C1238.33 58.347 1239.05 59.072 1239.95 59.072C1240.84 59.072 1241.57 58.347 1241.57 57.4538" fill="url(#paint43_linear_1_151)"/>
<path d="M1258.7 57.4538C1258.7 56.56 1257.98 55.835 1257.08 55.835C1256.19 55.835 1255.47 56.56 1255.47 57.4538C1255.47 58.347 1256.19 59.072 1257.08 59.072C1257.98 59.072 1258.7 58.347 1258.7 57.4538" fill="url(#paint44_linear_1_151)"/>
<path d="M1155.89 38.4903C1155.89 37.5971 1155.16 36.873 1154.27 36.873C1153.37 36.873 1152.65 37.5971 1152.65 38.4903C1152.65 39.3851 1153.37 40.109 1154.27 40.109C1155.16 40.109 1155.89 39.3851 1155.89 38.4903Z" fill="url(#paint45_linear_1_151)"/>
<path d="M1173.02 38.4903C1173.02 37.5971 1172.3 36.873 1171.41 36.873C1170.51 36.873 1169.79 37.5971 1169.79 38.4903C1169.79 39.3851 1170.51 40.109 1171.41 40.109C1172.3 40.109 1173.02 39.3851 1173.02 38.4903Z" fill="url(#paint46_linear_1_151)"/>
<path d="M1190.16 38.4903C1190.16 37.5971 1189.43 36.873 1188.54 36.873C1187.65 36.873 1186.92 37.5971 1186.92 38.4903C1186.92 39.3851 1187.65 40.109 1188.54 40.109C1189.43 40.109 1190.16 39.3851 1190.16 38.4903Z" fill="url(#paint47_linear_1_151)"/>
<path d="M1207.29 38.4903C1207.29 37.5971 1206.57 36.873 1205.68 36.873C1204.78 36.873 1204.06 37.5971 1204.06 38.4903C1204.06 39.3851 1204.78 40.109 1205.68 40.109C1206.57 40.109 1207.29 39.3851 1207.29 38.4903Z" fill="url(#paint48_linear_1_151)"/>
<path d="M1224.43 38.4903C1224.43 37.5971 1223.71 36.873 1222.81 36.873C1221.92 36.873 1221.19 37.5971 1221.19 38.4903C1221.19 39.3851 1221.92 40.109 1222.81 40.109C1223.71 40.109 1224.43 39.3851 1224.43 38.4903Z" fill="url(#paint49_linear_1_151)"/>
<path d="M1241.57 38.4903C1241.57 37.5971 1240.84 36.873 1239.95 36.873C1239.05 36.873 1238.33 37.5971 1238.33 38.4903C1238.33 39.3851 1239.05 40.109 1239.95 40.109C1240.84 40.109 1241.57 39.3851 1241.57 38.4903Z" fill="url(#paint50_linear_1_151)"/>
<path d="M1258.7 38.4903C1258.7 37.5971 1257.98 36.873 1257.08 36.873C1256.19 36.873 1255.47 37.5971 1255.47 38.4903C1255.47 39.3851 1256.19 40.109 1257.08 40.109C1257.98 40.109 1258.7 39.3851 1258.7 38.4903Z" fill="url(#paint51_linear_1_151)"/>
<path d="M1155.89 19.5292C1155.89 18.6376 1155.16 17.9121 1154.27 17.9121C1153.37 17.9121 1152.65 18.6376 1152.65 19.5292C1152.65 20.423 1153.37 21.148 1154.27 21.148C1155.16 21.148 1155.89 20.423 1155.89 19.5292Z" fill="url(#paint52_linear_1_151)"/>
<path d="M1173.02 19.5292C1173.02 18.6376 1172.3 17.9121 1171.41 17.9121C1170.51 17.9121 1169.79 18.6376 1169.79 19.5292C1169.79 20.423 1170.51 21.148 1171.41 21.148C1172.3 21.148 1173.02 20.423 1173.02 19.5292Z" fill="url(#paint53_linear_1_151)"/>
<path d="M1190.16 19.5292C1190.16 18.6376 1189.43 17.9121 1188.54 17.9121C1187.65 17.9121 1186.92 18.6376 1186.92 19.5292C1186.92 20.423 1187.65 21.148 1188.54 21.148C1189.43 21.148 1190.16 20.423 1190.16 19.5292Z" fill="url(#paint54_linear_1_151)"/>
<path d="M1207.29 19.5292C1207.29 18.6376 1206.57 17.9121 1205.68 17.9121C1204.78 17.9121 1204.06 18.6376 1204.06 19.5292C1204.06 20.423 1204.78 21.148 1205.68 21.148C1206.57 21.148 1207.29 20.423 1207.29 19.5292Z" fill="url(#paint55_linear_1_151)"/>
<path d="M1224.43 19.5292C1224.43 18.6376 1223.71 17.9121 1222.81 17.9121C1221.92 17.9121 1221.19 18.6376 1221.19 19.5292C1221.19 20.423 1221.92 21.148 1222.81 21.148C1223.71 21.148 1224.43 20.423 1224.43 19.5292Z" fill="url(#paint56_linear_1_151)"/>
<path d="M1241.57 19.5292C1241.57 18.6376 1240.84 17.9121 1239.95 17.9121C1239.05 17.9121 1238.33 18.6376 1238.33 19.5292C1238.33 20.423 1239.05 21.148 1239.95 21.148C1240.84 21.148 1241.57 20.423 1241.57 19.5292Z" fill="url(#paint57_linear_1_151)"/>
<path d="M1258.7 19.5292C1258.7 18.6376 1257.98 17.9121 1257.08 17.9121C1256.19 17.9121 1255.47 18.6376 1255.47 19.5292C1255.47 20.423 1256.19 21.148 1257.08 21.148C1257.98 21.148 1258.7 20.423 1258.7 19.5292Z" fill="url(#paint58_linear_1_151)"/>
<path d="M1104.55 23.7432H1100.9V36.0448H1104.55V23.7432Z" fill="url(#paint59_linear_1_151)"/>
<path d="M1096.57 28.0684V31.7174H1108.87V28.0684H1096.57Z" fill="url(#paint60_linear_1_151)"/>
<path d="M1114.09 150.087L1062.6 98.595L1063.54 97.6523L1115.03 149.144" fill="url(#paint61_linear_1_151)"/>
</g>
</g>
<defs>
<linearGradient id="paint0_linear_1_151" x1="1246.14" y1="330.714" x2="1246.14" y2="627.315" gradientUnits="userSpaceOnUse">
<stop stop-color="white"/>
<stop offset="1" stop-color="white" stop-opacity="0"/>
</linearGradient>
<linearGradient id="paint1_linear_1_151" x1="869.117" y1="-55" x2="869.117" y2="106.664" gradientUnits="userSpaceOnUse">
<stop stop-color="white"/>
<stop offset="1" stop-color="white" stop-opacity="0"/>
</linearGradient>
<linearGradient id="paint2_linear_1_151" x1="1214.07" y1="236.883" x2="1214.07" y2="319.791" gradientUnits="userSpaceOnUse">
<stop stop-color="white"/>
<stop offset="1" stop-color="white" stop-opacity="0"/>
</linearGradient>
<linearGradient id="paint3_linear_1_151" x1="1154.27" y1="150.642" x2="1154.27" y2="153.879" gradientUnits="userSpaceOnUse">
<stop stop-color="white"/>
<stop offset="1" stop-color="white" stop-opacity="0"/>
</linearGradient>
<linearGradient id="paint4_linear_1_151" x1="1171.4" y1="150.642" x2="1171.4" y2="153.879" gradientUnits="userSpaceOnUse">
<stop stop-color="white"/>
<stop offset="1" stop-color="white" stop-opacity="0"/>
</linearGradient>
<linearGradient id="paint5_linear_1_151" x1="1188.54" y1="150.642" x2="1188.54" y2="153.879" gradientUnits="userSpaceOnUse">
<stop stop-color="white"/>
<stop offset="1" stop-color="white" stop-opacity="0"/>
</linearGradient>
<linearGradient id="paint6_linear_1_151" x1="1205.68" y1="150.642" x2="1205.68" y2="153.879" gradientUnits="userSpaceOnUse">
<stop stop-color="white"/>
<stop offset="1" stop-color="white" stop-opacity="0"/>
</linearGradient>
<linearGradient id="paint7_linear_1_151" x1="1222.81" y1="150.642" x2="1222.81" y2="153.879" gradientUnits="userSpaceOnUse">
<stop stop-color="white"/>
<stop offset="1" stop-color="white" stop-opacity="0"/>
</linearGradient>
<linearGradient id="paint8_linear_1_151" x1="1239.95" y1="150.642" x2="1239.95" y2="153.879" gradientUnits="userSpaceOnUse">
<stop stop-color="white"/>
<stop offset="1" stop-color="white" stop-opacity="0"/>
</linearGradient>
<linearGradient id="paint9_linear_1_151" x1="1257.08" y1="150.642" x2="1257.08" y2="153.879" gradientUnits="userSpaceOnUse">
<stop stop-color="white"/>
<stop offset="1" stop-color="white" stop-opacity="0"/>
</linearGradient>
<linearGradient id="paint10_linear_1_151" x1="1154.27" y1="131.682" x2="1154.27" y2="134.916" gradientUnits="userSpaceOnUse">
<stop stop-color="white"/>
<stop offset="1" stop-color="white" stop-opacity="0"/>
</linearGradient>
<linearGradient id="paint11_linear_1_151" x1="1171.4" y1="131.682" x2="1171.4" y2="134.916" gradientUnits="userSpaceOnUse">
<stop stop-color="white"/>
<stop offset="1" stop-color="white" stop-opacity="0"/>
</linearGradient>
<linearGradient id="paint12_linear_1_151" x1="1188.54" y1="131.682" x2="1188.54" y2="134.916" gradientUnits="userSpaceOnUse">
<stop stop-color="white"/>
<stop offset="1" stop-color="white" stop-opacity="0"/>
</linearGradient>
<linearGradient id="paint13_linear_1_151" x1="1205.68" y1="131.682" x2="1205.68" y2="134.916" gradientUnits="userSpaceOnUse">
<stop stop-color="white"/>
<stop offset="1" stop-color="white" stop-opacity="0"/>
</linearGradient>
<linearGradient id="paint14_linear_1_151" x1="1222.81" y1="131.682" x2="1222.81" y2="134.916" gradientUnits="userSpaceOnUse">
<stop stop-color="white"/>
<stop offset="1" stop-color="white" stop-opacity="0"/>
</linearGradient>
<linearGradient id="paint15_linear_1_151" x1="1239.95" y1="131.682" x2="1239.95" y2="134.916" gradientUnits="userSpaceOnUse">
<stop stop-color="white"/>
<stop offset="1" stop-color="white" stop-opacity="0"/>
</linearGradient>
<linearGradient id="paint16_linear_1_151" x1="1257.08" y1="131.682" x2="1257.08" y2="134.916" gradientUnits="userSpaceOnUse">
<stop stop-color="white"/>
<stop offset="1" stop-color="white" stop-opacity="0"/>
</linearGradient>
<linearGradient id="paint17_linear_1_151" x1="1154.27" y1="112.719" x2="1154.27" y2="115.956" gradientUnits="userSpaceOnUse">
<stop stop-color="white"/>
<stop offset="1" stop-color="white" stop-opacity="0"/>
</linearGradient>
<linearGradient id="paint18_linear_1_151" x1="1171.4" y1="112.719" x2="1171.4" y2="115.956" gradientUnits="userSpaceOnUse">
<stop stop-color="white"/>
<stop offset="1" stop-color="white" stop-opacity="0"/>
</linearGradient>
<linearGradient id="paint19_linear_1_151" x1="1188.54" y1="112.719" x2="1188.54" y2="115.956" gradientUnits="userSpaceOnUse">
<stop stop-color="white"/>
<stop offset="1" stop-color="white" stop-opacity="0"/>
</linearGradient>
<linearGradient id="paint20_linear_1_151" x1="1205.68" y1="112.719" x2="1205.68" y2="115.956" gradientUnits="userSpaceOnUse">
<stop stop-color="white"/>
<stop offset="1" stop-color="white" stop-opacity="0"/>
</linearGradient>
<linearGradient id="paint21_linear_1_151" x1="1222.81" y1="112.719" x2="1222.81" y2="115.956" gradientUnits="userSpaceOnUse">
<stop stop-color="white"/>
<stop offset="1" stop-color="white" stop-opacity="0"/>
</linearGradient>
<linearGradient id="paint22_linear_1_151" x1="1239.95" y1="112.719" x2="1239.95" y2="115.956" gradientUnits="userSpaceOnUse">
<stop stop-color="white"/>
<stop offset="1" stop-color="white" stop-opacity="0"/>
</linearGradient>
<linearGradient id="paint23_linear_1_151" x1="1257.08" y1="112.719" x2="1257.08" y2="115.956" gradientUnits="userSpaceOnUse">
<stop stop-color="white"/>
<stop offset="1" stop-color="white" stop-opacity="0"/>
</linearGradient>
<linearGradient id="paint24_linear_1_151" x1="1154.27" y1="93.7578" x2="1154.27" y2="96.9951" gradientUnits="userSpaceOnUse">
<stop stop-color="white"/>
<stop offset="1" stop-color="white" stop-opacity="0"/>
</linearGradient>
<linearGradient id="paint25_linear_1_151" x1="1171.4" y1="93.7578" x2="1171.4" y2="96.9951" gradientUnits="userSpaceOnUse">
<stop stop-color="white"/>
<stop offset="1" stop-color="white" stop-opacity="0"/>
</linearGradient>
<linearGradient id="paint26_linear_1_151" x1="1188.54" y1="93.7578" x2="1188.54" y2="96.9951" gradientUnits="userSpaceOnUse">
<stop stop-color="white"/>
<stop offset="1" stop-color="white" stop-opacity="0"/>
</linearGradient>
<linearGradient id="paint27_linear_1_151" x1="1205.68" y1="93.7578" x2="1205.68" y2="96.9951" gradientUnits="userSpaceOnUse">
<stop stop-color="white"/>
<stop offset="1" stop-color="white" stop-opacity="0"/>
</linearGradient>
<linearGradient id="paint28_linear_1_151" x1="1222.81" y1="93.7578" x2="1222.81" y2="96.9951" gradientUnits="userSpaceOnUse">
<stop stop-color="white"/>
<stop offset="1" stop-color="white" stop-opacity="0"/>
</linearGradient>
<linearGradient id="paint29_linear_1_151" x1="1239.95" y1="93.7578" x2="1239.95" y2="96.9951" gradientUnits="userSpaceOnUse">
<stop stop-color="white"/>
<stop offset="1" stop-color="white" stop-opacity="0"/>
</linearGradient>
<linearGradient id="paint30_linear_1_151" x1="1257.08" y1="93.7578" x2="1257.08" y2="96.9951" gradientUnits="userSpaceOnUse">
<stop stop-color="white"/>
<stop offset="1" stop-color="white" stop-opacity="0"/>
</linearGradient>
<linearGradient id="paint31_linear_1_151" x1="1154.27" y1="74.7979" x2="1154.27" y2="78.0328" gradientUnits="userSpaceOnUse">
<stop stop-color="white"/>
<stop offset="1" stop-color="white" stop-opacity="0"/>
</linearGradient>
<linearGradient id="paint32_linear_1_151" x1="1171.4" y1="74.7979" x2="1171.4" y2="78.0328" gradientUnits="userSpaceOnUse">
<stop stop-color="white"/>
<stop offset="1" stop-color="white" stop-opacity="0"/>
</linearGradient>
<linearGradient id="paint33_linear_1_151" x1="1188.54" y1="74.7979" x2="1188.54" y2="78.0328" gradientUnits="userSpaceOnUse">
<stop stop-color="white"/>
<stop offset="1" stop-color="white" stop-opacity="0"/>
</linearGradient>
<linearGradient id="paint34_linear_1_151" x1="1205.68" y1="74.7979" x2="1205.68" y2="78.0328" gradientUnits="userSpaceOnUse">
<stop stop-color="white"/>
<stop offset="1" stop-color="white" stop-opacity="0"/>
</linearGradient>
<linearGradient id="paint35_linear_1_151" x1="1222.81" y1="74.7979" x2="1222.81" y2="78.0328" gradientUnits="userSpaceOnUse">
<stop stop-color="white"/>
<stop offset="1" stop-color="white" stop-opacity="0"/>
</linearGradient>
<linearGradient id="paint36_linear_1_151" x1="1239.95" y1="74.7979" x2="1239.95" y2="78.0328" gradientUnits="userSpaceOnUse">
<stop stop-color="white"/>
<stop offset="1" stop-color="white" stop-opacity="0"/>
</linearGradient>
<linearGradient id="paint37_linear_1_151" x1="1257.08" y1="74.7979" x2="1257.08" y2="78.0328" gradientUnits="userSpaceOnUse">
<stop stop-color="white"/>
<stop offset="1" stop-color="white" stop-opacity="0"/>
</linearGradient>
<linearGradient id="paint38_linear_1_151" x1="1154.27" y1="55.835" x2="1154.27" y2="59.072" gradientUnits="userSpaceOnUse">
<stop stop-color="white"/>
<stop offset="1" stop-color="white" stop-opacity="0"/>
</linearGradient>
<linearGradient id="paint39_linear_1_151" x1="1171.4" y1="55.835" x2="1171.4" y2="59.072" gradientUnits="userSpaceOnUse">
<stop stop-color="white"/>
<stop offset="1" stop-color="white" stop-opacity="0"/>
</linearGradient>
<linearGradient id="paint40_linear_1_151" x1="1188.54" y1="55.835" x2="1188.54" y2="59.072" gradientUnits="userSpaceOnUse">
<stop stop-color="white"/>
<stop offset="1" stop-color="white" stop-opacity="0"/>
</linearGradient>
<linearGradient id="paint41_linear_1_151" x1="1205.68" y1="55.835" x2="1205.68" y2="59.072" gradientUnits="userSpaceOnUse">
<stop stop-color="white"/>
<stop offset="1" stop-color="white" stop-opacity="0"/>
</linearGradient>
<linearGradient id="paint42_linear_1_151" x1="1222.81" y1="55.835" x2="1222.81" y2="59.072" gradientUnits="userSpaceOnUse">
<stop stop-color="white"/>
<stop offset="1" stop-color="white" stop-opacity="0"/>
</linearGradient>
<linearGradient id="paint43_linear_1_151" x1="1239.95" y1="55.835" x2="1239.95" y2="59.072" gradientUnits="userSpaceOnUse">
<stop stop-color="white"/>
<stop offset="1" stop-color="white" stop-opacity="0"/>
</linearGradient>
<linearGradient id="paint44_linear_1_151" x1="1257.08" y1="55.835" x2="1257.08" y2="59.072" gradientUnits="userSpaceOnUse">
<stop stop-color="white"/>
<stop offset="1" stop-color="white" stop-opacity="0"/>
</linearGradient>
<linearGradient id="paint45_linear_1_151" x1="1154.27" y1="36.873" x2="1154.27" y2="40.109" gradientUnits="userSpaceOnUse">
<stop stop-color="white"/>
<stop offset="1" stop-color="white" stop-opacity="0"/>
</linearGradient>
<linearGradient id="paint46_linear_1_151" x1="1171.4" y1="36.873" x2="1171.4" y2="40.109" gradientUnits="userSpaceOnUse">
<stop stop-color="white"/>
<stop offset="1" stop-color="white" stop-opacity="0"/>
</linearGradient>
<linearGradient id="paint47_linear_1_151" x1="1188.54" y1="36.873" x2="1188.54" y2="40.109" gradientUnits="userSpaceOnUse">
<stop stop-color="white"/>
<stop offset="1" stop-color="white" stop-opacity="0"/>
</linearGradient>
<linearGradient id="paint48_linear_1_151" x1="1205.68" y1="36.873" x2="1205.68" y2="40.109" gradientUnits="userSpaceOnUse">
<stop stop-color="white"/>
<stop offset="1" stop-color="white" stop-opacity="0"/>
</linearGradient>
<linearGradient id="paint49_linear_1_151" x1="1222.81" y1="36.873" x2="1222.81" y2="40.109" gradientUnits="userSpaceOnUse">
<stop stop-color="white"/>
<stop offset="1" stop-color="white" stop-opacity="0"/>
</linearGradient>
<linearGradient id="paint50_linear_1_151" x1="1239.95" y1="36.873" x2="1239.95" y2="40.109" gradientUnits="userSpaceOnUse">
<stop stop-color="white"/>
<stop offset="1" stop-color="white" stop-opacity="0"/>
</linearGradient>
<linearGradient id="paint51_linear_1_151" x1="1257.08" y1="36.873" x2="1257.08" y2="40.109" gradientUnits="userSpaceOnUse">
<stop stop-color="white"/>
<stop offset="1" stop-color="white" stop-opacity="0"/>
</linearGradient>
<linearGradient id="paint52_linear_1_151" x1="1154.27" y1="17.9121" x2="1154.27" y2="21.148" gradientUnits="userSpaceOnUse">
<stop stop-color="white"/>
<stop offset="1" stop-color="white" stop-opacity="0"/>
</linearGradient>
<linearGradient id="paint53_linear_1_151" x1="1171.4" y1="17.9121" x2="1171.4" y2="21.148" gradientUnits="userSpaceOnUse">
<stop stop-color="white"/>
<stop offset="1" stop-color="white" stop-opacity="0"/>
</linearGradient>
<linearGradient id="paint54_linear_1_151" x1="1188.54" y1="17.9121" x2="1188.54" y2="21.148" gradientUnits="userSpaceOnUse">
<stop stop-color="white"/>
<stop offset="1" stop-color="white" stop-opacity="0"/>
</linearGradient>
<linearGradient id="paint55_linear_1_151" x1="1205.68" y1="17.9121" x2="1205.68" y2="21.148" gradientUnits="userSpaceOnUse">
<stop stop-color="white"/>
<stop offset="1" stop-color="white" stop-opacity="0"/>
</linearGradient>
<linearGradient id="paint56_linear_1_151" x1="1222.81" y1="17.9121" x2="1222.81" y2="21.148" gradientUnits="userSpaceOnUse">
<stop stop-color="white"/>
<stop offset="1" stop-color="white" stop-opacity="0"/>
</linearGradient>
<linearGradient id="paint57_linear_1_151" x1="1239.95" y1="17.9121" x2="1239.95" y2="21.148" gradientUnits="userSpaceOnUse">
<stop stop-color="white"/>
<stop offset="1" stop-color="white" stop-opacity="0"/>
</linearGradient>
<linearGradient id="paint58_linear_1_151" x1="1257.08" y1="17.9121" x2="1257.08" y2="21.148" gradientUnits="userSpaceOnUse">
<stop stop-color="white"/>
<stop offset="1" stop-color="white" stop-opacity="0"/>
</linearGradient>
<linearGradient id="paint59_linear_1_151" x1="1102.72" y1="23.7432" x2="1102.72" y2="36.0448" gradientUnits="userSpaceOnUse">
<stop stop-color="white"/>
<stop offset="1" stop-color="white" stop-opacity="0"/>
</linearGradient>
<linearGradient id="paint60_linear_1_151" x1="1102.72" y1="28.0684" x2="1102.72" y2="31.7174" gradientUnits="userSpaceOnUse">
<stop stop-color="white"/>
<stop offset="1" stop-color="white" stop-opacity="0"/>
</linearGradient>
<linearGradient id="paint61_linear_1_151" x1="1088.82" y1="97.6523" x2="1088.82" y2="150.087" gradientUnits="userSpaceOnUse">
<stop stop-color="white"/>
<stop offset="1" stop-color="white" stop-opacity="0"/>
</linearGradient>
</defs>
</svg>
