<svg width="32" height="32" viewBox="0 0 32 32" fill="none" xmlns="http://www.w3.org/2000/svg">
<path d="M6.66623 22.6667H5.3329C4.62565 22.6667 3.94737 22.3857 3.44728 21.8856C2.94718 21.3855 2.66623 20.7072 2.66623 20V6.66667C2.66623 5.95942 2.94718 5.28115 3.44728 4.78105C3.94737 4.28095 4.62565 4 5.3329 4H26.6662C27.3735 4 28.0517 4.28095 28.5518 4.78105C29.0519 5.28115 29.3329 5.95942 29.3329 6.66667V20C29.3329 20.7072 29.0519 21.3855 28.5518 21.8856C28.0517 22.3857 27.3735 22.6667 26.6662 22.6667H25.3329" stroke="white" stroke-width="1.4" stroke-linecap="round" stroke-linejoin="round"/>
<path d="M15.9996 20L22.6662 28H9.33292L15.9996 20Z" stroke="white" stroke-width="1.4" stroke-linecap="round" stroke-linejoin="round"/>
</svg>
