<svg width="32" height="32" viewBox="0 0 32 32" fill="none" xmlns="http://www.w3.org/2000/svg">
<g clip-path="url(#clip0_1_679)">
<path d="M22.6667 28V25.3333C22.6667 23.9188 22.1048 22.5623 21.1046 21.5621C20.1044 20.5619 18.7479 20 17.3334 20H6.66673C5.25224 20 3.89568 20.5619 2.89549 21.5621C1.8953 22.5623 1.33339 23.9188 1.33339 25.3333V28" stroke="white" stroke-width="1.4" stroke-linecap="round" stroke-linejoin="round"/>
<path d="M12.0001 14.6667C14.9456 14.6667 17.3334 12.2789 17.3334 9.33333C17.3334 6.38781 14.9456 4 12.0001 4C9.05454 4 6.66673 6.38781 6.66673 9.33333C6.66673 12.2789 9.05454 14.6667 12.0001 14.6667Z" stroke="white" stroke-width="1.4" stroke-linecap="round" stroke-linejoin="round"/>
<path d="M30.6667 28V25.3333C30.6658 24.1516 30.2725 23.0037 29.5485 22.0698C28.8246 21.1358 27.8109 20.4688 26.6667 20.1733" stroke="white" stroke-width="1.4" stroke-linecap="round" stroke-linejoin="round"/>
<path d="M21.3334 4.17334C22.4806 4.46707 23.4974 5.13427 24.2236 6.06975C24.9497 7.00523 25.3439 8.15578 25.3439 9.34001C25.3439 10.5242 24.9497 11.6748 24.2236 12.6103C23.4974 13.5457 22.4806 14.2129 21.3334 14.5067" stroke="white" stroke-width="1.4" stroke-linecap="round" stroke-linejoin="round"/>
</g>
<defs>
<clipPath id="clip0_1_679">
<rect width="32" height="32" fill="white"/>
</clipPath>
</defs>
</svg>
