<svg width="32" height="32" viewBox="0 0 32 32" fill="none" xmlns="http://www.w3.org/2000/svg">
<path d="M21.3334 5.33331H24.0001C24.7073 5.33331 25.3856 5.61426 25.8857 6.11436C26.3858 6.61446 26.6667 7.29274 26.6667 7.99998V26.6666C26.6667 27.3739 26.3858 28.0522 25.8857 28.5523C25.3856 29.0524 24.7073 29.3333 24.0001 29.3333H8.00006C7.29281 29.3333 6.61453 29.0524 6.11444 28.5523C5.61434 28.0522 5.33339 27.3739 5.33339 26.6666V7.99998C5.33339 7.29274 5.61434 6.61446 6.11444 6.11436C6.61453 5.61426 7.29281 5.33331 8.00006 5.33331H10.6667" stroke="white" stroke-width="1.4" stroke-linecap="round" stroke-linejoin="round"/>
<path d="M20.0001 2.66669H12.0001C11.2637 2.66669 10.6667 3.26364 10.6667 4.00002V6.66669C10.6667 7.40307 11.2637 8.00002 12.0001 8.00002H20.0001C20.7364 8.00002 21.3334 7.40307 21.3334 6.66669V4.00002C21.3334 3.26364 20.7364 2.66669 20.0001 2.66669Z" stroke="white" stroke-width="1.4" stroke-linecap="round" stroke-linejoin="round"/>
</svg>
