<svg width="32" height="32" viewBox="0 0 32 32" fill="none" xmlns="http://www.w3.org/2000/svg">
<path d="M24.0001 10.6667C24.0001 8.54496 23.1572 6.51012 21.6569 5.00983C20.1566 3.50954 18.1218 2.66669 16.0001 2.66669C13.8783 2.66669 11.8435 3.50954 10.3432 5.00983C8.84292 6.51012 8.00006 8.54496 8.00006 10.6667C8.00006 20 4.00006 22.6667 4.00006 22.6667H28.0001C28.0001 22.6667 24.0001 20 24.0001 10.6667Z" stroke="white" stroke-width="1.4" stroke-linecap="round" stroke-linejoin="round"/>
<path d="M18.3067 28C18.0723 28.4041 17.7358 28.7395 17.331 28.9727C16.9262 29.2059 16.4672 29.3286 16.0001 29.3286C15.5329 29.3286 15.0739 29.2059 14.6691 28.9727C14.2643 28.7395 13.9278 28.4041 13.6934 28" stroke="white" stroke-width="1.4" stroke-linecap="round" stroke-linejoin="round"/>
</svg>
