<svg width="40" height="40" viewBox="0 0 40 40" fill="none" xmlns="http://www.w3.org/2000/svg">
<path fill-rule="evenodd" clip-rule="evenodd" d="M1.66406 7.5013C1.66406 5.66035 3.15645 4.16797 4.9974 4.16797H34.9974C36.8384 4.16797 38.3307 5.66037 38.3307 7.5013V32.5013C38.3307 34.3423 36.8384 35.8346 34.9974 35.8346H4.9974C3.15646 35.8346 1.66406 34.3423 1.66406 32.5013V7.5013ZM34.9974 7.5013H4.9974V32.5013H34.9974V7.5013ZM14.1283 13.5379C14.664 13.8298 14.9974 14.3912 14.9974 15.0013V25.0013C14.9974 25.9218 14.2512 26.668 13.3307 26.668C12.4103 26.668 11.6641 25.9218 11.6641 25.0013V18.0595L10.9008 18.5518C10.1272 19.0507 9.09569 18.8281 8.59678 18.0546C8.09787 17.281 8.3205 16.2495 9.09403 15.7506L12.4274 13.6007C12.9401 13.27 13.5925 13.2459 14.1283 13.5379ZM29.9616 13.5379C30.4973 13.8298 30.8307 14.3912 30.8307 15.0013V25.0013C30.8307 25.9218 30.0845 26.668 29.1641 26.668C28.2436 26.668 27.4974 25.9218 27.4974 25.0013V18.0595L26.7341 18.5518C25.9606 19.0507 24.929 18.8281 24.4301 18.0546C23.9312 17.281 24.1538 16.2495 24.9274 15.7506L28.2607 13.6007C28.7734 13.27 29.4259 13.2459 29.9616 13.5379ZM19.9974 15.0013C20.9179 15.0013 21.6641 15.7475 21.6641 16.668V17.5013C21.6641 18.4218 20.9179 19.168 19.9974 19.168C19.0769 19.168 18.3307 18.4218 18.3307 17.5013V16.668C18.3307 15.7475 19.0769 15.0013 19.9974 15.0013ZM19.9974 20.8346C20.9179 20.8346 21.6641 21.5808 21.6641 22.5013V23.3346C21.6641 24.2551 20.9179 25.0013 19.9974 25.0013C19.0769 25.0013 18.3307 24.2551 18.3307 23.3346V22.5013C18.3307 21.5808 19.0769 20.8346 19.9974 20.8346Z" fill="#3996D2"/>
<path fill-rule="evenodd" clip-rule="evenodd" d="M5 7.5H35V32.5H5V7.5ZM14.1309 13.5365C14.6666 13.8285 15 14.3899 15 15V25C15 25.9205 14.2538 26.6667 13.3333 26.6667C12.4129 26.6667 11.6667 25.9205 11.6667 25V18.0582L10.9034 18.5505C10.1298 19.0494 9.0983 18.8268 8.59939 18.0533C8.10047 17.2797 8.3231 16.2482 9.09664 15.7493L12.43 13.5994C12.9427 13.2687 13.5952 13.2446 14.1309 13.5365ZM29.9642 13.5365C30.5 13.8285 30.8333 14.3899 30.8333 15V25C30.8333 25.9205 30.0871 26.6667 29.1667 26.6667C28.2462 26.6667 27.5 25.9205 27.5 25V18.0582L26.7367 18.5505C25.9632 19.0494 24.9316 18.8268 24.4327 18.0533C23.9338 17.2797 24.1564 16.2482 24.93 15.7493L28.2633 13.5994C28.776 13.2687 29.4285 13.2446 29.9642 13.5365ZM20 15C20.9205 15 21.6667 15.7462 21.6667 16.6667V17.5C21.6667 18.4205 20.9205 19.1667 20 19.1667C19.0795 19.1667 18.3333 18.4205 18.3333 17.5V16.6667C18.3333 15.7462 19.0795 15 20 15ZM20 20.8333C20.9205 20.8333 21.6667 21.5795 21.6667 22.5V23.3333C21.6667 24.2538 20.9205 25 20 25C19.0795 25 18.3333 24.2538 18.3333 23.3333V22.5C18.3333 21.5795 19.0795 20.8333 20 20.8333Z" fill="#3996D2" fill-opacity="0.2"/>
</svg>
