<svg width="40" height="40" viewBox="0 0 40 40" fill="none" xmlns="http://www.w3.org/2000/svg">
<path fill-rule="evenodd" clip-rule="evenodd" d="M20.0026 5.0013C17.2412 5.0013 15.0026 7.23988 15.0026 10.0013C15.0026 12.7627 17.2412 15.0013 20.0026 15.0013C22.764 15.0013 25.0026 12.7627 25.0026 10.0013C25.0026 7.23988 22.764 5.0013 20.0026 5.0013ZM11.6693 10.0013C11.6693 5.39893 15.4002 1.66797 20.0026 1.66797C24.605 1.66797 28.3359 5.39893 28.3359 10.0013C28.3359 14.6037 24.605 18.3346 20.0026 18.3346C15.4002 18.3346 11.6693 14.6037 11.6693 10.0013ZM3.33594 36.668C3.33594 27.4632 10.7979 20.0013 20.0026 20.0013C29.2073 20.0013 36.6693 27.4632 36.6693 36.668C36.6693 37.5884 35.9231 38.3346 35.0026 38.3346C34.0821 38.3346 33.3359 37.5884 33.3359 36.668C33.3359 30.095 28.5796 24.6328 22.321 23.5355L24.9289 32.0112C25.0911 32.5384 24.982 33.1117 24.6374 33.5425L21.3041 37.7091C20.9878 38.1045 20.5089 38.3346 20.0026 38.3346C19.4963 38.3346 19.0174 38.1045 18.7012 37.7091L15.3678 33.5425C15.0232 33.1117 14.9141 32.5384 15.0763 32.0112L17.6842 23.5355C11.4256 24.6328 6.66927 30.095 6.66927 36.668C6.66927 37.5884 5.92308 38.3346 5.0026 38.3346C4.08213 38.3346 3.33594 37.5884 3.33594 36.668ZM20.0026 27.3352L18.5215 32.1487L20.0026 34L21.4837 32.1487L20.0026 27.3352Z" fill="#3996D2"/>
<path d="M15 10C15 7.23858 17.2386 5 20 5C22.7614 5 25 7.23858 25 10C25 12.7614 22.7614 15 20 15C17.2386 15 15 12.7614 15 10Z" fill="#3996D2" fill-opacity="0.2"/>
</svg>
