<svg width="114" height="20" viewBox="0 0 114 20" fill="none" xmlns="http://www.w3.org/2000/svg">
<g opacity="0.8">
<path fill-rule="evenodd" clip-rule="evenodd" d="M9.04294 13.6367C9.04294 14.4767 9.22732 15.1216 9.46831 15.5118C9.78428 16.0229 10.2556 16.2394 10.736 16.2394C11.3557 16.2394 11.9226 16.0856 13.0151 14.5746C13.6321 13.7209 14.3265 12.6244 14.9257 11.6782L14.9258 11.6782C15.1766 11.2821 15.4108 10.9124 15.6156 10.5979L16.551 9.16065C16.0942 8.51023 15.7013 8.01524 15.4189 7.71512C14.8535 7.11456 14.1267 6.3893 12.9669 6.38928C12.0282 6.38928 11.231 7.04799 10.5639 8.05557C9.62056 9.47934 9.04294 11.6001 9.04294 13.6367ZM6.66667 13.5517C6.66667 14.8455 6.9222 15.9808 7.44244 16.8461C8.07973 17.908 9.10874 18.6126 10.736 18.6126C12.1078 18.6126 13.1498 17.9967 14.37 16.3717C15.0662 15.4437 15.4189 14.8814 16.8113 12.4126L17.5045 11.1847L17.6747 10.8831C17.7304 10.9743 17.7863 11.067 17.8426 11.1609L19.8157 14.4568C20.479 15.5661 21.3412 16.8002 22.0787 17.4949C23.0381 18.3999 23.9057 18.6126 24.8849 18.6126H24.885C25.3061 18.6126 25.6816 18.5532 26.0149 18.4502C26.9284 18.1679 27.5251 17.5584 27.8771 16.9486C28.3744 16.0879 28.6667 14.9985 28.6667 13.5158C28.6667 11.0217 28.0424 8.60488 26.7563 6.68612C25.5812 4.93414 24.0457 4 22.4337 4C21.4736 4 20.5196 4.42843 19.6352 5.19961C19.0374 5.72097 18.4818 6.37905 17.9667 7.07491C17.3327 6.27233 16.7431 5.66063 16.1717 5.19426C15.0876 4.3091 14.0495 4.00001 13.0052 4C13.0052 4 13.0051 4 13.0051 4C11.2019 4 9.62969 5.17436 8.54025 6.85367L8.54028 6.85369C7.31238 8.7472 6.66667 11.1992 6.66667 13.5517ZM20.1982 10.3821C19.7951 9.71064 19.4124 9.10668 19.0463 8.56343C19.1115 8.46235 19.1764 8.36367 19.2412 8.26749C20.2686 6.73967 21.1829 5.88281 22.319 5.88281C23.3694 5.88281 24.3242 6.57748 25.061 7.71436C26.0991 9.31715 26.5704 11.5603 26.5704 13.5816H26.5704C26.5704 14.8227 26.3126 15.9267 25.3447 16.1834C25.2064 16.22 25.0536 16.2394 24.885 16.2394H24.8849C24.3532 16.2394 23.9439 16.0282 23.3594 15.3198C22.905 14.7682 22.1284 13.5984 20.7636 11.3247L20.1982 10.3821Z" fill="#142631"/>
<path d="M45.6166 7.08356C45.5103 7.16607 43.6328 8.22401 43.6328 10.5764C43.6328 13.2973 46.0218 14.2599 46.0933 14.2838C46.0823 14.3425 45.7138 15.6021 44.8337 16.8855C44.049 18.015 43.2294 19.1426 41.9826 19.1426C40.7358 19.1426 40.4149 18.4184 38.9756 18.4184C37.573 18.4184 37.0743 19.1664 35.9338 19.1664C34.7934 19.1664 33.9976 18.1213 33.0827 16.8379C32.0229 15.3307 31.1667 12.9893 31.1667 10.7671C31.1667 7.20274 33.4842 5.31238 35.7651 5.31238C36.9771 5.31238 37.9874 6.10813 38.7483 6.10813C39.4725 6.10813 40.6019 5.26471 41.9808 5.26471C42.5033 5.26471 44.3808 5.31238 45.6166 7.08356ZM41.3262 3.75573C41.8964 3.07916 42.2998 2.1404 42.2998 1.20164C42.2998 1.07146 42.2888 0.939443 42.2649 0.833099C41.3372 0.867936 40.2334 1.45099 39.5678 2.22291C39.0453 2.81696 38.5576 3.75573 38.5576 4.70732C38.5576 4.85034 38.5814 4.99335 38.5924 5.03919C38.6511 5.05019 38.7464 5.06302 38.8418 5.06302C39.6742 5.06302 40.7211 4.50563 41.3262 3.75573Z" fill="#142631"/>
<path d="M65.1043 15.9255C57.5374 19.5267 52.8412 16.5137 49.8351 14.6836C49.6491 14.5683 49.3329 14.7106 49.6072 15.0257C50.6087 16.24 53.8908 19.1669 58.175 19.1669C62.462 19.1669 65.0124 16.8277 65.3315 16.4196C65.6484 16.015 65.4245 15.7918 65.1043 15.9255H65.1043ZM67.2295 14.7519C67.0263 14.4873 65.9939 14.4379 65.3441 14.5178C64.6934 14.5953 63.7166 14.993 63.8015 15.2318C63.8451 15.3212 63.9341 15.2811 64.3811 15.2409C64.8294 15.1962 66.0851 15.0377 66.3468 15.3798C66.6097 15.7242 65.9463 17.3649 65.8251 17.6295C65.708 17.8941 65.8698 17.9624 66.0897 17.7861C66.3066 17.61 66.6992 17.1537 66.9626 16.5081C67.2243 15.8589 67.3839 14.9534 67.2294 14.7519H67.2295Z" fill="#142631"/>
<path fill-rule="evenodd" clip-rule="evenodd" d="M60.0166 8.57682C60.0166 9.52172 60.0405 10.3097 59.5629 11.1489C59.1774 11.8312 58.5668 12.2507 57.8845 12.2507C56.9532 12.2507 56.4108 11.5412 56.4108 10.494C56.4108 8.42668 58.2631 8.05148 60.0166 8.05148V8.57682ZM62.4625 14.4886C62.3021 14.6318 62.0701 14.6421 61.8894 14.5465C61.0843 13.878 60.941 13.5675 60.4976 12.9296C59.1672 14.2873 58.2257 14.6932 56.4996 14.6932C54.4596 14.6932 52.8699 13.4344 52.8699 10.9135C52.8699 8.94526 53.9377 7.60458 55.4556 6.94967C56.7724 6.36968 58.6111 6.26736 60.0166 6.10708V5.79322C60.0166 5.21668 60.0609 4.53444 59.7232 4.03643C59.4264 3.58954 58.8601 3.40532 58.3621 3.40532C57.4376 3.40532 56.6121 3.87946 56.4108 4.8619C56.3699 5.08028 56.2096 5.2952 55.9913 5.30541L53.6375 5.05302C53.4396 5.00859 53.2213 4.84831 53.2759 4.54465C53.8183 1.69289 56.3937 0.833191 58.6997 0.833191C59.8801 0.833191 61.4219 1.14706 62.3532 2.04084C63.5336 3.14265 63.421 4.61289 63.421 6.21279V9.99249C63.421 11.1284 63.8917 11.6265 64.3352 12.2405C64.4921 12.4588 64.5262 12.7216 64.3283 12.8852C63.8337 13.298 62.9536 14.0656 62.4692 14.4954L62.4624 14.4886" fill="#142631"/>
<path d="M65.1043 15.9255C57.5374 19.5267 52.8412 16.5137 49.8351 14.6836C49.6491 14.5683 49.3329 14.7106 49.6072 15.0257C50.6087 16.24 53.8908 19.1669 58.175 19.1669C62.462 19.1669 65.0124 16.8277 65.3315 16.4196C65.6484 16.015 65.4245 15.7918 65.1043 15.9255H65.1043ZM67.2295 14.7519C67.0263 14.4873 65.9939 14.4379 65.3441 14.5178C64.6934 14.5953 63.7166 14.993 63.8015 15.2318C63.8451 15.3212 63.9341 15.2811 64.3811 15.2409C64.8294 15.1962 66.0851 15.0377 66.3468 15.3798C66.6097 15.7242 65.9463 17.3649 65.8251 17.6295C65.708 17.8941 65.8698 17.9624 66.0897 17.7861C66.3066 17.61 66.6992 17.1537 66.9626 16.5081C67.2243 15.8589 67.3839 14.9534 67.2294 14.7519H67.2295Z" fill="#142631"/>
<path fill-rule="evenodd" clip-rule="evenodd" d="M60.0166 8.57682C60.0166 9.52172 60.0405 10.3097 59.5629 11.1489C59.1774 11.8312 58.5668 12.2507 57.8845 12.2507C56.9532 12.2507 56.4108 11.5412 56.4108 10.494C56.4108 8.42668 58.2631 8.05148 60.0166 8.05148V8.57682ZM62.4625 14.4886C62.3021 14.6318 62.0701 14.6421 61.8894 14.5465C61.0843 13.878 60.941 13.5675 60.4976 12.9296C59.1672 14.2873 58.2257 14.6932 56.4996 14.6932C54.4596 14.6932 52.8699 13.4344 52.8699 10.9135C52.8699 8.94526 53.9377 7.60458 55.4556 6.94967C56.7724 6.36968 58.6111 6.26736 60.0166 6.10708V5.79322C60.0166 5.21668 60.0609 4.53444 59.7232 4.03643C59.4264 3.58954 58.8601 3.40532 58.3621 3.40532C57.4376 3.40532 56.6121 3.87946 56.4108 4.8619C56.3699 5.08028 56.2096 5.2952 55.9913 5.30541L53.6375 5.05302C53.4396 5.00859 53.2213 4.84831 53.2759 4.54465C53.8183 1.69289 56.3937 0.833191 58.6997 0.833191C59.8801 0.833191 61.4219 1.14706 62.3532 2.04084C63.5336 3.14265 63.421 4.61289 63.421 6.21279V9.99249C63.421 11.1284 63.8917 11.6265 64.3352 12.2405C64.4921 12.4588 64.5262 12.7216 64.3283 12.8852C63.8337 13.298 62.9536 14.0656 62.4692 14.4954L62.4624 14.4886" fill="#142631"/>
<path fill-rule="evenodd" clip-rule="evenodd" d="M80.1658 0.84552L80.1587 4.89713L80.1515 8.94874L79.8182 8.00819C79.818 8.00787 79.8176 8.00667 79.8175 8.00634L79.3868 17.0263C79.8103 18.2223 80.0372 18.8607 80.0397 18.8633C80.0431 18.8666 80.2844 18.8812 80.5761 18.8957C81.4597 18.9395 82.5547 19.0335 83.3854 19.1367C83.5777 19.1606 83.7432 19.1728 83.7532 19.1639C83.7631 19.155 83.7686 15.0297 83.7652 9.99658L83.7592 0.84552H81.9625H80.1658Z" fill="#B1060F" stroke="#142631" stroke-width="0.0820533"/>
<path fill-rule="evenodd" clip-rule="evenodd" d="M73.6667 0.833099V9.99343C73.6667 15.0316 73.6716 19.1587 73.6776 19.1648C73.6837 19.1708 73.9957 19.1413 74.371 19.0993C74.7463 19.0573 75.265 19.005 75.5237 18.9832C75.9204 18.9497 77.1048 18.8735 77.2419 18.8727C77.2818 18.8724 77.2844 18.6666 77.2901 14.9927L77.2962 11.1131L77.5828 11.9239C77.6271 12.0492 77.641 12.0883 77.6841 12.2104L78.1148 3.1927C78.0235 2.93472 78.0714 3.07014 77.9668 2.7745C77.6149 1.77968 77.3164 0.935896 77.3033 0.89942L77.2795 0.833099H75.4731H73.6667Z" fill="#B1060F" stroke="#142631" stroke-width="0.0820533"/>
<path fill-rule="evenodd" clip-rule="evenodd" d="M73.6667 0.833099V5.97505L77.2889 15.5836C77.2893 15.3634 77.2897 15.2444 77.2901 14.9928L77.2962 11.1131L77.5828 11.9239C79.178 16.4377 80.035 18.8579 80.0401 18.8629C80.0434 18.8663 80.2848 18.8808 80.5764 18.8953C81.4601 18.9391 82.5551 19.0331 83.3857 19.1363C83.578 19.1602 83.7436 19.1724 83.7535 19.1635C83.7604 19.1574 83.7649 17.1347 83.766 14.2812L80.1607 3.9159L80.159 4.89677L80.1519 8.94838L79.8185 8.00783C79.4928 7.0888 79.2753 6.4742 77.9668 2.7745C77.6149 1.77968 77.3164 0.935896 77.3033 0.89942L77.2795 0.833099H75.4731H73.6667H73.6667Z" fill="url(#paint0_radial_1_1092)"/>
<path fill-rule="evenodd" clip-rule="evenodd" d="M73.6667 0.833101L77.2962 11.1178V11.1131L77.5828 11.9239C79.178 16.4377 80.035 18.8579 80.0401 18.8629C80.0434 18.8663 80.2848 18.8808 80.5764 18.8953C81.46 18.9391 82.555 19.0331 83.3857 19.1363C83.5771 19.1601 83.7417 19.1723 83.7532 19.1636L80.1518 8.9465V8.94838L79.8185 8.00783C79.4928 7.0888 79.2753 6.4742 77.9668 2.7745C77.6149 1.77968 77.3164 0.935896 77.3033 0.89942L77.2795 0.833099H75.4731H73.6667V0.833101Z" fill="#E50914"/>
<path fill-rule="evenodd" clip-rule="evenodd" d="M73.6667 0.833099V9.99343C73.6667 15.0316 73.6716 19.1587 73.6776 19.1648C73.6837 19.1708 73.9957 19.1413 74.371 19.0993C74.7463 19.0573 75.265 19.005 75.5237 18.9832C75.9204 18.9497 77.1048 18.8735 77.2419 18.8727C77.2818 18.8724 77.2844 18.6666 77.2901 14.9927L77.2962 11.1133L77.5827 11.9239C78.3671 14.1432 78.9729 15.8564 79.3868 17.0253L79.3868 17.0263C79.8103 18.2223 80.0372 18.8607 80.0397 18.8633C80.0431 18.8666 80.2844 18.8812 80.5761 18.8956C81.4597 18.9395 82.5547 19.0335 83.3854 19.1367C83.5777 19.1606 83.7432 19.1728 83.7532 19.1639C83.7631 19.1549 83.7686 15.0297 83.7652 9.99657L83.7592 0.845516H81.9625H80.1658L80.1587 4.89713L80.1515 8.9476L79.8184 8.00783C79.5054 7.12461 79.2924 6.52255 78.1148 3.19305L78.1148 3.1927L77.9668 2.7745C77.6149 1.77968 77.3164 0.935896 77.3033 0.89942L77.2795 0.833099H77.2794H75.4731H75.473H73.6667Z" fill="#142631"/>
<path d="M107.638 10.2065C107.638 9.60303 107.585 9.03011 107.493 8.47247H98.8614V11.9176H103.804C103.582 13.0482 102.933 14.003 101.97 14.6523V16.944H104.919C106.645 15.3475 107.638 12.9947 107.638 10.2065Z" fill="#142631"/>
<path d="M98.8618 19.1669C101.337 19.1669 103.407 18.3419 104.919 16.944L101.971 14.6523C101.146 15.2023 100.099 15.5384 98.8618 15.5384C96.4709 15.5384 94.4466 13.9266 93.7209 11.7495H90.6806V14.11C92.1855 17.1044 95.2792 19.1669 98.8618 19.1669Z" fill="#142631"/>
<path d="M93.7204 11.7497C93.5295 11.1997 93.4301 10.6115 93.4301 10.0003C93.4301 9.38923 93.5371 8.80104 93.7204 8.25104V5.89062H90.6801C90.0538 7.12812 89.6947 8.5184 89.6947 10.0003C89.6947 11.4823 90.0538 12.8726 90.6801 14.1101L93.7204 11.7497Z" fill="#142631"/>
<path d="M98.8618 4.46166C100.214 4.46166 101.421 4.92764 102.376 5.83667L104.988 3.22416C103.407 1.74222 101.337 0.833191 98.8618 0.833191C95.2792 0.833191 92.1855 2.89569 90.6806 5.89014L93.7209 8.25056C94.4466 6.07347 96.4709 4.46166 98.8618 4.46166Z" fill="#142631"/>
</g>
<defs>
<radialGradient id="paint0_radial_1_1092" cx="0" cy="0" r="1" gradientUnits="userSpaceOnUse" gradientTransform="translate(78.5487 9.89318) rotate(-19.0982) scale(2.28908 83.8469)">
<stop/>
<stop offset="1" stop-opacity="0"/>
</radialGradient>
</defs>
</svg>
