<svg width="74" height="13" viewBox="0 0 74 13" fill="none" xmlns="http://www.w3.org/2000/svg">
<path d="M6.45742 7.2573L6.81555 4.92227H4.57526V3.40709C4.57526 2.76831 4.88815 2.14562 5.89166 2.14562H6.91022V0.15774C6.91022 0.15774 5.98581 0 5.10198 0C3.25692 0 2.05095 1.11821 2.05095 3.14266V4.92227H0V7.2573H2.05095V12.9018C2.15525 12.9182 2.25994 12.9325 2.36482 12.9448C2.4697 12.957 2.5749 12.9673 2.68011 12.9754C2.78537 12.9837 2.89084 12.9898 2.99643 12.9939C3.10189 12.998 3.20754 13 3.31307 13C3.74248 13 4.16401 12.9663 4.57526 12.9018V7.2573H6.45742Z" fill="#1877F2"/>
<path fill-rule="evenodd" clip-rule="evenodd" d="M19.2682 0.0103725C19.8386 -0.0255877 20.4155 0.0316759 20.966 0.186509C21.2417 0.271723 21.5157 0.370059 21.7652 0.517223C22.1365 0.730087 22.4651 1.03183 22.6711 1.41026C22.8544 1.74234 22.9426 2.11805 22.9783 2.49324C23.0186 2.92085 23.01 3.351 23.009 3.78005C23.009 4.59095 23.009 5.40201 23.009 6.21282C23.0104 6.48013 22.9975 6.75035 23.0532 7.01357C23.1019 7.27262 23.214 7.51616 23.3625 7.73269C23.4671 7.88863 23.583 8.03656 23.6917 8.18944C23.7756 8.31172 23.8001 8.502 23.6762 8.60698C23.2432 8.97315 22.8086 9.33735 22.3841 9.71314C22.3149 9.77271 22.2395 9.83627 22.1456 9.84803C22.0466 9.86141 21.9372 9.839 21.8609 9.77151C21.6376 9.5872 21.4255 9.38643 21.2492 9.15576C21.1266 8.99155 21.0158 8.81891 20.8984 8.65104C20.65 8.89458 20.3939 9.13292 20.1098 9.33428C19.7995 9.54714 19.4554 9.71544 19.088 9.80125C18.6965 9.9001 18.2895 9.90913 17.888 9.91049C17.6173 9.89567 17.3437 9.86832 17.086 9.77918C16.775 9.68724 16.483 9.53129 16.2366 9.32014C15.908 9.04345 15.6712 8.66638 15.5404 8.25905C15.4103 7.86588 15.379 7.44791 15.3851 7.03641C15.4089 6.47877 15.5723 5.92164 15.8921 5.46098C16.1514 5.07871 16.5099 4.76794 16.9114 4.54263C17.3455 4.29798 17.8288 4.15866 18.3147 4.05956C19.0518 3.90805 19.804 3.85632 20.5506 3.77426C20.5463 3.46272 20.5658 3.14981 20.5282 2.83964C20.4966 2.57062 20.3936 2.29648 20.182 2.11771C19.9324 1.90535 19.5917 1.82219 19.269 1.84255C18.9042 1.85133 18.534 1.98545 18.274 2.24663C18.1037 2.41698 17.9939 2.64134 17.9459 2.87602C17.9177 3.0104 17.8326 3.14717 17.6939 3.18629C17.6397 3.2087 17.5818 3.19259 17.5265 3.18586C17.0093 3.1349 16.4932 3.07627 15.9766 3.02012C15.8998 3.01535 15.8287 2.97777 15.7693 2.93107C15.6879 2.86494 15.6589 2.75153 15.6808 2.65114C15.7849 2.04255 16.077 1.46216 16.5244 1.03396C16.9917 0.576788 17.6073 0.299502 18.2373 0.150634C18.5759 0.0728341 18.9211 0.0234102 19.2682 0.0103725ZM19.3073 5.28859C18.9682 5.37398 18.6293 5.51219 18.3752 5.75991C18.1089 6.00958 17.9706 6.37072 17.9453 6.73015C17.9309 7.04945 17.9612 7.38417 18.1213 7.6675C18.2706 7.93865 18.5563 8.132 18.8667 8.15535C19.1359 8.19446 19.4098 8.11973 19.6438 7.98773C19.8779 7.84398 20.0697 7.63725 20.2082 7.40104C20.3757 7.11054 20.482 6.7858 20.5184 6.45235C20.5659 6.02416 20.547 5.59246 20.5491 5.16248C20.1327 5.16708 19.7134 5.19008 19.3073 5.28859Z" fill="black"/>
<path d="M25.8126 9.56391C26.0822 9.53596 26.355 9.54073 26.6235 9.57694C26.8041 9.60182 26.9923 9.6319 27.1488 9.73135C27.2015 9.76262 27.2154 9.82662 27.2258 9.88235C27.2524 10.0565 27.2341 10.2336 27.2091 10.4068C27.1543 10.7491 27.0521 11.0841 26.9047 11.3981C26.7576 11.7202 26.5572 12.022 26.2946 12.2617C26.2449 12.3063 26.1973 12.3631 26.1284 12.3763C26.0897 12.3807 26.0372 12.3786 26.0185 12.338C25.9925 12.2786 26.0253 12.217 26.0446 12.1613C26.1758 11.8344 26.3021 11.5052 26.4022 11.1675C26.4606 10.9632 26.5156 10.7549 26.5204 10.5415C26.5196 10.4482 26.5098 10.3386 26.4307 10.2763C26.3573 10.2211 26.2659 10.196 26.1774 10.1774C25.9838 10.1474 25.7877 10.1393 25.5925 10.1497C25.2392 10.1537 24.8882 10.196 24.5377 10.2376C24.4906 10.241 24.4381 10.2494 24.3959 10.224C24.3461 10.1833 24.3653 10.1061 24.4051 10.0657C24.4785 9.9881 24.5751 9.93808 24.6669 9.88542C25.018 9.69207 25.4162 9.60183 25.8126 9.56391Z" fill="#FF9201"/>
<path d="M11.9771 9.86256C12.0642 9.822 12.1485 9.88097 12.2221 9.92238C13.2441 10.512 14.3428 10.9613 15.4737 11.2937C15.8657 11.3993 16.2578 11.5068 16.6572 11.5809C16.8814 11.6225 17.1042 11.6725 17.3299 11.7051C17.7505 11.7662 18.1722 11.8227 18.5964 11.8522C19.6056 11.9254 20.6231 11.9032 21.6259 11.7652C22.4471 11.6647 23.2554 11.4771 24.0483 11.2437C24.5564 11.0929 25.0513 10.9015 25.543 10.7043C25.6698 10.6541 25.8469 10.7116 25.8831 10.8528C25.9129 10.9628 25.8309 11.0625 25.7447 11.1191C25.2235 11.4951 24.6593 11.8114 24.068 12.0628C23.2144 12.434 22.3119 12.6869 21.395 12.844C20.9636 12.908 20.5305 12.9708 20.0939 12.984C19.6546 13.0138 19.2137 12.9972 18.7745 12.9737C18.1492 12.9271 17.5267 12.8381 16.9157 12.697C16.5342 12.5979 16.1516 12.5006 15.7816 12.3642C14.4023 11.8838 13.1218 11.1266 12.032 10.1548C11.9858 10.1121 11.9252 10.0732 11.914 10.0061C11.9 9.95076 11.9249 9.88787 11.9771 9.86256Z" fill="#FF9201"/>
<path d="M41.3699 12.4765C40.6647 13.1608 39.8867 13.0541 39.1451 12.7315C38.3568 12.4023 37.636 12.3815 36.8034 12.7315C35.7665 13.179 35.2162 13.0489 34.5917 12.4765C31.066 8.84671 31.5864 3.31755 35.5934 3.10939C36.5653 3.16139 37.2457 3.64666 37.8182 3.68701C38.669 3.51395 39.4834 3.01829 40.3941 3.08334C41.4882 3.17179 42.3065 3.60375 42.8529 4.38043C40.6022 5.73347 41.1356 8.6997 43.2029 9.53232C42.7892 10.6187 42.2584 11.692 41.3686 12.4856L41.3699 12.4765ZM37.74 3.07034C37.6347 1.45709 38.9422 0.130104 40.4461 0C40.653 1.8604 38.7548 3.2525 37.74 3.07034Z" fill="#454545"/>
<path d="M60.9468 6.64443C60.9468 6.11002 60.9034 5.71999 60.8096 5.31561H54.705V7.72776H58.2882C58.216 8.32723 57.8259 9.23004 56.959 9.83664L56.9467 9.91744L58.8769 11.4123L59.0106 11.4256C60.2388 10.2917 60.9468 8.62336 60.9468 6.64443Z" fill="#4285F4"/>
<path d="M54.705 13C56.4605 13 57.9342 12.4222 59.0107 11.4256L56.959 9.83662C56.4099 10.2194 55.673 10.4866 54.705 10.4866C52.9856 10.4866 51.5263 9.35276 51.0061 7.78558L50.9299 7.79206L48.9228 9.34482L48.8966 9.41774C49.9658 11.541 52.162 13 54.705 13Z" fill="#34A853"/>
<path d="M51.006 7.78564C50.8688 7.38118 50.7894 6.9478 50.7894 6.50008C50.7894 6.05228 50.8688 5.6189 50.9988 5.21445L50.9952 5.12833L48.963 3.55066L48.8965 3.58221C48.4559 4.46339 48.203 5.45281 48.203 6.50008C48.203 7.54727 48.4559 8.5367 48.8965 9.4178L51.006 7.78564Z" fill="#FBBC05"/>
<path d="M54.705 2.51334C55.9259 2.51334 56.7495 3.04054 57.2191 3.48113L59.054 1.69001C57.927 0.642818 56.4605 0 54.705 0C52.162 0 49.9658 1.45886 48.8966 3.58216L50.9989 5.2144C51.5263 3.64722 52.9856 2.51334 54.705 2.51334Z" fill="#EB4335"/>
<path d="M70.5537 0.0103149L70.5486 2.88305L70.5435 5.75584L70.3076 5.08889V5.08717L70.0016 11.4825C70.3025 12.3306 70.4631 12.7837 70.4649 12.7855C70.4666 12.7872 70.6375 12.7975 70.8443 12.8077C71.47 12.8385 72.246 12.9053 72.8358 12.9787C72.9726 12.9958 73.0888 13.0044 73.0974 12.9976C73.1059 12.9907 73.1076 10.0666 73.1059 6.49798L73.1008 0.0103149H70.5537Z" fill="#B1060F"/>
<path d="M65.9468 0.00171625V6.49625C65.9468 10.0683 65.9502 12.9941 65.9554 12.9993C65.9604 13.0044 66.181 12.9821 66.4476 12.9531C66.7143 12.924 67.0818 12.8864 67.2647 12.871C67.5451 12.8471 68.3861 12.794 68.4819 12.7923C68.5109 12.7923 68.5126 12.647 68.516 10.041L68.5211 7.28966L68.7246 7.86421C68.7553 7.95308 68.7656 7.98043 68.7964 8.06769L69.1024 1.67414C69.0374 1.49115 69.0716 1.58688 68.998 1.37826C68.7485 0.672047 68.5365 0.0752438 68.528 0.0479438L68.5109 0H65.9468V0.00171625Z" fill="#B1060F"/>
<path d="M70.5537 0.0103149L70.5486 2.88305L70.5435 5.75584L70.3076 5.08889V5.08717L70.0016 11.4825C70.3025 12.3306 70.4631 12.7837 70.4649 12.7855C70.4666 12.7872 70.6375 12.7975 70.8443 12.8077C71.47 12.8385 72.246 12.9053 72.8358 12.9787C72.9726 12.9958 73.0888 13.0044 73.0974 12.9976C73.1059 12.9907 73.1076 10.0666 73.1059 6.49798L73.1008 0.0103149H70.5537Z" fill="#B1060F"/>
<path d="M65.9468 0.00171625V6.49625C65.9468 10.0683 65.9502 12.9941 65.9554 12.9993C65.9604 13.0044 66.181 12.9821 66.4476 12.9531C66.7143 12.924 67.0818 12.8864 67.2647 12.871C67.5451 12.8471 68.3861 12.794 68.4819 12.7923C68.5109 12.7923 68.5126 12.647 68.516 10.041L68.5211 7.28966L68.7246 7.86421C68.7553 7.95308 68.7656 7.98043 68.7964 8.06769L69.1024 1.67414C69.0374 1.49115 69.0716 1.58688 68.998 1.37826C68.7485 0.672047 68.5365 0.0752438 68.528 0.0479438L68.5109 0H65.9468V0.00171625Z" fill="#B1060F"/>
<path d="M65.9468 0.00171625V3.64743L68.5143 10.4599C68.5143 10.3043 68.5143 10.2188 68.516 10.041L68.5211 7.28966L68.7246 7.86421C69.8529 11.0653 70.4596 12.7821 70.463 12.7855C70.4647 12.7872 70.6357 12.7974 70.8426 12.8077C71.4682 12.8385 72.2443 12.9052 72.834 12.9787C72.9708 12.9958 73.087 13.0044 73.0956 12.9975C73.1007 12.9924 73.1042 11.5595 73.1042 9.53653L70.5503 2.18707L70.5486 2.88303L70.5434 5.75582L70.3075 5.08887C70.0767 4.43742 69.9229 4.0014 68.9947 1.37826C68.7451 0.672047 68.5332 0.0752438 68.5246 0.0479438L68.5075 0H65.9468V0.00171625Z" fill="url(#paint0_radial_78_22)"/>
<path d="M65.9468 0.00171625L68.5194 7.29476V7.29133L68.7228 7.86593C69.8529 11.0653 70.4596 12.7821 70.463 12.7855C70.4647 12.7872 70.6357 12.7974 70.8426 12.8077C71.4682 12.8385 72.2443 12.9052 72.834 12.9787C72.9691 12.9958 73.087 13.0044 73.0939 12.9975L70.5434 5.75411V5.75582L70.3075 5.08887C70.0767 4.43742 69.9229 4.0014 68.9947 1.37826C68.7451 0.672047 68.5332 0.0752438 68.5246 0.0479438L68.5075 0H67.2272L65.9468 0.00171625Z" fill="#E50914"/>
<defs>
<radialGradient id="paint0_radial_78_22" cx="0" cy="0" r="1" gradientUnits="userSpaceOnUse" gradientTransform="translate(69.4056 6.42459) scale(0.471718)">
<stop/>
<stop offset="1" stop-opacity="0"/>
</radialGradient>
</defs>
</svg>
