<svg width="40" height="40" viewBox="0 0 40 40" fill="none" xmlns="http://www.w3.org/2000/svg">
<path fill-rule="evenodd" clip-rule="evenodd" d="M7.5026 6.66536C7.04237 6.66536 6.66927 7.03846 6.66927 7.4987V32.4987C6.66927 32.9589 7.04237 33.332 7.5026 33.332H32.5026C32.9628 33.332 33.3359 32.9589 33.3359 32.4987V7.4987C33.3359 7.03846 32.9628 6.66536 32.5026 6.66536H7.5026ZM3.33594 7.4987C3.33594 5.19751 5.20142 3.33203 7.5026 3.33203H32.5026C34.8038 3.33203 36.6693 5.19751 36.6693 7.4987V32.4987C36.6693 34.7999 34.8038 36.6654 32.5026 36.6654H7.5026C5.20142 36.6654 3.33594 34.7999 3.33594 32.4987V7.4987ZM24.323 16.6654L21.6693 16.6654C20.7488 16.6654 20.0026 15.9192 20.0026 14.9987C20.0026 14.0782 20.7488 13.332 21.6693 13.332L28.3359 13.332C28.778 13.332 29.2019 13.5076 29.5144 13.8202C29.827 14.1327 30.0026 14.5567 30.0026 14.9987L30.0026 21.6654C30.0026 22.5858 29.2564 23.332 28.3359 23.332C27.4155 23.332 26.6693 22.5858 26.6693 21.6654V19.0332L20.7539 24.9711C20.4418 25.2845 20.018 25.4609 19.5757 25.4615C19.1335 25.4622 18.7091 25.2871 18.396 24.9748L15.9179 22.5024L12.3809 26.0393C11.7301 26.6902 10.6748 26.6902 10.0239 26.0393C9.37305 25.3885 9.37305 24.3332 10.0239 23.6823L14.738 18.9683C15.3883 18.3179 16.4425 18.3173 17.0936 18.9669L19.5695 21.437L24.323 16.6654Z" fill="#3996D2"/>
<path fill-rule="evenodd" clip-rule="evenodd" d="M6.66406 7.5013C6.66406 7.04106 7.03716 6.66797 7.4974 6.66797H32.4974C32.9576 6.66797 33.3307 7.04107 33.3307 7.5013V32.5013C33.3307 32.9615 32.9576 33.3346 32.4974 33.3346H7.4974C7.03716 33.3346 6.66406 32.9615 6.66406 32.5013V7.5013ZM24.3178 16.668L21.6641 16.668C20.7436 16.668 19.9974 15.9218 19.9974 15.0013C19.9974 14.0808 20.7436 13.3346 21.6641 13.3346L28.3307 13.3346C28.7728 13.3346 29.1967 13.5102 29.5092 13.8228C29.8218 14.1353 29.9974 14.5593 29.9974 15.0013L29.9974 21.668C29.9974 22.5884 29.2512 23.3346 28.3307 23.3346C27.4103 23.3346 26.6641 22.5884 26.6641 21.668V19.0358L20.7487 24.9737C20.4366 25.2871 20.0128 25.4635 19.5705 25.4641C19.1283 25.4648 18.7039 25.2897 18.3908 24.9774L15.9127 22.505L12.3757 26.0419C11.7249 26.6928 10.6696 26.6928 10.0187 26.0419C9.36784 25.3911 9.36784 24.3358 10.0187 23.6849L14.7328 18.9709C15.3831 18.3205 16.4373 18.3199 17.0884 18.9695L19.5643 21.4396L24.3178 16.668Z" fill="#3996D2" fill-opacity="0.2"/>
</svg>
