<svg width="40" height="40" viewBox="0 0 40 40" fill="none" xmlns="http://www.w3.org/2000/svg">
<path fill-rule="evenodd" clip-rule="evenodd" d="M11.6641 1.66797C7.52192 1.66797 4.16406 5.02584 4.16406 9.16797C4.16406 13.3101 7.52192 16.668 11.6641 16.668C15.8062 16.668 19.1641 13.3101 19.1641 9.16797C19.1641 5.02584 15.8062 1.66797 11.6641 1.66797ZM7.4974 9.16797C7.4974 6.86678 9.36287 5.0013 11.6641 5.0013C13.9653 5.0013 15.8307 6.86678 15.8307 9.16797C15.8307 11.4692 13.9653 13.3346 11.6641 13.3346C9.36287 13.3346 7.4974 11.4692 7.4974 9.16797Z" fill="#3996D2"/>
<path fill-rule="evenodd" clip-rule="evenodd" d="M28.3307 1.66797C24.1886 1.66797 20.8307 5.02584 20.8307 9.16797C20.8307 13.3101 24.1886 16.668 28.3307 16.668C32.4729 16.668 35.8307 13.3101 35.8307 9.16797C35.8307 5.02584 32.4729 1.66797 28.3307 1.66797ZM24.1641 9.16797C24.1641 6.86678 26.0295 5.0013 28.3307 5.0013C30.6319 5.0013 32.4974 6.86678 32.4974 9.16797C32.4974 11.4692 30.6319 13.3346 28.3307 13.3346C26.0295 13.3346 24.1641 11.4692 24.1641 9.16797Z" fill="#3996D2"/>
<path d="M10.3483 22.5013C7.64997 22.5013 4.9974 25.2062 4.9974 29.168V36.668C4.9974 37.5884 4.2512 38.3346 3.33073 38.3346C2.41025 38.3346 1.66406 37.5884 1.66406 36.668V29.168C1.66406 23.925 5.2952 19.168 10.3483 19.168H14.5588C16.8299 19.168 18.5707 20.2867 19.6683 21.2725C19.779 21.3719 19.8845 21.4711 19.9848 21.5693C20.0795 21.475 20.1789 21.3798 20.2828 21.2844C21.3539 20.3017 23.0672 19.168 25.3022 19.168H29.5628C34.6453 19.168 38.3306 23.9052 38.3306 29.168V36.668C38.3306 37.5884 37.5844 38.3346 36.6639 38.3346C35.7434 38.3346 34.9972 37.5884 34.9972 36.668V29.168C34.9972 25.226 32.324 22.5013 29.5628 22.5013H25.3022C24.2362 22.5013 23.294 23.0455 22.5363 23.7406C22.1685 24.0781 21.8804 24.4193 21.6863 24.6746C21.5901 24.8011 21.52 24.9027 21.4775 24.9668C21.1313 25.4893 20.6529 25.857 19.9975 25.857C19.1641 25.8346 18.761 25.3308 18.5244 24.9822C18.4796 24.9163 18.4074 24.8139 18.3093 24.6873C18.1111 24.4317 17.8173 24.0904 17.4411 23.7525C16.6705 23.0604 15.6919 22.5013 14.5588 22.5013H10.3483Z" fill="#3996D2"/>
<path d="M13.1145 31.3759C13.7668 30.7265 13.7692 29.6712 13.1198 29.0189C12.4704 28.3665 11.4151 28.3642 10.7628 29.0136L7.61478 32.1475C6.96417 32.7952 6.95985 33.847 7.6051 34.5001L10.7531 37.686C11.4001 38.3407 12.4553 38.3471 13.1101 37.7001C13.7648 37.0531 13.7712 35.9979 13.1242 35.3431L12.7864 35.0013H27.7432L27.3793 35.3773C26.7391 36.0387 26.7564 37.0938 27.4178 37.734C28.0792 38.3741 29.1344 38.3569 29.7745 37.6955L32.8734 34.4936C33.5048 33.8412 33.4979 32.8035 32.8579 32.1596L29.759 29.0416C29.1101 28.3888 28.0548 28.3856 27.402 29.0344C26.7491 29.6833 26.7459 30.7386 27.3948 31.3915L27.6696 31.668H12.8211L13.1145 31.3759Z" fill="#3996D2"/>
<path d="M11.6667 5C9.36548 5 7.5 6.86548 7.5 9.16667C7.5 11.4679 9.36547 13.3333 11.6667 13.3333C13.9679 13.3333 15.8333 11.4679 15.8333 9.16667C15.8333 6.86548 13.9679 5 11.6667 5Z" fill="#3996D2" fill-opacity="0.2"/>
<path d="M28.3333 5C26.0321 5 24.1667 6.86548 24.1667 9.16667C24.1667 11.4679 26.0321 13.3333 28.3333 13.3333C30.6345 13.3333 32.5 11.4679 32.5 9.16667C32.5 6.86548 30.6345 5 28.3333 5Z" fill="#3996D2" fill-opacity="0.2"/>
</svg>
