<svg width="504" height="545" viewBox="0 0 504 545" fill="none" xmlns="http://www.w3.org/2000/svg">
<g clip-path="url(#clip0_1_1229)">
<path d="M133.731 53.9281C135.819 22.1281 163.291 -1.95861 195.092 0.128059C226.892 2.21606 250.979 29.6894 248.891 61.4894C246.803 93.2894 219.331 117.377 187.529 115.289C155.729 113.201 131.642 85.7294 133.731 53.9281Z" fill="#DFE8ED"/>
<path d="M217.512 59.4841C217.512 59.5321 216.79 59.5774 215.472 59.6187C214.03 59.6481 212.147 59.6854 209.864 59.732C205.104 59.7974 198.475 59.8441 190.99 59.8547H190.62L190.619 59.4841C190.619 58.2867 190.618 57.0241 190.616 55.7427C190.616 47.3827 190.658 39.8161 190.726 34.3401C190.774 31.6987 190.814 29.5134 190.844 27.8547C190.89 26.3227 190.938 25.4761 190.99 25.4761C191.04 25.4761 191.091 26.3227 191.135 27.8547C191.166 29.5134 191.206 31.6987 191.254 34.3401C191.32 39.8161 191.363 47.3827 191.363 55.7427C191.362 57.0241 191.362 58.2867 191.36 59.4841L190.99 59.1134C198.475 59.1254 205.104 59.1707 209.864 59.2361C212.147 59.2827 214.03 59.3201 215.472 59.3494C216.79 59.3907 217.512 59.4361 217.512 59.4841Z" fill="#A5B4BE"/>
<path d="M191.167 9.48283C191.373 9.48283 191.54 11.6535 191.54 14.3308C191.54 17.0081 191.373 19.1775 191.167 19.1775C190.96 19.1775 190.793 17.0081 190.793 14.3308C190.793 11.6535 190.96 9.48283 191.167 9.48283Z" fill="#A5B4BE"/>
<path d="M217.459 17.2681C217.605 17.4134 216.211 19.0454 214.345 20.9094C212.479 22.7761 210.848 24.1707 210.703 24.0241C210.557 23.8787 211.951 22.2481 213.817 20.3828C215.683 18.5161 217.313 17.1228 217.459 17.2681Z" fill="#A5B4BE"/>
<path d="M232.832 34.0627C232.927 34.2507 231.096 35.3507 228.856 36.716C226.612 38.076 224.792 39.1947 224.668 39.024C224.549 38.8613 226.195 37.456 228.468 36.0787C230.737 34.6947 232.743 33.8813 232.832 34.0627Z" fill="#A5B4BE"/>
<path d="M241.843 58.984C241.843 59.1893 238.883 59.356 235.233 59.356C231.581 59.356 228.623 59.1893 228.623 58.984C228.623 58.7773 231.581 58.6106 235.233 58.6106C238.883 58.6106 241.843 58.7773 241.843 58.984Z" fill="#A5B4BE"/>
<path d="M150.186 58.1014C150.186 58.3081 147.391 58.4761 143.943 58.4761C140.495 58.4761 137.7 58.3081 137.7 58.1014C137.7 57.8961 140.495 57.7294 143.943 57.7294C147.391 57.7294 150.186 57.8961 150.186 58.1014Z" fill="#A5B4BE"/>
<path d="M156.668 76.6561C156.803 76.8121 154.691 78.7281 151.951 80.9347C149.209 83.1427 146.888 84.7987 146.765 84.6334C146.641 84.4681 148.753 82.5521 151.483 80.3548C154.211 78.1561 156.533 76.5001 156.668 76.6561Z" fill="#A5B4BE"/>
<path d="M172.66 91.0052C172.832 91.1306 171.265 93.5399 169.449 96.5706C167.624 99.5972 166.233 102.111 166.041 102.017C165.861 101.933 166.964 99.2466 168.809 96.1853C170.645 93.1213 172.5 90.8852 172.66 91.0052Z" fill="#A5B4BE"/>
<path d="M191.167 109.512C190.96 109.512 190.793 106.552 190.793 102.903C190.793 99.2506 190.96 96.2919 191.167 96.2919C191.373 96.2919 191.54 99.2506 191.54 102.903C191.54 106.552 191.373 109.512 191.167 109.512Z" fill="#A5B4BE"/>
<path d="M219.658 100.705C219.553 100.872 216.966 99.3853 214.208 96.972C211.441 94.568 209.616 92.208 209.766 92.0827C209.928 91.94 211.976 94.044 214.7 96.4093C217.413 98.784 219.778 100.525 219.658 100.705Z" fill="#A5B4BE"/>
<path d="M233.029 86.304C232.883 86.4507 230.924 84.7267 228.652 82.4561C226.38 80.1841 224.657 78.224 224.804 78.0787C224.949 77.9334 226.908 79.656 229.18 81.928C231.452 84.1987 233.175 86.1587 233.029 86.304Z" fill="#A5B4BE"/>
<path d="M156.061 40.3293C155.915 40.4747 154.185 38.9813 152.199 36.9947C150.211 35.0067 148.717 33.2773 148.864 33.132C149.009 32.9853 150.739 34.4787 152.727 36.4667C154.713 38.4533 156.207 40.1827 156.061 40.3293Z" fill="#A5B4BE"/>
<path d="M172.562 22.9454C172.417 23.0921 170.717 21.6347 168.766 19.6934C166.814 17.7507 165.35 16.0574 165.496 15.9107C165.642 15.7654 167.341 17.2214 169.293 19.1641C171.244 21.1067 172.708 22.8001 172.562 22.9454Z" fill="#A5B4BE"/>
<path d="M58.4614 161.865H157.092C157.092 161.865 148.371 145.995 122.982 148.304C98.7354 150.511 97.5021 140.496 85.1734 139.263C72.8448 138.029 62.5702 147.483 58.4614 161.865Z" fill="#F3F2F1"/>
<path d="M503.72 538.181C503.72 538.374 390.949 538.529 251.872 538.529C112.747 538.529 0.000488281 538.374 0.000488281 538.181C0.000488281 537.991 112.747 537.835 251.872 537.835C390.949 537.835 503.72 537.991 503.72 538.181Z" fill="#142631"/>
<path d="M406.625 257.067H430.909V232.783H406.625V257.067Z" fill="#F9B2C4"/>
<path d="M32.4736 255.407H205.038V185.315H32.4736V255.407Z" fill="#FCF2F1"/>
<path d="M205.037 255.407C205.037 255.407 205.024 254.976 205.017 254.155C205.012 253.324 205.005 252.108 204.996 250.519C204.985 247.32 204.969 242.621 204.949 236.569C204.924 224.471 204.889 206.972 204.845 185.315L205.037 185.505C161.139 185.527 100.033 185.556 32.4856 185.587H32.4746L32.747 185.315C32.7433 209.86 32.7392 233.552 32.7356 255.407L32.4746 255.145C82.4752 255.195 125.58 255.237 156.197 255.268C171.519 255.3 183.712 255.324 192.089 255.341C196.273 255.356 199.501 255.367 201.696 255.375C202.783 255.381 203.612 255.387 204.181 255.389C204.743 255.396 205.037 255.407 205.037 255.407C205.037 255.407 204.764 255.417 204.215 255.423C203.652 255.427 202.833 255.432 201.759 255.439C199.576 255.447 196.367 255.457 192.207 255.472C183.845 255.489 171.671 255.513 156.375 255.545C125.713 255.575 82.5465 255.619 32.4746 255.668H32.2126V255.407C32.2089 233.552 32.2048 209.86 32.2012 185.315V185.041H32.4746H32.4856C100.033 185.073 161.139 185.101 205.037 185.123H205.229V185.315C205.184 207.021 205.149 224.56 205.124 236.685C205.104 242.719 205.088 247.403 205.077 250.591C205.068 252.167 205.061 253.371 205.056 254.193C205.049 255.001 205.037 255.407 205.037 255.407Z" fill="#2A6992"/>
<path d="M32.6465 194.767C32.6465 194.616 71.2178 194.493 118.787 194.493C166.373 194.493 204.936 194.616 204.936 194.767C204.936 194.917 166.373 195.04 118.787 195.04C71.2178 195.04 32.6465 194.917 32.6465 194.767Z" fill="#2A6992"/>
<path d="M38.6183 191.791C37.9266 191.791 37.3662 191.231 37.3662 190.539C37.3662 189.848 37.9266 189.287 38.6183 189.287C39.3105 189.287 39.8709 189.848 39.8709 190.539C39.8709 191.231 39.3105 191.791 38.6183 191.791Z" fill="#F9B2C4"/>
<path d="M42.9098 191.791C42.2176 191.791 41.6572 191.231 41.6572 190.539C41.6572 189.848 42.2176 189.287 42.9098 189.287C43.601 189.287 44.1619 189.848 44.1619 190.539C44.1619 191.231 43.601 191.791 42.9098 191.791Z" fill="#F9B2C4"/>
<path d="M47.1389 191.791C46.4471 191.791 45.8867 191.231 45.8867 190.539C45.8867 189.848 46.4471 189.287 47.1389 189.287C47.831 189.287 48.3915 189.848 48.3915 190.539C48.3915 191.231 47.831 191.791 47.1389 191.791Z" fill="#F9B2C4"/>
<path d="M47.1392 247.84H88.8198V206.16H47.1392V247.84Z" fill="#EFBEB8"/>
<path d="M193.097 217.328C193.097 217.48 171.649 217.603 145.197 217.603C118.736 217.603 97.292 217.48 97.292 217.328C97.292 217.179 118.736 217.056 145.197 217.056C171.649 217.056 193.097 217.179 193.097 217.328Z" fill="#2A6992"/>
<path d="M193.097 225.82C193.097 225.971 171.649 226.093 145.197 226.093C118.736 226.093 97.292 225.971 97.292 225.82C97.292 225.669 118.736 225.547 145.197 225.547C171.649 225.547 193.097 225.669 193.097 225.82Z" fill="#2A6992"/>
<path d="M158.965 234.311C158.965 234.329 158.751 234.348 158.34 234.367C157.869 234.38 157.275 234.396 156.543 234.417C154.908 234.439 152.669 234.468 149.933 234.504C144.288 234.525 136.612 234.553 128.131 234.584C119.645 234.553 111.969 234.525 106.323 234.504C103.587 234.468 101.348 234.439 99.7149 234.417C98.9832 234.396 98.3879 234.38 97.9181 234.367C97.5072 234.348 97.292 234.329 97.292 234.311C97.292 234.292 97.5072 234.273 97.9181 234.256C98.3879 234.243 98.9832 234.225 99.7149 234.205C101.348 234.184 103.587 234.155 106.323 234.117C111.969 234.097 119.645 234.069 128.131 234.039C136.612 234.069 144.288 234.097 149.933 234.117C152.669 234.155 154.909 234.184 156.543 234.205C157.275 234.225 157.869 234.243 158.34 234.256C158.751 234.273 158.965 234.292 158.965 234.311Z" fill="#2A6992"/>
<path d="M331.836 97.2346C328.943 95.3066 324.972 96.4733 322.08 98.4026C319.188 100.332 316.716 102.976 313.476 104.235C307.389 106.601 299.412 103.797 294.682 108.3C291.68 111.156 291.374 115.845 289.08 119.297C285.218 125.111 275.945 127.295 275.151 134.229C274.687 138.273 277.887 142.152 281.797 143.287C285.708 144.421 290.009 143.224 293.4 140.971C297.36 138.339 300.472 134.279 304.984 132.78C309.596 131.249 315.288 132.532 318.928 129.312C322.573 126.085 322.021 120.169 324.631 116.059C326.019 113.869 328.208 112.344 330.171 110.649C332.133 108.956 334 106.86 334.328 104.289C334.657 101.719 333.603 97.3333 331.836 97.2346Z" fill="#F3F2F1"/>
<path d="M256.705 380.503C256.869 380.403 257.409 380.941 257.913 381.707C258.416 382.472 258.697 383.181 258.54 383.292C258.384 383.403 257.843 382.864 257.333 382.088C256.823 381.313 256.541 380.603 256.705 380.503Z" fill="#142631"/>
<path d="M250.991 368.476C251.172 368.413 251.883 369.736 252.577 371.429C253.272 373.123 253.696 374.563 253.523 374.648C253.351 374.731 252.64 373.409 251.936 371.693C251.232 369.977 250.809 368.537 250.991 368.476Z" fill="#142631"/>
<path d="M247.9 355.512C248.089 355.489 248.515 356.929 248.849 358.729C249.183 360.531 249.303 362.027 249.116 362.073C248.929 362.119 248.505 360.679 248.167 358.856C247.828 357.033 247.708 355.537 247.9 355.512Z" fill="#142631"/>
<path d="M247.431 342.195C247.623 342.209 247.757 343.704 247.732 345.535C247.707 347.367 247.529 348.857 247.337 348.865C247.147 348.875 247.012 347.379 247.037 345.525C247.063 343.672 247.24 342.181 247.431 342.195Z" fill="#142631"/>
<path d="M249.587 329.043C249.771 329.095 249.608 330.588 249.223 332.379C248.836 334.168 248.369 335.596 248.179 335.565C247.989 335.537 248.152 334.044 248.544 332.231C248.935 330.419 249.401 328.992 249.587 329.043Z" fill="#142631"/>
<path d="M254.381 316.617C254.55 316.707 254.082 318.133 253.334 319.803C252.585 321.473 251.832 322.772 251.652 322.705C251.473 322.637 251.941 321.212 252.701 319.519C253.458 317.827 254.212 316.528 254.381 316.617Z" fill="#142631"/>
<path d="M261.728 305.505C261.876 305.628 261.112 306.919 260.019 308.389C258.929 309.863 257.903 310.961 257.763 310.871C257.583 310.751 258.359 309.468 259.46 307.979C260.564 306.492 261.58 305.384 261.728 305.505Z" fill="#142631"/>
<path d="M270.692 295.629C270.828 295.764 269.911 296.952 268.643 298.283C267.375 299.613 266.233 300.588 266.091 300.459C265.949 300.329 266.867 299.143 268.14 297.805C269.412 296.468 270.556 295.493 270.692 295.629Z" fill="#142631"/>
<path d="M280.078 286.148C280.217 286.28 279.28 287.452 277.985 288.767C276.69 290.08 275.532 291.035 275.396 290.899C275.261 290.764 276.197 289.591 277.489 288.279C278.781 286.969 279.941 286.015 280.078 286.148Z" fill="#142631"/>
<path d="M288.843 276.093C288.996 276.208 288.169 277.461 286.996 278.892C285.821 280.324 284.755 281.38 284.612 281.252C284.468 281.124 285.295 279.871 286.457 278.453C287.621 277.036 288.689 275.979 288.843 276.093Z" fill="#142631"/>
<path d="M295.648 264.649C295.822 264.72 295.384 266.173 294.528 267.823C293.674 269.475 292.752 270.675 292.592 270.576C292.425 270.473 293.072 269.129 293.91 267.504C294.753 265.881 295.469 264.573 295.648 264.649Z" fill="#142631"/>
<path d="M298.893 251.764C299.081 251.776 299.128 253.295 298.821 255.131C298.519 256.968 297.981 258.388 297.8 258.339C297.611 258.289 297.84 256.817 298.136 255.017C298.437 253.216 298.699 251.749 298.893 251.764Z" fill="#142631"/>
<path d="M297.904 238.512C298.087 238.464 298.608 239.891 298.892 241.731C299.179 243.571 299.116 245.088 298.928 245.099C298.733 245.111 298.487 243.641 298.205 241.837C297.928 240.033 297.715 238.559 297.904 238.512Z" fill="#142631"/>
<path d="M292.665 226.315C292.818 226.208 293.8 227.369 294.677 229.012C295.558 230.652 295.988 232.108 295.814 232.179C295.633 232.253 294.929 230.944 294.065 229.34C293.206 227.733 292.502 226.424 292.665 226.315Z" fill="#142631"/>
<path d="M283.361 216.852C283.464 216.695 284.812 217.404 286.241 218.601C287.676 219.796 288.609 220.999 288.473 221.127C288.332 221.263 287.197 220.3 285.796 219.133C284.4 217.964 283.253 217.015 283.361 216.852Z" fill="#142631"/>
<path d="M271.241 211.44C271.281 211.256 272.792 211.44 274.556 212.045C276.321 212.647 277.628 213.425 277.548 213.595C277.465 213.772 276.057 213.289 274.331 212.703C272.607 212.109 271.197 211.631 271.241 211.44Z" fill="#142631"/>
<path d="M257.993 210.837C257.96 210.653 259.428 210.239 261.292 210.144C263.157 210.045 264.66 210.299 264.647 210.485C264.635 210.681 263.148 210.74 261.329 210.837C259.511 210.929 258.027 211.031 257.993 210.837Z" fill="#142631"/>
<path d="M245.693 215.739C245.584 215.588 246.729 214.579 248.376 213.696C250.023 212.807 251.499 212.415 251.564 212.591C251.633 212.773 250.307 213.443 248.705 214.307C247.101 215.165 245.807 215.9 245.693 215.739Z" fill="#142631"/>
<path d="M236.539 225.325C236.377 225.229 237.027 223.851 238.175 222.377C239.317 220.901 240.493 219.931 240.625 220.063C240.765 220.2 239.839 221.363 238.723 222.804C237.603 224.24 236.707 225.427 236.539 225.325Z" fill="#142631"/>
<path d="M232.047 237.783C231.86 237.765 231.861 236.236 232.305 234.419C232.744 232.601 233.436 231.24 233.609 231.308C233.793 231.379 233.407 232.815 232.981 234.583C232.548 236.349 232.241 237.803 232.047 237.783Z" fill="#142631"/>
<path d="M233.63 250.911C233.456 250.979 232.767 249.617 232.326 247.801C231.88 245.985 231.872 244.459 232.058 244.44C232.252 244.417 232.567 245.869 233.002 247.636C233.43 249.404 233.814 250.841 233.63 250.911Z" fill="#142631"/>
<path d="M240.391 262.335C240.248 262.459 239.144 261.419 238.057 259.908C236.968 258.397 236.341 257.013 236.505 256.919C236.673 256.821 237.553 258.021 238.621 259.501C239.687 260.984 240.539 262.208 240.391 262.335Z" fill="#142631"/>
<path d="M250.208 271.325C250.1 271.48 248.78 270.74 247.338 269.573C245.891 268.408 244.892 267.271 245.022 267.132C245.154 266.989 246.347 267.884 247.774 269.032C249.196 270.184 250.32 271.165 250.208 271.325Z" fill="#142631"/>
<path d="M261.767 277.952C261.691 278.128 260.289 277.589 258.636 276.749C256.984 275.909 255.724 275.093 255.82 274.928C255.917 274.763 257.319 275.3 258.951 276.131C260.583 276.96 261.844 277.776 261.767 277.952Z" fill="#142631"/>
<path d="M274.455 281.991C274.421 282.176 272.912 282.06 271.115 281.596C269.315 281.136 267.935 280.515 267.995 280.335C268.056 280.151 269.513 280.469 271.287 280.924C273.057 281.381 274.489 281.799 274.455 281.991Z" fill="#142631"/>
<path d="M287.735 282.675C287.756 282.863 286.272 283.18 284.412 283.215C282.553 283.252 281.059 282.995 281.072 282.808C281.084 282.612 282.573 282.556 284.4 282.52C286.224 282.488 287.713 282.481 287.735 282.675Z" fill="#142631"/>
<path d="M300.568 279.244C300.649 279.413 299.349 280.199 297.596 280.827C295.845 281.459 294.341 281.679 294.296 281.496C294.248 281.308 295.645 280.793 297.361 280.173C299.079 279.557 300.485 279.067 300.568 279.244Z" fill="#142631"/>
<path d="M311.692 271.96C311.817 272.1 310.806 273.229 309.33 274.36C307.857 275.493 306.502 276.177 306.401 276.017C306.296 275.855 307.46 274.924 308.908 273.808C310.358 272.697 311.56 271.816 311.692 271.96Z" fill="#142631"/>
<path d="M320.372 261.872C320.531 261.973 319.851 263.328 318.733 264.813C317.619 266.3 316.507 267.331 316.367 267.207C316.219 267.077 317.081 265.86 318.177 264.396C319.277 262.935 320.207 261.768 320.372 261.872Z" fill="#142631"/>
<path d="M326.145 249.881C326.325 249.937 326.02 251.423 325.321 253.145C324.628 254.869 323.818 256.151 323.65 256.067C323.476 255.98 323.994 254.581 324.678 252.885C325.365 251.191 325.96 249.823 326.145 249.881Z" fill="#142631"/>
<path d="M328.726 236.82C328.916 236.832 328.965 238.344 328.712 240.183C328.464 242.021 328.006 243.465 327.821 243.427C327.632 243.387 327.778 241.903 328.025 240.088C328.273 238.276 328.533 236.805 328.726 236.82Z" fill="#142631"/>
<path d="M328.383 223.5C328.573 223.473 328.844 224.951 328.987 226.799C329.131 228.647 329.091 230.148 328.899 230.151C328.707 230.155 328.436 228.677 328.295 226.852C328.153 225.027 328.193 223.525 328.383 223.5Z" fill="#142631"/>
<path d="M325.488 210.485C325.671 210.425 326.211 211.828 326.696 213.616C327.179 215.407 327.42 216.888 327.232 216.929C327.044 216.969 326.504 215.568 326.025 213.797C325.545 212.028 325.307 210.545 325.488 210.485Z" fill="#142631"/>
<path d="M320.383 198.164C320.551 198.079 321.357 199.351 322.159 201.017C322.908 202.712 323.371 204.144 323.192 204.217C323.015 204.289 322.269 202.988 321.531 201.311C320.735 199.659 320.211 198.255 320.383 198.164Z" fill="#142631"/>
<path d="M313.823 186.549C313.988 186.451 314.877 187.661 315.811 189.251C316.744 190.843 317.365 192.208 317.199 192.303C317.032 192.399 316.143 191.189 315.211 189.601C314.28 188.013 313.659 186.647 313.823 186.549Z" fill="#142631"/>
<path d="M307.204 174.967C307.373 174.877 308.234 176.109 309.122 177.717C310.013 179.325 310.598 180.707 310.433 180.803C310.268 180.9 309.409 179.668 308.514 178.051C307.621 176.436 307.033 175.053 307.204 174.967Z" fill="#142631"/>
<path d="M301.996 162.705C302.18 162.651 302.847 163.995 303.484 165.707C304.123 167.42 304.497 168.872 304.321 168.949C304.147 169.027 303.48 167.684 302.833 165.948C302.187 164.212 301.813 162.76 301.996 162.705Z" fill="#142631"/>
<path d="M299.727 149.593C299.921 149.587 300.124 151.064 300.319 152.883C300.511 154.7 300.624 156.188 300.433 156.223C300.248 156.257 299.823 154.803 299.628 152.956C299.431 151.109 299.539 149.599 299.727 149.593Z" fill="#142631"/>
<path d="M300.828 136.327C301.018 136.368 300.85 137.851 300.588 139.661C300.321 141.471 300.058 142.94 299.864 142.925C299.676 142.912 299.63 141.399 299.901 139.56C300.168 137.723 300.644 136.284 300.828 136.327Z" fill="#142631"/>
<path d="M305.175 123.745C305.348 123.833 304.815 125.225 304.112 126.912C303.405 128.6 302.789 129.957 302.604 129.896C302.425 129.836 302.753 128.359 303.471 126.645C304.185 124.931 305.007 123.659 305.175 123.745Z" fill="#142631"/>
<path d="M312.608 112.705C312.753 112.836 311.873 114.04 310.755 115.487C309.633 116.931 308.688 118.084 308.525 117.977C308.367 117.873 309.065 116.529 310.205 115.061C311.341 113.592 312.468 112.579 312.608 112.705Z" fill="#142631"/>
<path d="M322.616 103.931C322.723 104.093 321.571 105.041 320.124 106.16C318.675 107.276 317.464 108.149 317.335 108.004C317.208 107.864 318.228 106.743 319.7 105.611C321.169 104.475 322.512 103.773 322.616 103.931Z" fill="#142631"/>
<path d="M334.484 97.896C334.548 98.08 333.197 98.7134 331.52 99.4414C329.84 100.167 328.452 100.713 328.363 100.541C328.275 100.375 329.539 99.54 331.244 98.804C332.948 98.0654 334.423 97.7174 334.484 97.896Z" fill="#142631"/>
<path d="M344.153 95.4506C344.181 95.64 343.476 95.9293 342.577 96.0946C341.679 96.26 340.916 96.2427 340.873 96.0547C340.832 95.868 341.539 95.58 342.451 95.412C343.364 95.2426 344.127 95.2613 344.153 95.4506Z" fill="#142631"/>
<path d="M371.364 56.1906C371.364 56.1906 387.024 45.0213 408.696 52.2346C408.696 52.2346 410.477 70.176 393.096 84.4453" fill="#2A6992"/>
<path d="M321.995 89.3413C322.661 90.3413 339.655 117.665 339.655 117.665L390.688 86.2253C399.597 80.7359 401.901 68.7973 395.672 60.388C389.991 52.7186 379.285 50.8719 371.364 56.1906L321.995 89.3413Z" fill="#2A6992"/>
<path d="M339.654 117.665L338.512 136.888C338.512 136.888 371.584 120.873 363.329 103.08L339.654 117.665Z" fill="#142631"/>
<path d="M345.633 73.4693C345.633 73.4693 323.212 63.576 304.747 78.0853L321.995 89.3413L345.633 73.4693Z" fill="#142631"/>
<path d="M345.476 89.3561L313.562 109.319C313.562 109.319 314.656 112.752 315.516 112.465C316.235 112.225 340.215 98.0654 347.991 93.4681C349.263 92.7161 349.555 91.0134 348.619 89.8721C347.85 88.9334 346.504 88.7134 345.476 89.3561Z" fill="#142631"/>
<path d="M385.088 74.2266C385.088 79.8693 380.513 84.4453 374.871 84.4453C369.227 84.4453 364.652 79.8693 364.652 74.2266C364.652 68.584 369.227 64.0093 374.871 64.0093C380.513 64.0093 385.088 68.584 385.088 74.2266Z" fill="#FAFAF9"/>
<path d="M385.088 74.2267C385.008 74.232 385.051 73.3161 384.637 71.7654C384.228 70.2427 383.196 68.0147 380.903 66.3001C379.767 65.4627 378.343 64.7534 376.703 64.4734C375.075 64.2027 373.24 64.2614 371.499 64.9307C369.757 65.5601 368.096 66.7481 366.916 68.3881C365.703 70.0067 365.02 72.084 364.999 74.2254C365.02 76.3667 365.701 78.4454 366.916 80.0641C368.096 81.7054 369.757 82.8934 371.499 83.5227C373.24 84.1921 375.075 84.2494 376.704 83.9801C378.343 83.7001 379.768 82.9894 380.904 82.1534C383.196 80.4374 384.228 78.2094 384.637 76.6881C385.051 75.1374 385.008 74.2214 385.088 74.2267C385.11 74.2267 385.124 74.4507 385.124 74.8827C385.133 75.3121 385.08 75.9521 384.899 76.7534C384.56 78.3347 383.567 80.6907 381.201 82.5427C380.031 83.4481 378.54 84.2227 376.809 84.5467C375.091 84.8574 373.144 84.8187 371.28 84.1227C369.419 83.4694 367.636 82.2134 366.368 80.4667C365.063 78.7427 364.323 76.516 364.305 74.2254C364.324 71.9347 365.064 69.7094 366.368 67.9854C367.637 66.2374 369.419 64.9841 371.28 64.3294C373.144 63.6347 375.091 63.5947 376.809 63.9067C378.54 64.2294 380.029 65.0054 381.201 65.9094C383.565 67.7614 384.56 70.1174 384.899 71.6987C385.08 72.5001 385.133 73.1414 385.124 73.5707C385.124 74.0027 385.11 74.2267 385.088 74.2267Z" fill="#142631"/>
<path d="M397.528 81.0361C397.396 81.0494 397.242 79.0534 396.46 75.9467C396.08 74.3921 395.481 72.5801 394.682 70.6254C393.852 68.6827 392.801 66.6067 391.489 64.5521C390.156 62.5107 388.696 60.6987 387.268 59.1414C385.814 57.6094 384.409 56.3187 383.148 55.3321C380.64 53.3414 378.882 52.3787 378.949 52.2641C378.973 52.2214 379.424 52.4374 380.221 52.8654C380.625 53.0734 381.108 53.3441 381.642 53.7054C382.178 54.0601 382.812 54.4374 383.446 54.9427C384.764 55.8921 386.226 57.1667 387.732 58.7014C389.21 60.2614 390.714 62.0961 392.073 64.1747C393.409 66.2681 394.462 68.3934 395.274 70.3827C396.053 72.3854 396.613 74.2427 396.937 75.8347C397.137 76.6214 397.22 77.3534 397.321 77.9894C397.43 78.6228 397.48 79.1761 397.504 79.6281C397.565 80.5334 397.576 81.0321 397.528 81.0361Z" fill="#142631"/>
<path d="M394.775 82.5068C394.643 82.5214 394.483 80.4894 393.687 77.3307C393.3 75.7481 392.692 73.9041 391.883 71.9134C391.04 69.9374 389.977 67.8227 388.649 65.7281C387.299 63.6467 385.819 61.7974 384.375 60.2068C382.903 58.6401 381.481 57.3188 380.205 56.3081C377.664 54.2668 375.887 53.2734 375.955 53.1587C375.979 53.1174 376.433 53.3401 377.243 53.7828C377.651 53.9974 378.14 54.2788 378.68 54.6481C379.223 55.0134 379.864 55.4014 380.505 55.9201C381.839 56.8961 383.319 58.2001 384.841 59.7681C386.337 61.3614 387.859 63.2334 389.233 65.3521C390.587 67.4854 391.651 69.6494 392.476 71.6721C393.265 73.7108 393.833 75.6001 394.164 77.2188C394.368 78.0188 394.453 78.7628 394.559 79.4081C394.669 80.0534 394.72 80.6161 394.745 81.0761C394.811 81.9948 394.823 82.5028 394.775 82.5068Z" fill="#142631"/>
<path d="M82.6463 506.377C81.5035 501.844 84.4972 497.317 87.8431 494.05C91.189 490.785 95.1838 487.867 96.9395 483.535C99.7843 476.515 96.065 467.383 100.884 461.541C103.719 458.104 108.774 456.977 111.293 453.303C112.614 451.376 113.053 448.999 113.58 446.723C116.273 435.111 122.154 424.255 130.41 415.657C130.921 426.013 128.579 436.497 123.705 445.652C121.747 449.331 119.347 452.915 118.681 457.031C117.6 463.713 121.294 470.624 119.614 477.181C117.692 484.68 109.228 489.66 108.783 497.388C108.408 503.923 114.072 509.692 113.611 516.22C113.414 519 112.108 521.574 110.658 523.955C105.557 532.328 98.1005 538.072 86.8483 537.82L73.063 538.224L82.6463 506.377Z" fill="#2A6992"/>
<path d="M73.063 538.224L82.6463 506.377C82.4765 505.704 82.3978 505.031 82.3983 504.362C82.3999 500.528 84.9942 496.832 87.8431 494.05C91.189 490.785 95.1838 487.867 96.9395 483.535C98.1092 480.648 98.1693 477.405 98.1693 474.181C98.1693 473.813 98.1687 473.445 98.1687 473.079C98.1687 468.84 98.2723 464.708 100.884 461.541C103.719 458.104 108.774 456.977 111.293 453.303C112.614 451.376 113.053 448.999 113.58 446.723C116.273 435.111 122.154 424.255 130.41 415.657C130.456 416.586 130.479 417.519 130.479 418.45C130.48 427.886 128.141 437.32 123.705 445.652C121.747 449.331 119.347 452.915 118.681 457.031C118.54 457.905 118.48 458.784 118.479 459.664C118.475 464.226 120.056 468.86 120.059 473.381C120.06 474.659 119.935 475.926 119.614 477.181C117.692 484.68 109.228 489.66 108.783 497.388C108.772 497.593 108.766 497.796 108.766 497.999C108.756 504.031 113.639 509.443 113.637 515.459C113.637 515.712 113.629 515.965 113.611 516.22C113.414 519 112.108 521.574 110.658 523.955C105.665 532.149 98.4139 537.826 87.5583 537.828C87.3228 537.828 87.0874 537.825 86.8483 537.82L73.063 538.224Z" fill="#235371"/>
<path d="M70.2695 538.571C70.2695 538.571 68.9539 538.869 66.4753 538.467C65.241 538.279 63.7227 537.943 62.0029 537.315C60.2935 536.678 58.3482 535.773 56.4883 534.253C55.5967 533.464 54.705 532.493 54.2305 531.208C53.7634 529.929 53.6842 528.526 53.605 527.086C53.5399 525.645 53.5462 524.145 53.3086 522.626C53.0847 521.107 52.4967 519.612 51.6498 518.184C50.0405 515.32 47.3582 512.603 46.5082 508.721C45.5867 504.904 46.2867 500.781 46.9514 496.643C47.6149 492.512 48.2602 488.008 46.7034 483.692C45.2493 479.373 42.2487 475.465 40.7649 470.597C39.2883 465.68 40.0195 460.405 39.731 455.197C39.6009 452.581 39.1107 449.962 37.9785 447.535C36.8779 445.088 35.3435 442.779 34.1503 440.204C31.7337 434.996 31.3353 429.109 30.6993 423.338C30.3894 420.432 30.0763 417.493 29.7602 414.526C29.4487 411.545 29.2014 408.576 28.279 405.704C27.4457 402.811 26.2326 400.008 25.0301 397.155C24.4419 395.719 23.8191 394.283 23.4561 392.691C23.1957 391.064 23.1263 389.544 23.0383 387.948C22.9014 384.787 23.0503 381.585 23.4591 378.409C23.8525 375.231 24.4435 372.08 24.8034 368.895C24.8258 368.707 24.8477 368.519 24.8686 368.345L24.9435 367.712L25.5061 367.996C28.4493 369.492 30.9638 371.708 32.8899 374.3C34.8498 376.877 36.2701 379.779 37.4014 382.727C39.6701 388.661 40.4638 394.873 41.5905 400.801C42.6905 406.729 44.1503 412.562 47.1591 417.502C48.6555 419.965 50.4701 422.217 52.0561 424.62C53.6373 427.007 55.0258 429.626 55.431 432.496C56.2129 438.329 52.9727 443.433 53.6123 448.6C53.8353 451.166 54.8425 453.569 56.0853 455.767C57.3243 457.976 58.7842 460.026 60.1681 462.086C61.5509 464.148 62.8665 466.236 63.8315 468.467C64.8134 470.691 65.3477 473.066 65.4858 475.385C65.7957 480.036 65.1107 484.44 65.4269 488.607C65.6837 492.776 67.1258 496.566 68.7643 499.952C70.4123 503.353 72.2493 506.431 73.7858 509.412C74.5591 510.902 75.2717 512.357 75.8503 513.817C76.4638 515.273 76.7613 516.764 77.0358 518.18C77.4711 521.041 77.4129 523.703 77.0925 526.048C76.4659 530.767 74.6862 534.156 73.0925 536.057C72.7263 536.566 72.3034 536.924 71.9701 537.26C71.6451 537.607 71.3238 537.839 71.0613 538.023C70.5451 538.397 70.2695 538.571 70.2695 538.571C70.2091 538.5 71.4082 537.874 72.9539 535.945C74.4815 534.033 76.1853 530.668 76.7514 526.003C77.0419 523.684 77.0733 521.056 76.6201 518.249C76.3373 516.861 76.0342 515.4 75.4253 513.988C74.8471 512.561 74.1263 511.115 73.3477 509.641C71.7987 506.685 69.9419 503.62 68.2586 500.199C66.5873 496.793 65.0878 492.931 64.8034 488.652C64.4654 484.397 65.1305 479.978 64.8055 475.437C64.6602 473.164 64.1394 470.9 63.1815 468.749C62.2399 466.591 60.9419 464.543 59.5591 462.496C58.1763 460.449 56.6998 458.392 55.4258 456.136C54.1503 453.896 53.0842 451.392 52.8378 448.676C52.205 443.172 55.4222 438.036 54.6243 432.611C54.2415 429.928 52.9227 427.423 51.3629 425.079C49.8029 422.72 47.9779 420.467 46.4367 417.941C43.3342 412.86 41.8498 406.915 40.7383 400.961C39.6009 394.996 38.8055 388.852 36.5774 383.039C35.4681 380.149 34.0785 377.321 32.1842 374.833C30.3217 372.327 27.9154 370.216 25.1113 368.789L25.7487 368.441C25.7279 368.616 25.7061 368.807 25.6837 368.996C25.3186 372.22 24.7253 375.377 24.3367 378.519C23.9315 381.659 23.7858 384.797 23.9181 387.911C23.9993 389.448 24.0842 391.06 24.3159 392.511C24.6446 393.963 25.2539 395.396 25.8378 396.817C27.0321 399.66 28.2634 402.503 29.1113 405.46C30.0529 408.401 30.3091 411.484 30.6123 414.429C30.9249 417.397 31.2337 420.339 31.5399 423.248C32.1654 429.044 32.5643 434.836 34.8919 439.862C36.0419 442.364 37.5733 444.681 38.7066 447.207C39.8769 449.726 40.3862 452.493 40.5086 455.154C40.779 460.473 40.0577 465.668 41.4695 470.388C42.8717 475.086 45.8561 479.015 47.3503 483.472C48.9509 487.974 48.2503 492.626 47.5695 496.741C46.8805 500.886 46.1889 504.923 47.0566 508.593C47.8321 512.298 50.4367 514.992 52.0795 517.937C52.9342 519.399 53.5446 520.981 53.7623 522.556C53.9951 524.126 53.9733 525.64 54.0269 527.069C54.0905 528.491 54.1634 529.884 54.5919 531.08C55.0175 532.273 55.8561 533.217 56.7138 533.993C58.5055 535.492 60.4149 536.415 62.0951 537.068C63.7867 537.716 65.2853 538.078 66.5039 538.291C67.7243 538.519 68.6711 538.555 69.3061 538.578C69.9405 538.557 70.2695 538.571 70.2695 538.571Z" fill="#142631"/>
<path d="M27.6427 375.951C27.6579 375.948 27.7022 376.089 27.7741 376.368C27.8527 376.699 27.9501 377.107 28.0714 377.611C28.3355 378.697 28.6501 380.339 29.1579 382.388C29.6875 384.433 30.9251 386.751 31.9782 389.605C33.0741 392.436 34.1823 395.716 35.199 399.399C36.2287 403.08 37.1381 407.168 38.087 411.547C39.0667 415.916 40.0427 420.604 42.423 425.032C43.5397 427.276 44.799 429.55 45.7949 432.035C46.8162 434.519 47.3594 437.232 47.735 439.955C48.3657 445.419 49.3355 450.967 50.611 456.647C53.311 467.956 55.8818 478.729 58.223 488.538C60.6219 498.315 62.785 507.124 64.6074 514.55C66.3798 521.908 67.8209 527.886 68.8365 532.105C69.3042 534.128 69.6741 535.725 69.9427 536.888C70.0506 537.395 70.1381 537.805 70.2089 538.137C70.2641 538.42 70.285 538.567 70.2698 538.571C70.2558 538.574 70.2047 538.436 70.1214 538.16C70.0277 537.832 69.9126 537.429 69.7698 536.932C69.4621 535.779 69.0381 534.195 68.5017 532.188C67.4203 527.988 65.887 522.032 63.9995 514.701C62.1241 507.288 59.9001 498.495 57.4313 488.736C55.0673 478.924 52.4714 468.149 49.7459 456.835C48.4703 451.162 47.4902 445.511 46.8755 440.074C46.5074 437.372 45.9902 434.756 45.0089 432.347C44.0485 429.925 42.8089 427.662 41.6918 425.393C39.2922 420.883 38.3099 416.052 37.3689 411.701C36.4511 407.312 35.5813 403.236 34.5949 399.563C33.6219 395.887 32.561 392.612 31.5151 389.779C30.5173 386.936 29.3209 384.591 28.8251 382.477C28.3594 380.377 28.1058 378.753 27.8965 377.647C27.811 377.136 27.7413 376.721 27.6855 376.385C27.6422 376.103 27.6282 375.953 27.6427 375.951Z" fill="#142631"/>
<path d="M67.837 538.6C58.8652 533.197 56.3736 516.94 60.184 507.184C63.9954 497.429 70.6189 488.535 71.6918 478.116C72.5157 470.107 69.9392 461.869 71.8501 454.049C74.4282 443.493 84.7933 435.365 84.7361 424.499C84.7042 418.404 81.2689 412.648 81.5793 406.559C81.9605 399.092 87.7277 393.199 91.3162 386.639C96.8089 376.597 97.234 364.691 99.1569 353.407C101.079 342.124 105.452 330.053 115.493 324.56C116.916 334.157 119.402 340.737 118.536 353.723C118.225 358.385 112.755 367.285 111.96 377.504C111.485 383.612 111.144 389.729 110.736 395.843C110.34 401.792 109.919 407.848 107.755 413.404C106.096 417.661 103.447 421.521 102.209 425.919C99.8788 434.192 102.828 443.184 100.936 451.569C99.334 458.672 94.3766 464.767 93.3298 471.973C91.8589 482.099 98.358 492.664 94.946 502.311C93.2532 507.099 89.2856 510.926 88.1376 515.873C87.247 519.712 88.1714 523.784 87.3626 527.64C86.06 533.852 74.1704 538.614 67.837 538.195" fill="#2A6992"/>
<path d="M112.957 334.064C112.972 334.067 112.957 334.251 112.915 334.605C112.86 335.008 112.791 335.527 112.703 336.18C112.489 337.563 112.245 339.596 111.762 342.221C111.244 344.864 109.865 347.832 108.755 351.415C107.586 354.987 106.421 359.107 105.384 363.724C104.33 368.336 103.442 373.444 102.508 378.941C101.545 384.397 100.557 390.428 97.796 396.14C96.5168 399.011 95.084 401.883 94.0032 404.945C92.8954 407.997 92.3761 411.283 92.0485 414.662C91.5454 421.452 90.6006 428.509 89.2897 435.619C86.4517 449.811 83.7485 463.326 81.2881 475.629C78.699 487.884 76.3662 498.923 74.4022 508.217C72.4198 517.441 70.8116 524.928 69.6856 530.169C69.1189 532.714 68.6752 534.709 68.3585 536.129C68.2069 536.771 68.085 537.279 67.9918 537.674C67.9042 538.021 67.8522 538.199 67.837 538.195C67.822 538.192 67.8449 538.009 67.9028 537.656C67.9752 537.257 68.0673 536.741 68.184 536.093C68.4616 534.664 68.8512 532.657 69.3474 530.1C70.408 524.843 71.923 517.338 73.7897 508.09C75.7001 498.784 77.9698 487.731 80.4892 475.462C82.9272 463.162 85.6058 449.652 88.4178 435.464C89.7282 428.347 90.6673 421.392 91.1856 414.576C91.5194 411.177 92.061 407.792 93.2053 404.664C94.3189 401.537 95.772 398.653 97.0512 395.807C99.7965 390.177 100.783 384.289 101.786 378.815C102.749 373.327 103.677 368.205 104.774 363.584C105.854 358.957 107.067 354.828 108.286 351.259C109.45 347.663 110.871 344.72 111.426 342.147C111.953 339.568 112.257 337.516 112.527 336.152C112.651 335.504 112.749 334.991 112.825 334.592C112.897 334.24 112.942 334.061 112.957 334.064Z" fill="#142631"/>
<path d="M452.904 299.841C458.516 298.384 462.684 292.636 462.323 286.849C462.16 284.24 461.191 281.7 461.301 279.088C461.475 275.035 464.165 271.607 466.189 268.091C468.213 264.575 469.572 259.936 467.212 256.635C465.681 254.493 462.98 253.529 461.125 251.66C459.311 249.832 458.449 247.297 457.477 244.911C456.505 242.524 455.245 240.064 453.007 238.789C450.768 237.515 447.335 238.08 446.427 240.491" fill="#142631"/>
<path d="M428.682 234.069C432.676 231.535 433.641 225.653 431.477 221.445C429.312 217.24 424.718 214.685 420.048 213.931C413.288 212.84 406.06 215.236 401.289 220.148C398.71 222.801 396.622 226.265 393.128 227.481C390.054 228.551 386.656 227.585 383.43 228.003C379.105 228.563 375.4 231.637 373.182 235.392C370.965 239.147 370.05 243.525 369.538 247.855C369.068 251.829 368.758 256.191 366 259.092C363.312 261.92 359.064 262.52 355.72 264.532C349.429 268.317 347.39 277.695 351.541 283.751C352.865 285.681 354.764 287.452 354.918 289.788C355.058 291.921 353.68 293.821 353.034 295.859C351.373 301.104 355.666 307.336 361.16 307.652C363.933 307.811 366.905 306.729 369.392 307.969C371.861 309.201 372.78 312.18 374.36 314.443C377.466 318.893 383.966 320.572 388.84 318.183C390.88 317.181 392.806 315.531 395.074 315.683C397.336 315.835 399.117 317.768 401.344 318.199C404.258 318.761 407.025 316.615 408.758 314.205C410.489 311.795 411.698 308.956 413.916 306.984C416.82 304.4 420.9 303.763 424.574 302.496C432.686 299.704 439.464 293.267 442.67 285.311C445.877 277.355 445.46 268.016 441.553 260.379" fill="#142631"/>
<path d="M437.456 239.315C440.752 239.671 443.227 242.489 443.155 245.804L439.345 332.033C439.187 342.216 424.3 347.939 413.396 347.685C402.384 347.431 402.031 342.029 401.892 332.34C401.661 316.155 401.681 310.077 401.676 310.169C401.676 310.169 387.767 307.828 384.925 289.668C383.511 280.637 383.997 265.836 384.787 253.739C385.496 242.851 392.741 229.504 403.592 230.676L437.456 239.315Z" fill="#EFBEB8"/>
<path d="M388.781 265.492C388.735 266.721 389.737 267.773 391.021 267.845C392.301 267.917 393.379 266.981 393.427 265.752C393.472 264.523 392.469 263.468 391.188 263.396C389.905 263.325 388.827 264.263 388.781 265.492Z" fill="#142631"/>
<path d="M387.982 261.447C388.268 261.751 390.036 260.449 392.54 260.461C395.043 260.437 396.878 261.731 397.151 261.424C397.286 261.289 396.992 260.74 396.194 260.156C395.407 259.573 394.063 259.005 392.503 259.009C390.942 259.013 389.628 259.585 388.874 260.172C388.1 260.761 387.839 261.309 387.982 261.447Z" fill="#142631"/>
<path d="M413.754 265.492C413.707 266.721 414.71 267.773 415.992 267.845C417.274 267.917 418.351 266.981 418.398 265.752C418.443 264.523 417.44 263.468 416.16 263.396C414.876 263.325 413.8 264.263 413.754 265.492Z" fill="#142631"/>
<path d="M412.604 261.968C412.893 262.272 414.661 260.971 417.165 260.984C419.668 260.96 421.504 262.252 421.776 261.947C421.909 261.811 421.62 261.263 420.817 260.677C420.032 260.095 418.688 259.528 417.128 259.531C415.566 259.536 414.254 260.108 413.497 260.693C412.728 261.284 412.464 261.832 412.604 261.968Z" fill="#142631"/>
<path d="M403.472 280.528C403.484 280.384 401.928 280.112 399.404 279.784C398.764 279.716 398.159 279.588 398.052 279.152C397.903 278.688 398.172 278 398.484 277.256C399.089 275.709 399.721 274.088 400.387 272.389C403.029 265.46 404.944 259.76 404.664 259.657C404.384 259.552 402.015 265.085 399.372 272.015C398.736 273.724 398.128 275.353 397.548 276.911C397.305 277.637 396.887 278.461 397.211 279.421C397.383 279.9 397.852 280.248 398.261 280.359C398.671 280.485 399.032 280.493 399.348 280.512C401.887 280.656 403.463 280.669 403.472 280.528Z" fill="#142631"/>
<path d="M401.676 310.17C401.676 310.17 413.886 310.984 426.001 303.738C426.001 303.738 419.84 316.538 401.676 314.799V310.17Z" fill="#F68260"/>
<path d="M404.518 286.567C405.421 285.379 407.001 284.727 408.568 284.9C409.654 285.019 410.753 285.547 411.41 286.433C412.069 287.32 412.205 288.576 411.602 289.42C410.925 290.369 409.512 290.585 408.317 290.243C407.121 289.9 406.096 289.109 405.118 288.325C404.849 288.107 404.573 287.88 404.405 287.581C404.237 287.284 404.202 286.895 404.41 286.649" fill="#2A6992"/>
<path d="M410.841 282.276C410.433 282.252 410.422 284.972 408.09 286.896C405.762 288.827 402.865 288.516 402.842 288.896C402.804 289.067 403.486 289.425 404.709 289.461C405.91 289.505 407.662 289.124 409.09 287.945C410.513 286.767 411.126 285.188 411.222 284.072C411.328 282.936 411.026 282.261 410.841 282.276Z" fill="#142631"/>
<path d="M411.486 257.579C411.733 258.261 414.236 257.944 417.173 258.304C420.12 258.607 422.487 259.472 422.879 258.861C423.053 258.569 422.642 257.928 421.685 257.267C420.737 256.605 419.221 255.977 417.458 255.776C415.694 255.58 414.079 255.856 413.007 256.289C411.927 256.721 411.381 257.256 411.486 257.579Z" fill="#142631"/>
<path d="M388.917 254.197C389.357 254.768 391.084 254.181 393.159 254.157C395.233 254.061 396.991 254.549 397.397 253.955C397.575 253.665 397.3 253.095 396.533 252.555C395.777 252.016 394.512 251.575 393.087 251.615C391.66 251.657 390.424 252.169 389.701 252.751C388.965 253.335 388.724 253.92 388.917 254.197Z" fill="#142631"/>
<path d="M425.54 233.411C429.7 230.612 435.085 229.325 439.929 230.716C444.772 232.107 448.785 236.471 448.949 241.405C449.055 244.612 447.671 248.021 449.095 250.912C450.448 253.664 453.785 254.784 456.152 256.779C459.869 259.911 460.967 265.641 458.66 269.877C456.679 273.516 452.511 276.183 452.161 280.291C451.832 284.157 455.091 287.419 455.883 291.219C456.759 295.412 454.436 299.748 451.111 302.531C447.785 305.312 443.583 306.843 439.476 308.323C436.271 309.475 432.839 310.645 429.512 309.891C425.549 308.993 422.589 305.319 422.045 301.377C421.501 297.436 423.125 293.392 425.825 290.419C428.156 287.851 431.428 285.668 431.987 282.279C432.86 277 426.571 272.663 426.957 267.328C427.157 264.577 429.096 262.3 430.711 260.039C432.327 257.777 433.736 254.932 432.744 252.351C431.456 248.993 427.044 248.119 424.38 245.657C422.151 243.599 421.253 240.268 422.152 237.403C423.052 234.536 425.708 232.272 428.735 231.792" fill="#142631"/>
<path d="M427.492 229.317C427.507 232.952 425.831 236.557 423.044 238.889C420.259 241.221 416.413 242.236 412.839 241.581C410.065 241.075 407.027 239.673 404.625 241.151C402.1 242.705 401.996 246.511 399.757 248.455C396.556 251.233 391.468 248.627 387.405 249.831C384.267 250.763 382.308 253.761 380.224 256.284C378.14 258.807 375.017 261.205 371.88 260.273C372.08 257.453 372.285 254.604 373.125 251.903C373.965 249.203 375.509 246.627 377.877 245.083C379.177 244.237 380.685 243.721 381.891 242.748C384.495 240.647 385.097 236.987 386.707 234.051C388.779 230.268 392.784 227.611 397.076 227.172C400.648 226.807 404.327 227.879 407.808 227.001C410.38 226.352 412.628 224.683 415.236 224.187C420.313 223.221 425.032 226.865 428.712 230.492" fill="#142631"/>
<path d="M460.651 272.715C460.561 272.687 461.191 272.024 461.053 270.62C460.94 269.249 459.796 267.296 457.399 266.444C456.24 265.976 454.877 265.704 453.408 265.371C451.947 265.02 450.316 264.588 448.888 263.508C447.417 262.449 446.627 260.525 446.536 258.651C446.419 256.756 446.717 254.853 446.817 252.936C446.855 251.977 446.831 251.037 446.673 250.143C446.488 249.255 446.12 248.447 445.603 247.759C444.512 246.399 442.8 245.795 441.233 245.252C439.639 244.739 438.076 244.152 436.781 243.332C435.473 242.537 434.383 241.603 433.5 240.652C431.723 238.751 430.788 236.825 430.295 235.48C430.048 234.803 429.899 234.264 429.828 233.891C429.753 233.521 429.724 233.324 429.748 233.319C429.812 233.303 429.991 234.077 430.545 235.38C431.107 236.671 432.087 238.512 433.856 240.313C435.6 242.151 438.177 243.751 441.436 244.645C443.013 245.18 444.86 245.78 446.132 247.331C446.729 248.108 447.149 249.032 447.352 250.008C447.528 250.985 447.549 251.979 447.509 252.968C447.407 254.939 447.111 256.821 447.215 258.605C447.305 260.377 447.98 262.035 449.281 263.003C450.555 263.993 452.111 264.445 453.541 264.811C454.991 265.165 456.383 265.471 457.587 265.991C458.787 266.493 459.8 267.229 460.4 268.104C461.015 268.961 461.28 269.861 461.323 270.597C461.36 271.34 461.176 271.907 460.993 272.244C460.816 272.585 460.66 272.723 460.651 272.715Z" fill="#33535F"/>
<path d="M353.721 284.043C353.716 284.053 353.617 284.007 353.425 283.903C353.235 283.799 352.976 283.583 352.743 283.216C352.288 282.472 352.263 281.032 353.113 279.631C353.517 278.931 354.167 278.225 355.057 277.772C355.924 277.3 356.928 276.941 357.976 276.54C359.015 276.132 360.137 275.663 361.029 274.809C361.927 273.96 362.487 272.727 362.773 271.365C363.08 270.003 363.169 268.515 363.417 266.965C363.649 265.425 364.14 263.756 365.217 262.388C367.332 259.603 370.796 258.123 373.38 255.511C374.652 254.195 375.609 252.537 376.216 250.701C376.848 248.872 377.196 246.903 377.5 244.888C378.063 240.901 378.628 236.432 381.315 232.783C382.623 230.973 384.62 229.631 386.791 229.244C388.957 228.816 391.095 229.133 393.112 229.401C395.136 229.683 397.123 229.984 399.02 229.747C400.921 229.533 402.609 228.613 403.845 227.255C406.323 224.583 407.747 220.984 410.792 219.143C413.739 217.321 417.183 217.091 419.964 217.879C422.789 218.668 424.869 220.589 426 222.572C427.171 224.561 427.54 226.572 427.568 228.169C427.601 229.783 427.28 231.016 426.987 231.801C426.699 232.593 426.452 232.967 426.452 232.967C426.417 232.951 426.612 232.552 426.855 231.757C427.1 230.968 427.372 229.751 427.299 228.177C427.231 226.619 426.829 224.673 425.667 222.772C424.54 220.873 422.539 219.077 419.831 218.352C417.167 217.625 413.871 217.885 411.1 219.629C409.724 220.501 408.603 221.793 407.596 223.244C406.572 224.68 405.633 226.281 404.311 227.695C403.649 228.396 402.88 229.04 401.991 229.512C401.093 229.955 400.119 230.3 399.104 230.404C397.079 230.663 395.039 230.349 393.02 230.076C391.005 229.809 388.932 229.519 386.927 229.921C384.92 230.285 383.107 231.497 381.868 233.2C380.608 234.892 379.816 236.885 379.273 238.891C378.728 240.903 378.489 242.963 378.173 244.991C377.861 247.016 377.504 249.023 376.844 250.919C376.209 252.816 375.192 254.575 373.839 255.957C371.1 258.671 367.671 260.119 365.676 262.737C364.657 264.012 364.192 265.541 363.945 267.052C363.689 268.565 363.585 270.063 363.253 271.475C362.943 272.881 362.321 274.22 361.333 275.129C360.347 276.045 359.167 276.507 358.113 276.903C357.047 277.292 356.057 277.625 355.212 278.063C354.359 278.479 353.755 279.111 353.344 279.772C352.499 281.088 352.483 282.439 352.867 283.149C353.273 283.86 353.761 283.996 353.721 284.043Z" fill="#33535F"/>
<path d="M309.173 409.023L341.376 406.072C341.376 406.072 361.193 353.877 385.623 341.219L401.447 368.861L367.573 432.507H301.432L309.173 409.023Z" fill="#2A6992"/>
<path d="M353.412 432.507H313.307C309.685 431.5 306.048 430.488 302.431 429.48L309.173 409.023L341.376 406.072C341.376 406.072 361.193 353.877 385.623 341.219L372.116 358.391L365.088 368.375C361.012 374.16 357.92 380.629 356.38 387.539C354.677 395.184 354.443 402.644 354.443 410.765L353.412 432.507Z" fill="#235371"/>
<path d="M321.897 423.764C321.733 423.664 322.948 421.329 324.611 418.548C326.275 415.765 327.757 413.589 327.921 413.688C328.086 413.787 326.872 416.121 325.207 418.904C323.544 421.685 322.061 423.861 321.897 423.764Z" fill="#FAFAF9"/>
<path d="M344.711 423.131C344.563 423.252 342.802 421.308 340.778 418.791C338.755 416.273 337.235 414.136 337.384 414.015C337.535 413.895 339.295 415.837 341.319 418.356C343.341 420.873 344.862 423.011 344.711 423.131Z" fill="#FAFAF9"/>
<path d="M348.673 411.161C348.483 411.161 348.325 409.272 348.325 406.94C348.325 404.607 348.483 402.717 348.673 402.717C348.865 402.717 349.021 404.607 349.021 406.94C349.021 409.272 348.865 411.161 348.673 411.161Z" fill="#FAFAF9"/>
<path d="M337.34 429.828C337.235 429.99 335.857 429.273 334.261 428.231C332.665 427.187 331.457 426.212 331.563 426.051C331.667 425.89 333.045 426.605 334.641 427.649C336.237 428.692 337.445 429.668 337.34 429.828Z" fill="#FAFAF9"/>
<path d="M355.829 381.849C356.004 381.928 355.009 384.531 353.605 387.663C352.202 390.797 350.922 393.273 350.746 393.195C350.572 393.116 351.568 390.513 352.972 387.38C354.374 384.247 355.654 381.771 355.829 381.849Z" fill="#FAFAF9"/>
<path d="M368.881 360.699C368.997 360.851 367.845 361.919 366.31 363.083C364.773 364.247 363.434 365.065 363.318 364.913C363.204 364.76 364.354 363.693 365.89 362.529C367.426 361.365 368.765 360.547 368.881 360.699Z" fill="#FAFAF9"/>
<path d="M417.047 428.381L433.655 361.304C436.546 349.625 448.01 342.199 459.851 344.332C472.039 346.529 480.25 358.048 478.351 370.285L468.184 435.841C465.684 449.579 454.763 460.226 440.97 462.38L427.767 464.437L417.047 428.381Z" fill="#2A6992"/>
<path d="M469.387 339.999C469.303 340.159 467.528 337.988 463.463 337.021C461.465 336.559 458.956 336.441 456.315 337.071C453.673 337.691 450.961 339.115 448.544 341.123C443.676 345.203 441.028 350.504 439.228 354.217C438.339 356.105 437.661 357.656 437.179 358.72C436.697 359.787 436.412 360.369 436.368 360.351C436.323 360.332 436.523 359.716 436.929 358.617C437.335 357.52 437.944 355.939 438.781 354.015C439.629 352.097 440.708 349.829 442.196 347.468C443.675 345.107 445.615 342.671 448.1 340.589C450.589 338.521 453.408 337.057 456.169 336.448C458.929 335.828 461.529 336.004 463.581 336.545C465.64 337.101 467.155 337.985 468.081 338.717C468.541 339.091 468.883 339.393 469.089 339.631C469.301 339.856 469.404 339.983 469.387 339.999Z" fill="#142631"/>
<path d="M375.3 355.092C375.318 355.108 375.156 355.323 374.835 355.716C374.462 356.161 373.991 356.725 373.415 357.416C372.186 358.896 370.43 361.059 368.431 363.852C364.462 369.404 359.459 377.7 357.094 387.923C354.775 398.151 354.662 407.728 354.268 414.588C354.103 418.028 353.942 420.813 353.794 422.735C353.714 423.632 353.65 424.364 353.598 424.944C353.544 425.449 353.506 425.715 353.482 425.713C353.458 425.711 353.45 425.443 353.459 424.937C353.476 424.353 353.498 423.62 353.524 422.719C353.587 420.7 353.674 417.938 353.778 414.568C354.047 407.709 354.079 398.096 356.416 387.767C358.815 377.408 363.943 369.069 368.035 363.563C370.096 360.791 371.915 358.668 373.21 357.239C373.852 356.519 374.38 355.988 374.731 355.621C375.087 355.259 375.282 355.076 375.3 355.092Z" fill="#142631"/>
<path d="M481.727 354.947C479.905 342.953 473.28 340.075 466.42 336.339C464.176 335.119 453.362 332.343 444.789 330.253C443.97 325.056 442.503 315.76 442.181 313.796C441.728 311.039 398.505 317.933 397.958 318.967C397.594 319.653 396.6 330.424 395.971 337.601L385.622 341.219L372.116 358.391L365.088 368.375C361.012 374.16 357.92 380.629 356.38 387.539C354.677 395.184 354.443 402.644 354.443 410.765L352.354 454.798L442.789 480.372L449.79 435.766L473.121 404.007C475.113 391.161 483.968 369.696 481.727 354.947Z" fill="#2A6992"/>
<path d="M404.544 338.988C404.449 338.997 404.226 337.829 403.942 335.933C403.658 334.035 403.317 331.407 402.98 328.5C402.821 327.063 402.672 325.692 402.532 324.399C402.416 323.141 402.256 322.005 402.292 321.008C402.318 320.019 402.594 319.209 402.936 318.756C403.285 318.303 403.585 318.179 403.602 318.209C403.641 318.255 403.409 318.451 403.165 318.899C402.926 319.351 402.75 320.08 402.782 321.012C402.808 321.937 403.014 323.064 403.166 324.327C403.325 325.616 403.492 326.985 403.669 328.421C404.005 331.327 404.272 333.964 404.43 335.876C404.589 337.788 404.64 338.976 404.544 338.988Z" fill="#142631"/>
<path d="M416.076 336.263C415.991 336.287 415.58 335.232 415.114 333.467C414.646 331.703 414.152 329.217 413.893 326.439C413.639 323.659 413.668 321.124 413.805 319.304C413.94 317.483 414.151 316.371 414.24 316.38C414.453 316.397 414.061 320.881 414.585 326.375C415.076 331.869 416.283 336.207 416.076 336.263Z" fill="#142631"/>
<path d="M437.535 333.143C437.307 333.119 438.264 328.639 437.289 323.197C436.376 317.744 433.965 313.848 434.173 313.748C434.241 313.705 434.931 314.613 435.759 316.259C436.585 317.896 437.487 320.303 437.973 323.079C438.449 325.855 438.411 328.425 438.183 330.247C437.957 332.072 437.613 333.16 437.535 333.143Z" fill="#142631"/>
<path d="M376.125 372.364C375.968 372.263 377.465 369.689 379.666 366.76C381.864 363.827 383.914 361.668 384.056 361.791C384.205 361.919 382.404 364.263 380.222 367.176C378.037 370.087 376.289 372.472 376.125 372.364Z" fill="#FAFAF9"/>
<path d="M396.494 355.796C396.342 355.912 394.732 354.061 392.898 351.663C391.065 349.264 389.702 347.224 389.854 347.108C390.006 346.992 391.616 348.841 393.45 351.241C395.284 353.64 396.646 355.679 396.494 355.796Z" fill="#FAFAF9"/>
<path d="M417.784 345.384C417.911 345.537 415.912 347.363 413.531 349.688C411.144 352.008 409.267 353.957 409.117 353.828C408.976 353.709 410.633 351.536 413.045 349.191C415.452 346.84 417.668 345.239 417.784 345.384Z" fill="#FAFAF9"/>
<path d="M411.805 332.695C411.676 332.836 410.188 331.699 408.481 330.153C406.773 328.605 405.493 327.237 405.623 327.096C405.752 326.953 407.24 328.092 408.947 329.637C410.653 331.184 411.933 332.552 411.805 332.695Z" fill="#FAFAF9"/>
<path d="M430.457 322.745C430.497 322.933 428.488 323.523 425.969 324.061C423.451 324.601 421.376 324.885 421.336 324.699C421.296 324.511 423.305 323.923 425.824 323.383C428.343 322.843 430.417 322.557 430.457 322.745Z" fill="#FAFAF9"/>
<path d="M434.189 352.275C433.997 352.284 433.736 350.204 433.605 347.627C433.476 345.049 433.527 342.952 433.717 342.943C433.909 342.933 434.169 345.015 434.3 347.592C434.429 350.168 434.38 352.265 434.189 352.275Z" fill="#FAFAF9"/>
<path d="M427.387 366.479C427.207 366.544 426.161 364.129 425.052 361.085C423.941 358.041 423.189 355.52 423.369 355.455C423.548 355.388 424.595 357.803 425.705 360.848C426.815 363.891 427.568 366.412 427.387 366.479Z" fill="#FAFAF9"/>
<path d="M408.915 376.489C408.735 376.557 407.587 374.031 406.348 370.844C405.109 367.657 404.252 365.017 404.429 364.948C404.608 364.879 405.757 367.405 406.995 370.593C408.233 373.779 409.093 376.419 408.915 376.489Z" fill="#FAFAF9"/>
<path d="M391.521 387.836C391.333 387.876 390.662 385.375 390.024 382.249C389.382 379.125 389.017 376.561 389.205 376.523C389.393 376.485 390.064 378.987 390.704 382.111C391.342 385.235 391.708 387.799 391.521 387.836Z" fill="#FAFAF9"/>
<path d="M370.863 388.289C370.689 388.375 369.439 386.16 368.068 383.348C366.699 380.536 365.727 378.187 365.9 378.104C366.072 378.019 367.321 380.231 368.693 383.045C370.063 385.857 371.035 388.207 370.863 388.289Z" fill="#FAFAF9"/>
<path d="M370.416 401.536C370.501 401.708 368.077 403.079 365.001 404.599C361.925 406.116 359.364 407.209 359.279 407.037C359.193 406.865 361.617 405.493 364.695 403.975C367.768 402.456 370.331 401.364 370.416 401.536Z" fill="#FAFAF9"/>
<path d="M370.673 422.495C370.5 422.561 369.53 420.428 368.792 417.643C368.045 414.857 367.822 412.524 368.006 412.495C368.202 412.462 368.725 414.716 369.462 417.462C370.192 420.212 370.858 422.426 370.673 422.495Z" fill="#FAFAF9"/>
<path d="M366.4 437.217C366.269 437.36 364.32 435.787 362.047 433.705C359.771 431.623 358.033 429.821 358.161 429.68C358.292 429.538 360.24 431.111 362.516 433.193C364.789 435.274 366.529 437.077 366.4 437.217Z" fill="#FAFAF9"/>
<path d="M393.623 427.172C393.673 427.372 390.611 428.245 387.039 429.823C383.456 431.381 380.739 433.038 380.627 432.867C380.521 432.721 383.112 430.773 386.76 429.185C390.399 427.581 393.588 426.997 393.623 427.172Z" fill="#FAFAF9"/>
<path d="M385.66 419.872C385.48 419.935 384.603 417.891 383.704 415.307C382.803 412.721 382.219 410.576 382.4 410.513C382.583 410.449 383.459 412.493 384.359 415.079C385.26 417.661 385.842 419.809 385.66 419.872Z" fill="#FAFAF9"/>
<path d="M401.812 401.845C401.975 401.948 400.34 404.832 398.161 408.288C395.983 411.745 394.087 414.462 393.924 414.361C393.763 414.259 395.396 411.375 397.575 407.919C399.753 404.463 401.649 401.744 401.812 401.845Z" fill="#FAFAF9"/>
<path d="M419.16 403.575C419.016 403.687 416.863 401.085 414.729 397.52C412.588 393.959 411.307 390.836 411.473 390.761C411.653 390.675 413.204 393.637 415.325 397.163C417.436 400.693 419.321 403.456 419.16 403.575Z" fill="#FAFAF9"/>
<path d="M429.554 386.452C429.592 386.633 427.336 387.217 424.48 387.355C421.621 387.5 419.32 387.143 419.338 386.96C419.354 386.761 421.641 386.805 424.444 386.66C427.249 386.527 429.52 386.257 429.554 386.452Z" fill="#FAFAF9"/>
<path d="M454.232 366.944C454.315 367.119 451.388 368.685 447.697 370.443C444.004 372.203 440.945 373.488 440.863 373.315C440.78 373.143 443.707 371.576 447.399 369.817C451.089 368.057 454.149 366.772 454.232 366.944Z" fill="#FAFAF9"/>
<path d="M455.873 354.54C455.703 354.453 456.748 351.993 458.211 349.044C459.673 346.092 460.999 343.771 461.171 343.855C461.343 343.939 460.296 346.4 458.832 349.352C457.371 352.301 456.044 354.624 455.873 354.54Z" fill="#FAFAF9"/>
<path d="M471.557 364.273C471.365 364.319 470.586 361.565 469.533 358.208C468.484 354.847 467.556 352.143 467.74 352.068C467.91 351.997 469.138 354.609 470.196 358C471.26 361.388 471.74 364.235 471.557 364.273Z" fill="#FAFAF9"/>
<path d="M474.013 377.181C474.079 377.355 471.505 378.468 468.163 379.321C464.821 380.181 462.031 380.443 462.004 380.26C461.975 380.063 464.688 379.499 467.991 378.648C471.295 377.805 473.945 376.993 474.013 377.181Z" fill="#FAFAF9"/>
<path d="M447.145 392.944C446.943 392.904 447.515 389.66 447.676 385.62C447.859 381.58 447.564 378.299 447.768 378.275C447.943 378.245 448.553 381.54 448.371 385.649C448.205 389.759 447.317 392.991 447.145 392.944Z" fill="#FAFAF9"/>
<path d="M441.784 409.161C441.661 409.296 439.317 407.305 436.907 404.392C434.487 401.485 432.963 398.813 433.117 398.717C433.287 398.607 435.051 401.079 437.44 403.948C439.82 406.827 441.924 409.016 441.784 409.161Z" fill="#FAFAF9"/>
<path d="M468.732 405.748C468.807 405.925 466.317 407.133 463.172 408.445C460.027 409.76 457.419 410.681 457.344 410.504C457.269 410.327 459.76 409.119 462.905 407.805C466.048 406.493 468.659 405.571 468.732 405.748Z" fill="#FAFAF9"/>
<path d="M459.077 436.272C458.885 436.272 458.763 432.987 458.804 428.936C458.844 424.884 459.033 421.604 459.224 421.605C459.416 421.607 459.539 424.891 459.497 428.943C459.457 432.993 459.268 436.274 459.077 436.272Z" fill="#FAFAF9"/>
<path d="M438.389 434.52C438.208 434.496 438.541 431.08 439.575 426.984C440.596 422.883 441.916 419.715 442.087 419.779C442.275 419.847 441.261 423.092 440.248 427.154C439.224 431.211 438.588 434.55 438.389 434.52Z" fill="#FAFAF9"/>
<path d="M439.343 442.529C439.355 442.731 436.029 443.048 431.979 443.723C427.923 444.385 424.673 445.155 424.619 444.96C424.567 444.785 427.765 443.709 431.865 443.038C435.96 442.356 439.336 442.348 439.343 442.529Z" fill="#FAFAF9"/>
<path d="M416.461 437.393C416.323 437.261 418.095 435.205 420.415 432.802C422.737 430.397 424.731 428.557 424.869 428.691C425.005 428.826 423.236 430.881 420.915 433.284C418.593 435.687 416.599 437.528 416.461 437.393Z" fill="#FAFAF9"/>
<path d="M401.643 451.812C401.445 451.85 400.853 449.452 399.841 446.596C398.841 443.733 397.8 441.493 397.979 441.399C398.136 441.309 399.475 443.444 400.496 446.366C401.528 449.28 401.821 451.783 401.643 451.812Z" fill="#FAFAF9"/>
<path d="M425.562 460.05C425.484 460.226 422.489 459.067 418.873 457.462C415.257 455.857 412.388 454.414 412.466 454.238C412.544 454.062 415.538 455.221 419.154 456.826C422.77 458.433 425.64 459.876 425.562 460.05Z" fill="#FAFAF9"/>
<path d="M383.869 457.635C383.687 457.573 384.248 455.39 385.123 452.757C385.997 450.123 386.853 448.037 387.036 448.097C387.217 448.159 386.656 450.341 385.781 452.976C384.907 455.608 384.049 457.695 383.869 457.635Z" fill="#FAFAF9"/>
<path d="M411.339 462.283C411.301 462.487 407.508 461.872 402.795 461.631C398.08 461.371 394.244 461.579 394.228 461.373C394.207 461.197 398.059 460.674 402.831 460.937C407.603 461.183 411.377 462.109 411.339 462.283Z" fill="#FAFAF9"/>
<path d="M417.047 422.967C417.025 422.967 417.013 422.787 417.012 422.44C417.003 422.096 417.039 421.574 417.227 420.928C417.4 420.288 417.817 419.474 418.676 418.943C419.52 418.395 420.687 418.208 421.931 418.405L421.657 418.564C423.119 413.452 425.449 405.981 427.783 397.609C429.969 389.773 431.441 382.553 432.477 377.321C432.976 374.789 433.387 372.699 433.697 371.121C433.992 369.659 434.177 368.852 434.224 368.861C434.272 368.869 434.176 369.689 433.964 371.167C433.753 372.647 433.413 374.779 432.96 377.411C432.047 382.669 430.645 389.932 428.453 397.793C426.113 406.188 423.699 413.628 422.103 418.7L422.04 418.899L421.829 418.86C420.727 418.655 419.621 418.793 418.867 419.256C418.085 419.697 417.667 420.411 417.467 421.008C417.06 422.226 417.135 422.976 417.047 422.967Z" fill="#142631"/>
<path d="M446.945 441.511C446.831 441.564 446.012 439.759 444.316 437.067C442.629 434.376 439.952 430.857 436.371 427.591C432.775 424.333 429.017 422.004 426.177 420.581C423.337 419.15 421.461 418.507 421.504 418.386C421.519 418.341 421.997 418.471 422.855 418.741C423.713 419 424.929 419.473 426.392 420.14C429.317 421.464 433.184 423.768 436.837 427.076C440.479 430.396 443.139 434.024 444.736 436.812C445.539 438.204 446.125 439.368 446.465 440.2C446.816 441.026 446.989 441.492 446.945 441.511Z" fill="#142631"/>
<path d="M445.493 434.019C445.16 434.019 444.821 433.959 444.509 433.848C443.661 433.548 442.963 432.94 442.303 432.329C441.524 431.609 440.737 430.912 439.945 430.227C439.831 430.097 439.713 429.968 439.596 429.839C439.792 429.004 440.009 428.099 440.248 427.154C440.672 425.452 441.097 423.893 441.433 422.652C444.048 424.517 446.187 426.981 447.285 429.979C447.707 431.128 447.908 432.58 447.037 433.441C446.632 433.841 446.068 434.019 445.493 434.019ZM439.055 429.255C438.361 428.521 437.623 427.792 436.837 427.076C433.991 424.497 431.015 422.529 428.455 421.16C427.028 420.333 425.529 419.628 424.047 419.152C423.597 418.983 423.197 418.845 422.855 418.741C422.583 418.656 422.349 418.584 422.157 418.528C422.269 418.171 422.385 417.804 422.505 417.426C427.489 417.785 431.608 418.187 436.316 419.951C437.937 420.559 439.517 421.355 440.965 422.328C440.527 423.573 440.021 425.19 439.575 426.984C439.376 427.772 439.203 428.536 439.055 429.255Z" fill="#2A6992"/>
<path d="M439.596 429.838C439.419 429.644 439.239 429.449 439.055 429.255C439.203 428.536 439.376 427.772 439.575 426.984C440.021 425.189 440.527 423.573 440.965 422.328C441.123 422.435 441.279 422.543 441.433 422.652C441.097 423.893 440.672 425.452 440.248 427.154C440.009 428.099 439.792 429.004 439.596 429.838Z" fill="#BFC0BE"/>
<path d="M421.96 418.644C421.933 418.64 421.907 418.636 421.88 418.632L421.887 418.612C421.911 418.623 421.935 418.633 421.96 418.644ZM422.157 418.528C422.075 418.504 421.999 418.483 421.932 418.464L422.255 417.407C422.339 417.413 422.421 417.419 422.505 417.425C422.385 417.804 422.269 418.171 422.157 418.528Z" fill="#111D23"/>
<path d="M439.945 430.226C437.749 428.324 435.512 426.517 433.281 424.597C431.9 423.408 430.233 422.191 428.455 421.16C431.015 422.529 433.991 424.497 436.837 427.076C437.623 427.792 438.361 428.521 439.055 429.255C439.239 429.449 439.419 429.644 439.596 429.838C439.713 429.968 439.831 430.097 439.945 430.226ZM424.047 419.152C423.344 418.928 422.645 418.755 421.96 418.644C421.935 418.633 421.911 418.623 421.887 418.612L421.932 418.464C421.999 418.483 422.075 418.504 422.157 418.528C422.349 418.584 422.583 418.656 422.855 418.741C423.197 418.845 423.597 418.983 424.047 419.152Z" fill="#111D23"/>
<path d="M412.643 408.901C412.662 408.939 412.179 409.247 411.252 409.707C410.325 410.168 408.933 410.743 407.151 411.253C403.608 412.287 398.316 412.853 392.779 411.416C387.242 409.977 382.891 406.907 380.301 404.28C378.989 402.967 378.053 401.787 377.471 400.933C376.884 400.08 376.612 399.576 376.648 399.553C376.759 399.471 377.974 401.428 380.643 403.927C383.275 406.419 387.56 409.343 392.953 410.744C398.345 412.143 403.511 411.673 407.024 410.777C410.572 409.893 412.586 408.775 412.643 408.901Z" fill="#142631"/>
<path d="M395.088 417.188C395.036 417.188 394.984 417.188 394.93 417.187C391.833 417.136 388.964 415.547 386.509 413.657C382.432 410.515 379.838 405.876 377.656 401.199C378.245 402.024 379.121 403.099 380.301 404.28C382.89 406.907 387.241 409.977 392.778 411.416C393.574 411.623 394.365 411.788 395.146 411.916C394.316 413.355 393.832 414.303 393.924 414.361C393.926 414.363 393.929 414.364 393.934 414.364C394.064 414.364 394.756 413.447 395.736 412.007C397.082 412.197 398.397 412.281 399.656 412.281C402.236 412.281 404.585 411.929 406.5 411.432C403.168 414.249 399.428 417.188 395.088 417.188Z" fill="#2A6992"/>
<path d="M393.934 414.364C393.929 414.364 393.926 414.362 393.924 414.361C393.832 414.303 394.316 413.355 395.146 411.916C395.344 411.948 395.54 411.979 395.736 412.007C394.756 413.447 394.064 414.364 393.934 414.364Z" fill="#BFC0BE"/>
<path d="M400.023 411.629C398.785 411.629 397.491 411.551 396.164 411.372C396.211 411.301 396.259 411.229 396.308 411.157C397.597 411.389 398.9 411.549 400.205 411.628C400.145 411.629 400.084 411.629 400.023 411.629ZM395.52 411.277C394.673 411.144 393.816 410.968 392.953 410.744C387.903 409.432 383.823 406.784 381.163 404.405C385.075 407.572 390.223 409.948 395.664 411.035C395.615 411.117 395.567 411.197 395.52 411.277Z" fill="#2A6992"/>
<path d="M396.164 411.372C395.951 411.344 395.735 411.312 395.52 411.277C395.567 411.197 395.615 411.117 395.664 411.035C395.877 411.077 396.092 411.119 396.308 411.157C396.259 411.229 396.211 411.301 396.164 411.372Z" fill="#BFC0BE"/>
<path d="M399.656 412.281C398.397 412.281 397.083 412.197 395.736 412.007C395.54 411.979 395.344 411.948 395.147 411.916C394.365 411.788 393.575 411.623 392.779 411.416C387.241 409.977 382.891 406.907 380.301 404.28C379.121 403.099 378.245 402.024 377.656 401.199C377.56 400.995 377.465 400.789 377.372 400.584C378.433 401.949 379.713 403.232 381.163 404.405C383.823 406.784 387.903 409.432 392.953 410.744C393.816 410.968 394.673 411.144 395.52 411.277C395.735 411.312 395.951 411.344 396.164 411.372C397.491 411.551 398.785 411.629 400.023 411.629C400.084 411.629 400.145 411.629 400.205 411.628C400.845 411.668 401.488 411.688 402.127 411.688C403.631 411.688 405.128 411.577 406.6 411.347C406.567 411.376 406.533 411.404 406.5 411.432C404.585 411.929 402.236 412.281 399.656 412.281Z" fill="#111D23"/>
<path d="M426.667 335.244C426.455 335.231 426.709 330.664 426.161 325.079C425.64 319.488 424.523 315.052 424.728 315C424.816 314.977 425.205 316.059 425.652 317.861C426.101 319.66 426.581 322.188 426.853 325.012C427.121 327.835 427.131 330.407 427.032 332.26C426.933 334.113 426.756 335.249 426.667 335.244Z" fill="#142631"/>
<path d="M268.509 513.674C268.509 513.674 254.017 516.807 241.08 514.867C228.951 513.049 201.792 514.931 201.803 530.916C201.813 548.747 238.028 544.34 252.159 541.515C266.288 538.688 280.359 536.126 280.359 536.126L268.509 513.674Z" fill="#2A6992"/>
<path d="M235.985 536.516C235.799 536.559 235.015 533.78 234.235 530.312C233.456 526.841 232.975 523.996 233.163 523.954C233.349 523.912 234.133 526.69 234.912 530.16C235.692 533.628 236.172 536.474 235.985 536.516Z" fill="#142631"/>
<path d="M240.928 536.752C240.737 536.778 240.191 533.929 239.705 530.39C239.219 526.849 238.98 523.959 239.169 523.933C239.36 523.907 239.907 526.755 240.393 530.295C240.879 533.835 241.119 536.725 240.928 536.752Z" fill="#142631"/>
<path d="M245.701 534.886C245.51 534.911 245.053 532.421 244.68 529.328C244.308 526.235 244.158 523.709 244.349 523.686C244.54 523.662 244.997 526.152 245.37 529.245C245.742 532.338 245.892 534.866 245.701 534.886Z" fill="#142631"/>
<path d="M253.197 533.017C253.029 533.091 252 531.011 251.333 528.244C250.656 525.479 250.618 523.16 250.801 523.147C251 523.128 251.345 525.373 252.008 528.08C252.66 530.79 253.382 532.943 253.197 533.017Z" fill="#142631"/>
<path d="M254.804 526.5C254.8 526.46 255.472 526.347 256.697 526.374C257.917 526.408 259.711 526.607 261.785 527.369C262.308 527.565 262.851 527.817 263.352 528.215C263.847 528.596 264.313 529.217 264.333 529.98C264.349 531.557 262.617 532.695 261.052 532.366C259.469 532.062 258.265 530.904 257.269 529.671C256.261 528.411 255.533 526.871 255.129 525.215C254.335 521.888 254.925 518.448 256.724 515.981C256.985 515.685 257.347 515.401 257.8 515.333C258.239 515.26 258.713 515.431 259.005 515.711C259.599 516.273 259.807 516.987 259.913 517.656C260.081 518.964 259.988 520.203 259.721 521.281C259.2 523.459 258.113 524.967 257.276 525.855C256.849 526.298 256.481 526.605 256.219 526.792C255.953 526.979 255.809 527.065 255.795 527.047C255.755 526.996 256.3 526.592 257.073 525.674C257.827 524.759 258.807 523.262 259.241 521.173C259.468 520.138 259.525 518.964 259.344 517.74C259.251 517.165 259.02 516.54 258.603 516.169C258.193 515.792 257.605 515.897 257.205 516.404C255.64 518.605 255.033 521.937 255.804 525.05C256.185 526.613 256.867 528.065 257.805 529.253C258.731 530.425 259.871 531.488 261.165 531.735C262.404 532.04 263.784 531.073 263.757 529.993C263.756 529.455 263.435 528.973 263.012 528.628C262.591 528.274 262.095 528.025 261.608 527.826C259.617 527.029 257.876 526.76 256.681 526.644C255.48 526.535 254.807 526.556 254.804 526.5Z" fill="#142631"/>
<path d="M278.925 533.768C278.928 533.78 278.804 533.82 278.56 533.884C278.278 533.955 277.92 534.045 277.473 534.156C276.465 534.384 275.06 534.705 273.272 535.112C269.617 535.916 264.314 537.045 257.728 538.317C251.14 539.579 243.272 541.025 234.449 542.225C230.051 542.817 225.34 543.352 220.462 542.924C218.029 542.745 215.551 542.327 213.137 541.523C211.941 541.093 210.74 540.625 209.621 539.961C208.5 539.296 207.42 538.572 206.533 537.473L206.587 537.533C206.139 537.1 205.67 536.605 205.326 536.02C203.845 533.654 203.799 530.715 204.589 528.217C205.401 525.668 207.216 523.637 209.235 522.145C211.281 520.656 213.556 519.617 215.839 518.873C216.995 518.545 218.12 518.148 219.264 517.888C220.416 517.66 221.541 517.353 222.676 517.197C231.757 515.762 240.019 516.492 246.881 516.493C250.322 516.557 253.431 516.464 256.155 516.297C258.876 516.092 261.208 515.783 263.093 515.42C264.026 515.224 264.861 515.049 265.592 514.895C266.29 514.696 266.89 514.526 267.392 514.381C267.849 514.256 268.216 514.156 268.504 514.076C268.756 514.011 268.887 513.983 268.891 513.993C268.895 514.005 268.772 514.055 268.526 514.144C268.244 514.24 267.884 514.362 267.433 514.516C266.935 514.678 266.34 514.871 265.645 515.095C264.913 515.268 264.08 515.465 263.146 515.685C261.26 516.092 258.917 516.441 256.184 516.685C253.451 516.89 250.325 517.017 246.878 516.985C245.122 517 243.276 516.967 241.351 516.935C235.737 516.84 229.456 516.745 222.781 517.826C221.661 517.988 220.555 518.293 219.42 518.523C218.292 518.781 217.188 519.176 216.052 519.5C213.812 520.237 211.601 521.257 209.64 522.692C207.701 524.129 205.996 526.061 205.246 528.431C204.505 530.767 204.569 533.515 205.913 535.652C206.224 536.18 206.648 536.624 207.049 537.016L207.072 537.039L207.103 537.076C207.839 537.99 208.909 538.745 209.967 539.361C211.036 539.997 212.199 540.45 213.356 540.871C215.7 541.654 218.125 542.069 220.519 542.249C225.32 542.68 229.967 542.169 234.367 541.597C243.172 540.435 251.043 539.04 257.639 537.84C264.232 536.631 269.546 535.574 273.217 534.852C275.016 534.497 276.431 534.22 277.444 534.02C277.897 533.937 278.26 533.871 278.545 533.817C278.793 533.773 278.922 533.759 278.925 533.768Z" fill="#142631"/>
<path d="M225.935 542.355C225.834 542.355 225.75 540.937 225.584 538.65C225.42 536.366 225.148 533.215 224.686 529.752C224.22 526.289 223.654 523.177 223.211 520.929C222.768 518.681 222.476 517.291 222.575 517.265C222.662 517.241 223.123 518.591 223.69 520.823C224.259 523.052 224.906 526.173 225.374 529.66C225.84 533.145 226.036 536.326 226.075 538.628C226.115 540.932 226.026 542.353 225.935 542.355Z" fill="#142631"/>
<path d="M273.232 537.447C277.572 536.635 280.359 536.126 280.359 536.126L273.232 537.447ZM264.051 514.448L264.049 514.447L266.711 513.674L266.899 513.985C266.164 514.117 265.199 514.279 264.051 514.448Z" fill="#8C8F8F"/>
<path d="M273.232 537.447L272.379 535.308C272.687 535.241 272.984 535.176 273.272 535.112C275.06 534.705 276.465 534.384 277.473 534.156C277.92 534.045 278.279 533.955 278.56 533.884C278.799 533.821 278.923 533.783 278.925 533.769L280.359 536.126C280.359 536.126 277.572 536.635 273.232 537.447ZM272.271 535.038L264.424 515.384C264.857 515.28 265.265 515.184 265.645 515.095C266.259 514.896 266.796 514.723 267.257 514.573L278.924 533.768C278.921 533.767 278.917 533.766 278.909 533.766C278.867 533.766 278.744 533.783 278.545 533.817C278.26 533.871 277.897 533.937 277.444 534.02C276.431 534.22 275.016 534.497 273.217 534.852C272.913 534.912 272.597 534.974 272.271 535.038ZM264.335 515.16L264.051 514.448C265.199 514.279 266.164 514.117 266.899 513.985L267.177 514.443C266.723 514.573 266.195 514.724 265.592 514.895C265.201 514.977 264.783 515.065 264.335 515.16Z" fill="#2A6992"/>
<path d="M272.378 535.308L272.27 535.038C272.597 534.974 272.913 534.912 273.217 534.852C275.016 534.497 276.43 534.22 277.444 534.02C277.897 533.937 278.26 533.871 278.545 533.817C278.744 533.783 278.866 533.766 278.909 533.766C278.917 533.766 278.921 533.767 278.924 533.768L278.925 533.769C278.922 533.783 278.798 533.821 278.56 533.884C278.278 533.955 277.92 534.045 277.473 534.156C276.465 534.384 275.06 534.705 273.272 535.112C272.984 535.176 272.686 535.241 272.378 535.308ZM264.424 515.384L264.334 515.16C264.782 515.066 265.201 514.978 265.592 514.895C266.194 514.724 266.722 514.573 267.177 514.443L267.257 514.573C266.796 514.723 266.258 514.896 265.645 515.095C265.265 515.184 264.857 515.28 264.424 515.384Z" fill="#0C1418"/>
<path d="M383.728 451.403C382.252 451.895 287.352 425.303 248.974 414.511C238.894 411.677 228.085 413.314 219.296 419.003L218.833 419.303C205.93 427.655 199.652 443.202 203.136 458.171C205.346 467.676 211.269 475.892 219.592 480.992C244.9 496.495 298.458 529.114 300.096 528.479C302.244 527.648 369.132 525.912 369.132 525.912L288.662 468.041L326.944 492.781L383.728 451.403Z" fill="#142631"/>
<path d="M304.498 422.524L324.672 412.09L344.454 424.491L418.518 426.909L429.238 462.968L322.04 438.116C322.04 438.116 302.528 439.843 301.066 435.457C299.605 431.072 304.498 422.524 304.498 422.524Z" fill="#EFBEB8"/>
<path d="M365.177 480.309L355.208 513.052L356.447 523.031C374.613 541.343 403.561 543.293 424.021 527.585C436.459 518.035 443.72 503.221 443.652 487.541L443.501 453.328L365.177 480.309Z" fill="#142631"/>
<path d="M305.799 480.523C305.684 480.676 294.109 472.237 279.949 461.676C265.785 451.111 254.399 442.426 254.512 442.272C254.627 442.117 266.2 450.553 280.365 461.119C294.525 471.68 305.913 480.369 305.799 480.523Z" fill="#33535F"/>
<path d="M323.312 418.625C323.371 418.809 318.952 420.386 313.444 422.152C307.936 423.917 303.424 425.2 303.365 425.017C303.307 424.833 307.724 423.256 313.233 421.492C318.74 419.725 323.253 418.443 323.312 418.625Z" fill="#F68260"/>
<path d="M324.82 424.773C324.829 424.876 323.508 425.073 321.384 425.42C319.26 425.767 316.335 426.287 313.139 427.02C309.941 427.757 307.083 428.566 305.02 429.181C302.957 429.797 301.683 430.197 301.648 430.102C301.616 430.017 302.832 429.454 304.867 428.716C306.9 427.976 309.761 427.086 312.984 426.344C316.205 425.605 319.167 425.156 321.319 424.933C323.472 424.709 324.812 424.685 324.82 424.773Z" fill="#F68260"/>
<path d="M323.131 430.415C323.168 430.604 318.192 431.748 312.017 432.973C305.84 434.197 300.804 435.037 300.767 434.849C300.731 434.66 305.705 433.516 311.881 432.292C318.056 431.067 323.095 430.227 323.131 430.415Z" fill="#F68260"/>
<path d="M296.96 374.152L315.568 435.381C315.781 436.081 316.402 436.579 317.132 436.633L367.84 440.438C368.764 440.508 369.481 441.279 369.481 442.208V445.373C369.481 446.365 368.665 447.164 367.673 447.147L229.058 444.543C228.336 444.528 227.693 444.076 227.434 443.4L203.058 379.536C202.628 378.408 203.426 377.188 204.632 377.132L295.18 372.896C295.99 372.859 296.724 373.376 296.96 374.152Z" fill="#A5B4BE"/>
<path d="M257.9 400.535C256.915 400.793 255.351 402.185 255.157 403.648C254.965 405.111 255.752 406.601 256.949 407.463C258.409 408.513 260.523 408.656 262.016 407.653C263.511 406.649 264.172 404.667 263.4 402.536C262.787 400.844 259.692 399.661 257.9 400.535Z" fill="#DADBD8"/>
<path d="M280.359 536.126L265.708 512.025L373.444 427.588C380.145 422.091 388.343 418.731 396.976 417.944C423.773 415.504 446.283 437.845 444.043 464.661L442.321 485.262L370.809 508.241L280.359 536.126Z" fill="#142631"/>
<path d="M418.518 478.9C418.526 478.909 418.429 478.999 418.233 479.165C418.005 479.355 417.714 479.593 417.353 479.891C416.53 480.548 415.381 481.465 413.922 482.629C413.169 483.223 412.339 483.881 411.43 484.597C410.522 485.319 409.451 485.987 408.344 486.768C407.225 487.535 406.03 488.353 404.765 489.22C404.129 489.652 403.484 490.109 402.804 490.55C402.108 490.969 401.396 491.397 400.665 491.837C397.738 493.585 394.578 495.586 390.996 497.396C389.22 498.325 387.408 499.338 385.493 500.285C383.562 501.201 381.577 502.143 379.54 503.107C371.339 506.847 362.152 510.607 352.304 513.956C332.627 520.736 314.432 525.619 301.401 529.568C298.136 530.529 295.191 531.429 292.612 532.245C290.028 533.043 287.801 533.731 286 534.344C284.225 534.921 282.829 535.374 281.829 535.7C281.38 535.837 281.021 535.948 280.739 536.036C280.491 536.107 280.362 536.138 280.358 536.126C280.354 536.116 280.475 536.062 280.715 535.968C280.992 535.864 281.344 535.732 281.783 535.567C282.773 535.213 284.156 534.716 285.913 534.088C287.704 533.436 289.918 532.709 292.493 531.876C295.064 531.024 298 530.091 301.26 529.1C314.261 525.026 332.432 520.069 352.076 513.3C361.909 509.956 371.079 506.223 379.273 502.526C381.309 501.572 383.294 500.643 385.222 499.737C387.137 498.804 388.948 497.804 390.725 496.888C394.31 495.107 397.473 493.135 400.409 491.42C401.143 490.988 401.857 490.567 402.554 490.156C403.238 489.724 403.884 489.272 404.524 488.85C405.796 488.001 406.997 487.2 408.122 486.448C409.237 485.684 410.317 485.033 411.236 484.328C412.154 483.632 412.996 482.993 413.758 482.415C415.25 481.295 416.424 480.415 417.264 479.783C417.645 479.507 417.949 479.285 418.189 479.111C418.398 478.962 418.51 478.891 418.518 478.9Z" fill="#33535F"/>
<path d="M421.133 490.169C421.151 490.215 420.763 490.415 420.045 490.738C419.329 491.068 418.274 491.496 416.954 491.988C414.317 492.971 410.594 494.137 406.389 495.044C402.182 495.944 398.309 496.411 395.5 496.597C394.096 496.692 392.957 496.735 392.169 496.728C391.381 496.728 390.947 496.705 390.944 496.657C390.94 496.549 392.672 496.421 395.456 496.108C398.239 495.797 402.069 495.259 406.244 494.364C410.416 493.464 414.131 492.383 416.795 491.523C419.46 490.664 421.093 490.071 421.133 490.169Z" fill="#33535F"/>
<path d="M369.132 431.638C369.251 431.791 346.192 449.909 317.636 472.104C289.071 494.307 265.827 512.174 265.708 512.024C265.591 511.873 288.645 493.759 317.209 471.555C345.765 449.361 369.015 431.488 369.132 431.638Z" fill="#33535F"/>
<path d="M362.905 521.24C357.739 518.484 351.936 520.112 346.992 521.779C343.701 522.888 340.28 524.645 336.937 523.705C334.52 523.024 332.723 521.066 330.876 519.362C323.431 512.495 313.163 508.749 303.028 509.384C300.149 509.564 297.336 510.723 295.38 512.841C290.304 518.338 294.132 525.493 298.668 530.116C306.676 538.279 317.581 543.538 328.952 544.725C338.405 545.713 351.401 544.407 360.988 540.303C366.899 537.772 369.929 530.802 366.828 525.169C365.925 523.528 364.604 522.147 362.905 521.24Z" fill="#2A6992"/>
<path d="M335.312 545.04C333.075 545.04 330.929 544.933 328.941 544.725C322.176 544.019 315.576 541.872 309.653 538.529H309.664C315.587 541.872 322.187 544.019 328.952 544.725C330.939 544.933 333.083 545.038 335.317 545.04C335.316 545.04 335.313 545.04 335.312 545.04ZM308.473 537.835C308.463 537.835 308.472 537.835 308.461 537.835C305 535.755 301.789 533.259 298.936 530.399L298.945 530.396C301.799 533.257 305.011 535.755 308.473 537.835Z" fill="#8C8F8F"/>
<path d="M309.653 538.529C309.252 538.302 308.856 538.072 308.461 537.835C308.472 537.835 308.463 537.835 308.473 537.835C308.867 538.072 309.264 538.302 309.664 538.529H309.653Z" fill="#0C1418"/>
<path d="M298.936 530.399C298.912 530.375 298.885 530.348 298.86 530.323C298.864 530.321 298.866 530.321 298.869 530.32C298.894 530.345 298.92 530.372 298.945 530.396L298.936 530.399ZM298.494 529.951C296.817 528.211 295.257 526.128 294.225 523.919C295.26 526.128 296.826 528.208 298.504 529.947C298.501 529.948 298.497 529.949 298.494 529.951Z" fill="#0C1418"/>
<path d="M298.86 530.323C298.792 530.254 298.724 530.185 298.656 530.116C298.603 530.061 298.548 530.005 298.495 529.95C298.497 529.949 298.501 529.948 298.504 529.947C298.559 530.004 298.613 530.06 298.668 530.116C298.735 530.184 298.803 530.252 298.869 530.32C298.867 530.321 298.864 530.321 298.86 530.323Z" fill="#1A2C33"/>
<path d="M335.317 545.04C333.083 545.038 330.939 544.933 328.952 544.725C322.187 544.019 315.587 541.872 309.664 538.529C309.264 538.303 308.867 538.072 308.473 537.835C305.011 535.755 301.799 533.257 298.945 530.396C298.92 530.372 298.895 530.345 298.869 530.32C298.803 530.252 298.735 530.184 298.668 530.116C298.613 530.06 298.559 530.004 298.504 529.947C296.827 528.208 295.26 526.128 294.225 523.919C293.793 522.995 293.455 522.048 293.237 521.096C293.577 519.761 294.244 518.459 295.368 517.241C297.325 515.123 300.139 513.964 303.016 513.784C303.76 513.737 304.503 513.715 305.245 513.715C314.64 513.715 323.965 517.399 330.865 523.762C332.711 525.465 334.509 527.424 336.927 528.104C337.591 528.292 338.259 528.372 338.928 528.372C341.624 528.372 344.344 527.068 346.981 526.179C349.999 525.161 353.337 524.157 356.656 524.157C358.773 524.157 360.883 524.567 362.895 525.64C364.593 526.547 365.913 527.928 366.817 529.569C367.283 530.415 367.593 531.291 367.795 532.178C367.029 535.654 364.531 538.781 360.977 540.303C353.408 543.543 343.715 545.038 335.317 545.04Z" fill="#2A6992"/>
<path d="M367.795 532.178C367.7 532.209 367.725 530.915 366.528 529.115C365.928 528.237 365.033 527.247 363.763 526.412C362.512 525.566 360.892 524.833 359.012 524.593C355.175 524.143 350.729 525.757 345.791 527.093C343.349 527.74 340.683 528.728 337.763 528.362C336.337 528.178 334.908 527.704 333.635 526.933C332.365 526.172 331.209 525.232 330.087 524.261C325.829 520.105 320.78 517.504 315.953 515.862C313.539 515.052 311.167 514.519 308.921 514.231C306.675 513.935 304.56 513.897 302.667 514.193C300.776 514.488 299.133 515.108 297.828 515.883C296.529 516.669 295.564 517.581 294.865 518.393C293.493 520.055 293.031 521.192 292.956 521.149C292.956 521.149 293.321 519.973 294.656 518.221C295.339 517.366 296.301 516.396 297.625 515.55C298.953 514.72 300.644 514.044 302.587 513.709C304.532 513.372 306.709 513.383 308.991 513.66C311.277 513.928 313.695 514.448 316.153 515.256C318.616 516.056 321.116 517.15 323.573 518.529C324.788 519.236 326.027 519.971 327.184 520.881C328.333 521.781 329.423 522.772 330.54 523.735C331.653 524.699 332.781 525.614 333.987 526.338C335.185 527.068 336.507 527.505 337.849 527.688C340.553 528.045 343.147 527.12 345.623 526.476C350.54 525.19 355.061 523.579 359.073 524.105C363.055 524.74 365.619 527.131 366.755 528.968C367.337 529.908 367.596 530.737 367.711 531.303C367.808 531.873 367.813 532.176 367.795 532.178Z" fill="#142631"/>
<path d="M367.795 532.178C367.7 532.209 367.725 530.915 366.528 529.115C365.928 528.237 365.033 527.247 363.763 526.412C362.512 525.566 360.892 524.833 359.012 524.593C355.175 524.143 350.729 525.757 345.791 527.093C343.349 527.74 340.683 528.728 337.763 528.362C336.337 528.178 334.908 527.704 333.635 526.933C332.365 526.172 331.209 525.232 330.087 524.261C325.829 520.105 320.78 517.504 315.953 515.862C313.539 515.052 311.167 514.519 308.921 514.231C306.675 513.935 304.56 513.897 302.667 514.193C300.776 514.488 299.133 515.108 297.828 515.883C296.529 516.669 295.564 517.581 294.865 518.393C293.493 520.055 293.031 521.192 292.956 521.149C292.956 521.149 293.321 519.973 294.656 518.221C295.339 517.366 296.301 516.396 297.625 515.55C298.953 514.72 300.644 514.044 302.587 513.709C304.532 513.372 306.709 513.383 308.991 513.66C311.277 513.928 313.695 514.448 316.153 515.256C318.616 516.056 321.116 517.15 323.573 518.529C324.788 519.236 326.027 519.971 327.184 520.881C328.333 521.781 329.423 522.772 330.54 523.735C331.653 524.699 332.781 525.614 333.987 526.338C335.185 527.068 336.507 527.505 337.849 527.688C340.553 528.045 343.147 527.12 345.623 526.476C350.54 525.19 355.061 523.579 359.073 524.105C363.055 524.74 365.619 527.131 366.755 528.968C367.337 529.908 367.596 530.737 367.711 531.303C367.808 531.873 367.813 532.176 367.795 532.178Z" fill="#142631"/>
<path d="M303.703 530.933C303.655 530.855 304.651 530.133 306.348 529.1C308.044 528.065 310.449 526.736 313.195 525.444C315.941 524.156 318.5 523.15 320.378 522.504C322.258 521.857 323.448 521.549 323.479 521.636C323.511 521.731 322.377 522.203 320.553 522.962C318.728 523.723 316.217 524.792 313.489 526.073C310.764 527.356 308.34 528.607 306.591 529.526C304.84 530.447 303.755 531.019 303.703 530.933Z" fill="#142631"/>
<path d="M305.477 536.102C305.393 535.929 309.913 533.572 315.571 530.836C321.229 528.101 325.883 526.024 325.967 526.196C326.049 526.369 321.532 528.725 315.873 531.461C310.215 534.197 305.56 536.273 305.477 536.102Z" fill="#142631"/>
<path d="M326.887 538.343C326.784 538.505 321.277 535.219 314.588 531.004C307.897 526.789 302.557 523.241 302.659 523.079C302.761 522.916 308.267 526.201 314.959 530.417C321.648 534.632 326.988 538.18 326.887 538.343Z" fill="#142631"/>
<path d="M329.985 532.981C329.924 533.057 328.909 532.347 327.289 531.179C325.669 530.011 323.434 528.397 320.934 526.661C318.43 524.928 316.136 523.402 314.474 522.295C312.812 521.187 311.79 520.488 311.84 520.402C311.887 520.323 312.999 520.873 314.734 521.879C316.467 522.881 318.816 524.349 321.328 526.092C323.842 527.833 326.04 529.519 327.589 530.79C329.137 532.06 330.043 532.908 329.985 532.981Z" fill="#142631"/>
</g>
<defs>
<clipPath id="clip0_1_1229">
<rect width="504" height="545" fill="white"/>
</clipPath>
</defs>
</svg>
